<svg width="6" height="11" viewBox="0 0 6 11" fill="none" xmlns="http://www.w3.org/2000/svg">
<path d="M1.37365 0.665377C1.19019 0.458986 0.874158 0.440395 0.667766 0.623854C0.461375 0.807312 0.442784 1.12335 0.626243 1.32974L1.37365 0.665377ZM0.626234 9.66538C0.442775 9.87177 0.461366 10.1878 0.667757 10.3713C0.874148 10.5547 1.19018 10.5361 1.37364 10.3297L0.626234 9.66538ZM4.70467 5.16538L4.33096 5.49756L4.70467 5.16538ZM0.626243 1.32974L4.33096 5.49756L5.07837 4.8332L1.37365 0.665377L0.626243 1.32974ZM4.33096 5.49756L0.626234 9.66538L1.37364 10.3297L5.07837 6.16192L4.33096 5.49756ZM4.33096 5.49756V5.49756L5.07837 6.16192C5.41516 5.78304 5.41516 5.21208 5.07837 4.8332L4.33096 5.49756Z" fill="white"/>
</svg>
