<svg width="90" height="93" viewBox="0 0 90 93" fill="none" xmlns="http://www.w3.org/2000/svg">
<path d="M41.087 11.8248C41.087 18.355 35.8307 23.6496 29.3478 23.6496C22.8649 23.6496 17.6087 18.355 17.6087 11.8248C17.6087 5.29461 22.8649 0 29.3478 0C35.8307 0 41.087 5.29461 41.087 11.8248Z" fill="#FDF5E7"/>
<path d="M58.6957 65.0365V43.3576C58.6871 35.7419 52.5605 29.5707 45 29.562H13.6957C6.13515 29.5707 0.00859794 35.7419 0 43.3576V65.0365H58.6957ZM11.7391 65.0365V41.3868H15.6522V65.0365H11.7391ZM43.0435 65.0365V41.3868H46.9565V65.0365H43.0435Z" fill="#FDF5E7"/>
<path d="M72.3913 11.8248C72.3913 18.355 67.1351 23.6496 60.6522 23.6496C54.1693 23.6496 48.913 18.355 48.913 11.8248C48.913 5.29461 54.1693 0 60.6522 0C67.1351 0 72.3913 5.29461 72.3913 11.8248Z" fill="#FDF5E7"/>
<path d="M90 65.0365V43.3576C89.9914 35.7419 83.8649 29.5707 76.3044 29.562H45C37.4395 29.5707 31.3129 35.7419 31.3044 43.3576V65.0365H90ZM43.0435 65.0365V41.3868H46.9565V65.0365H43.0435ZM74.3478 65.0365V41.3868H78.2609V65.0365H74.3478Z" fill="#FDF5E7"/>
<path d="M45 50.113C52.3216 50.113 58.2391 44.1365 58.2391 36.7882C58.2391 29.4399 52.3216 23.4634 45 23.4634C37.6784 23.4634 31.7609 29.4399 31.7609 36.7882C31.7609 44.1365 37.6784 50.113 45 50.113Z" fill="#FDF5E7" stroke="white" stroke-width="3"/>
<path d="M74.3478 91.4998H75.8478V89.9998V68.321L75.8478 68.3193C75.8383 59.8868 69.0517 53.035 60.6539 53.0254H60.6522L29.3478 53.0254L29.3461 53.0254C20.9483 53.035 14.1617 59.8868 14.1522 68.3193V68.321V89.9998V91.4998H15.6522H25.8913H27.3913H31.3043H32.8043H57.1957H58.6957H62.6087H64.1087H74.3478ZM29.8043 88.4998H28.8913V67.8502H29.8043V88.4998ZM61.1087 88.4998H60.1957V67.8502H61.1087V88.4998Z" fill="#FDF5E7" stroke="white" stroke-width="3"/>
</svg>
