<svg width="243" height="50" viewBox="0 0 243 50" fill="none" xmlns="http://www.w3.org/2000/svg">
<path d="M48.4268 25.2134C48.4268 30.0023 47.0067 34.6837 44.3461 38.6656C41.6855 42.6475 37.9039 45.751 33.4794 47.5836C29.055 49.4163 24.1865 49.8958 19.4896 48.9615C14.7927 48.0272 10.4782 45.7211 7.09194 42.3348C3.70564 38.9485 1.39954 34.6341 0.465264 29.9372C-0.469014 25.2402 0.0104913 20.3717 1.84314 15.9473C3.6758 11.5229 6.77929 7.74129 10.7612 5.08069C14.743 2.42009 19.4244 1 24.2134 1C30.6352 1 36.7939 3.55104 41.3348 8.09193C45.8757 12.6328 48.4268 18.7916 48.4268 25.2134Z" fill="#FD1015"/>
<path d="M29.4645 32.2586C29.4539 32.3281 29.4186 32.3916 29.365 32.4371C29.3114 32.4827 29.2431 32.5073 29.1728 32.5066H18.6706C18.5932 32.5066 18.519 32.4758 18.4643 32.4211C18.4096 32.3664 18.3789 32.2922 18.3789 32.2148C18.3789 31.2864 18.01 30.396 17.3535 29.7394C16.697 29.0829 15.8066 28.7141 14.8781 28.7141C13.9497 28.7141 13.0593 29.0829 12.4027 29.7394C11.7462 30.396 11.3774 31.2864 11.3774 32.2148C11.3774 32.2148 11.3774 32.2411 11.3774 32.2557C11.3668 32.3252 11.3315 32.3886 11.2779 32.4342C11.2243 32.4798 11.156 32.5044 11.0857 32.5036H10.2105C10.1331 32.5036 10.0589 32.4729 10.0042 32.4182C9.9495 32.3635 9.91876 32.2893 9.91876 32.2119V31.6285C9.91876 31.5511 9.9495 31.4769 10.0042 31.4222C10.0589 31.3675 10.1331 31.3367 10.2105 31.3367V27.5472C10.2105 27.4698 10.2412 27.3956 10.2959 27.3409C10.3506 27.2862 10.4248 27.2555 10.5022 27.2555H32.9652C33.7054 27.2532 34.4376 27.408 35.1135 27.7098C35.7894 28.0115 36.3936 28.4533 36.886 29.0058C36.959 29.0875 37.0494 29.2013 37.1603 29.3471C37.2146 29.4196 37.2851 29.4784 37.3661 29.5189C37.4471 29.5594 37.5365 29.5805 37.627 29.5805H38.7939C38.9487 29.5805 39.0971 29.642 39.2065 29.7514C39.3159 29.8608 39.3774 30.0092 39.3774 30.164V31.9143C39.3774 32.0691 39.3159 32.2175 39.2065 32.3269C39.0971 32.4363 38.9487 32.4978 38.7939 32.4978H36.7518C36.6811 32.4985 36.6124 32.4734 36.5588 32.4273C36.5051 32.3811 36.47 32.317 36.4601 32.2469C36.4601 32.2469 36.4601 32.2236 36.4601 32.209C36.4225 31.3061 36.0371 30.4527 35.3847 29.8274C34.7322 29.202 33.8632 28.8533 32.9595 28.854C32.0558 28.8548 31.1874 29.205 30.536 29.8314C29.8846 30.4578 29.5006 31.3118 29.4645 32.2148V32.2148C29.4645 32.2148 29.4645 32.244 29.4645 32.2586ZM38.7998 28.1306C38.7998 28.208 38.769 28.2822 38.7143 28.3369C38.6596 28.3916 38.5854 28.4224 38.508 28.4224H38.05C38.0086 28.4223 37.9677 28.4134 37.93 28.3963C37.8922 28.3792 37.8586 28.3543 37.8312 28.3232C37.6387 28.1102 37.4899 27.9498 37.3761 27.8447C36.1858 26.7147 34.6065 26.0859 32.9652 26.0886H10.5022C10.4248 26.0886 10.3506 26.0578 10.2959 26.0031C10.2412 25.9484 10.2105 25.8742 10.2105 25.7968V19.0112C10.21 18.3777 10.4386 17.7654 10.8541 17.2871C11.2696 16.8089 11.844 16.497 12.4714 16.409C16.1353 15.8792 19.8317 15.6043 23.5337 15.5864C29.7095 15.5864 32.1075 16.0765 34.4239 17.3367C35.8339 18.1049 37.1729 19.9526 38.441 22.8795C38.6797 23.4321 38.8018 24.028 38.7998 24.6299V28.1306ZM11.9609 18.7954C11.8835 18.7954 11.8093 18.8261 11.7546 18.8808C11.6999 18.9355 11.6691 19.0097 11.6691 19.0871V23.463C11.6691 23.5404 11.6999 23.6146 11.7546 23.6693C11.8093 23.724 11.8835 23.7547 11.9609 23.7547H16.3368C16.4141 23.7547 16.4883 23.724 16.543 23.6693C16.5978 23.6146 16.6285 23.5404 16.6285 23.463V19.0871C16.6285 19.0097 16.5978 18.9355 16.543 18.8808C16.4883 18.8261 16.4141 18.7954 16.3368 18.7954H11.9609ZM24.2134 18.7954C24.136 18.7954 24.0618 18.8261 24.0071 18.8808C23.9524 18.9355 23.9217 19.0097 23.9217 19.0871V23.463C23.9217 23.5404 23.9524 23.6146 24.0071 23.6693C24.0618 23.724 24.136 23.7547 24.2134 23.7547H28.5893C28.6667 23.7547 28.7409 23.724 28.7956 23.6693C28.8503 23.6146 28.881 23.5404 28.881 23.463V19.0871C28.881 19.0097 28.8503 18.9355 28.7956 18.8808C28.7409 18.8261 28.6667 18.7954 28.5893 18.7954H24.2134ZM18.0871 18.7954C18.0098 18.7954 17.9356 18.8261 17.8808 18.8808C17.8261 18.9355 17.7954 19.0097 17.7954 19.0871V23.463C17.7954 23.5404 17.8261 23.6146 17.8808 23.6693C17.9356 23.724 18.0098 23.7547 18.0871 23.7547H22.463C22.5404 23.7547 22.6146 23.724 22.6693 23.6693C22.724 23.6146 22.7548 23.5404 22.7548 23.463V19.0871C22.7548 19.0097 22.724 18.9355 22.6693 18.8808C22.6146 18.8261 22.5404 18.7954 22.463 18.7954H18.0871ZM30.3397 18.7954C30.2623 18.7954 30.1881 18.8261 30.1334 18.8808C30.0787 18.9355 30.048 19.0097 30.048 19.0871V23.463C30.048 23.5404 30.0787 23.6146 30.1334 23.6693C30.1881 23.724 30.2623 23.7547 30.3397 23.7547H37.0669C37.1029 23.755 37.1387 23.7481 37.1719 23.7343C37.2438 23.7063 37.3016 23.651 37.3327 23.5805C37.3639 23.5099 37.3659 23.43 37.3382 23.358C37.0371 22.5615 36.6662 21.7932 36.2297 21.0621C36.1684 20.9571 36.11 20.852 36.0575 20.747C35.7558 20.1596 35.298 19.6668 34.7345 19.3225C34.171 18.9782 33.5235 18.7958 32.8631 18.7954H30.3397ZM14.8781 34.8404C14.4165 34.8404 13.9653 34.7035 13.5815 34.4471C13.1977 34.1906 12.8986 33.8261 12.722 33.3997C12.5453 32.9732 12.4991 32.504 12.5892 32.0512C12.6792 31.5985 12.9015 31.1827 13.2279 30.8563C13.5543 30.5299 13.9701 30.3076 14.4228 30.2176C14.8755 30.1275 15.3448 30.1737 15.7712 30.3504C16.1977 30.527 16.5622 30.8262 16.8186 31.21C17.0751 31.5937 17.2119 32.045 17.2119 32.5066C17.2119 33.1255 16.9661 33.7191 16.5284 34.1568C16.0907 34.5945 15.4971 34.8404 14.8781 34.8404ZM14.8781 33.6735C15.1089 33.6735 15.3345 33.605 15.5264 33.4768C15.7183 33.3486 15.8679 33.1663 15.9562 32.9531C16.0445 32.7399 16.0676 32.5053 16.0226 32.2789C15.9776 32.0525 15.8665 31.8446 15.7033 31.6814C15.5401 31.5182 15.3321 31.4071 15.1058 31.3621C14.8794 31.317 14.6448 31.3401 14.4316 31.4285C14.2183 31.5168 14.0361 31.6664 13.9079 31.8583C13.7797 32.0502 13.7112 32.2758 13.7112 32.5066C13.7112 32.816 13.8342 33.1128 14.053 33.3317C14.2718 33.5505 14.5686 33.6735 14.8781 33.6735ZM32.9652 34.8404C32.5036 34.8404 32.0524 34.7035 31.6686 34.4471C31.2848 34.1906 30.9857 33.8261 30.8091 33.3997C30.6324 32.9732 30.5862 32.504 30.6763 32.0512C30.7663 31.5985 30.9886 31.1827 31.315 30.8563C31.6414 30.5299 32.0572 30.3076 32.5099 30.2176C32.9626 30.1275 33.4319 30.1737 33.8583 30.3504C34.2848 30.527 34.6493 30.8262 34.9057 31.21C35.1622 31.5937 35.299 32.045 35.299 32.5066C35.299 33.1255 35.0532 33.7191 34.6155 34.1568C34.1778 34.5945 33.5842 34.8404 32.9652 34.8404ZM32.9652 33.6735C33.196 33.6735 33.4216 33.605 33.6135 33.4768C33.8054 33.3486 33.955 33.1663 34.0433 32.9531C34.1316 32.7399 34.1547 32.5053 34.1097 32.2789C34.0647 32.0525 33.9536 31.8446 33.7904 31.6814C33.6272 31.5182 33.4192 31.4071 33.1929 31.3621C32.9665 31.317 32.7319 31.3401 32.5187 31.4285C32.3054 31.5168 32.1232 31.6664 31.995 31.8583C31.8668 32.0502 31.7983 32.2758 31.7983 32.5066C31.7983 32.816 31.9213 33.1128 32.1401 33.3317C32.3589 33.5505 32.6557 33.6735 32.9652 33.6735Z" fill="white"/>
<path d="M62.4297 17.8852H68.7719C68.496 17.2753 68.0502 16.7579 67.4878 16.395C66.9253 16.0321 66.2702 15.8391 65.6008 15.8391C64.9314 15.8391 64.2763 16.0321 63.7138 16.395C63.1514 16.7579 62.7055 17.2753 62.4297 17.8852V17.8852ZM72.0071 20.5458C71.9712 20.6085 71.9194 20.6607 71.857 20.6971C71.7945 20.7334 71.7235 20.7527 71.6512 20.7529H62.4297C62.6332 21.2055 62.9313 21.6092 63.304 21.9369C63.6768 22.2645 64.1154 22.5084 64.5904 22.6522C65.0653 22.796 65.5656 22.8362 66.0574 22.7703C66.5493 22.7043 67.0213 22.5337 67.4416 22.2699C67.6013 22.1664 67.7525 22.0503 67.8938 21.9227C67.9652 21.8605 68.0499 21.8155 68.1415 21.7912C68.233 21.767 68.3289 21.764 68.4218 21.7827L70.8198 22.2786C70.8726 22.2894 70.9227 22.3105 70.9672 22.3407C71.0118 22.3709 71.05 22.4096 71.0795 22.4546C71.1091 22.4996 71.1294 22.55 71.1394 22.6029C71.1494 22.6558 71.1489 22.7102 71.1378 22.7629C71.128 22.8116 71.1092 22.8581 71.0824 22.9L71.0153 23.0021C70.1063 24.3314 68.7368 25.2766 67.1714 25.6548C65.6061 26.0331 63.9561 25.8176 62.5404 25.05C61.1247 24.2824 60.0439 23.0172 59.5069 21.499C58.9698 19.9807 59.0147 18.3173 59.6328 16.8303C60.2509 15.3433 61.3984 14.1382 62.8534 13.448C64.3084 12.7579 65.9677 12.6316 67.5103 13.0938C69.053 13.5559 70.3696 14.5735 71.2055 15.9499C72.0415 17.3263 72.3375 18.9638 72.0363 20.5458H72.0071ZM54.5531 25.0384V8.00148C54.5535 7.9038 54.5873 7.80921 54.6489 7.73335C54.7104 7.65749 54.796 7.60491 54.8915 7.58431L57.1115 7.1263C57.2217 7.10386 57.3364 7.12593 57.4304 7.18769C57.5244 7.24945 57.5901 7.34589 57.6133 7.45595C57.616 7.48409 57.616 7.51242 57.6133 7.54055V25.0442C57.6133 25.1564 57.5687 25.264 57.4894 25.3433C57.4101 25.4226 57.3025 25.4672 57.1903 25.4672H54.9673C54.8557 25.4649 54.7494 25.4185 54.6718 25.3382C54.5942 25.2578 54.5515 25.1501 54.5531 25.0384V25.0384ZM85.0532 25.4614H82.591C82.5016 25.4619 82.4143 25.4339 82.3419 25.3815C82.2695 25.329 82.2157 25.2548 82.1884 25.1696L78.2764 13.7368C78.2402 13.6301 78.2478 13.5133 78.2975 13.4121C78.3473 13.311 78.4352 13.2337 78.5418 13.1971C78.586 13.1821 78.6323 13.1742 78.6789 13.1738H80.8523C80.9411 13.1743 81.0275 13.2028 81.0992 13.2551C81.171 13.3075 81.2244 13.3811 81.252 13.4655L83.6208 20.3911C83.6297 20.4175 83.6437 20.4418 83.662 20.4627C83.6803 20.4836 83.7026 20.5006 83.7276 20.5128C83.7525 20.525 83.7797 20.5322 83.8074 20.5338C83.8352 20.5355 83.863 20.5316 83.8892 20.5224C83.9201 20.5122 83.9483 20.4951 83.9715 20.4724C83.9948 20.4496 84.0125 20.4218 84.0234 20.3911L86.3922 13.4655C86.4198 13.3811 86.4732 13.3075 86.5449 13.2551C86.6167 13.2028 86.7031 13.1743 86.7919 13.1738H89.2686C89.3575 13.1743 89.4438 13.2028 89.5156 13.2551C89.5873 13.3075 89.6407 13.3811 89.6683 13.4655L92.0371 20.3911C92.0463 20.4176 92.0606 20.442 92.0792 20.4629C92.0978 20.4838 92.1204 20.5008 92.1456 20.513C92.1708 20.5252 92.1981 20.5323 92.2261 20.5339C92.254 20.5356 92.282 20.5316 92.3084 20.5224C92.3389 20.5121 92.3666 20.4948 92.3894 20.4721C92.4121 20.4493 92.4294 20.4216 92.4397 20.3911L94.8115 13.4626C94.8396 13.378 94.8935 13.3043 94.9658 13.2519C95.038 13.1996 95.1248 13.1712 95.214 13.1709H97.3845C97.4975 13.1709 97.6058 13.2158 97.6857 13.2956C97.7655 13.3755 97.8104 13.4839 97.8104 13.5968C97.81 13.6435 97.8021 13.6898 97.7871 13.7339L93.8604 25.1755C93.8333 25.2601 93.7799 25.334 93.7081 25.3864C93.6363 25.4388 93.5497 25.4671 93.4608 25.4672H90.9957C90.9064 25.4673 90.8193 25.4391 90.747 25.3867C90.6747 25.3343 90.6208 25.2604 90.5931 25.1755L88.2243 18.2469C88.2106 18.2047 88.1839 18.1679 88.148 18.1418C88.1121 18.1157 88.0688 18.1016 88.0244 18.1016C87.98 18.1016 87.9368 18.1157 87.9009 18.1418C87.865 18.1679 87.8383 18.2047 87.8246 18.2469L85.4558 25.1755C85.427 25.2593 85.3727 25.332 85.3005 25.3833C85.2283 25.4346 85.1418 25.4619 85.0532 25.4614V25.4614ZM108.164 24.7379C107.179 25.4085 106.029 25.7979 104.839 25.8641C103.649 25.9302 102.464 25.6707 101.41 25.1134C100.357 24.5561 99.4749 23.7221 98.86 22.7011C98.2451 21.6802 97.9201 20.5109 97.9201 19.319C97.9201 18.1272 98.2451 16.9579 98.86 15.937C99.4749 14.916 100.357 14.082 101.41 13.5247C102.464 12.9674 103.649 12.7079 104.839 12.774C106.029 12.8402 107.179 13.2296 108.164 13.9002V13.5851C108.164 13.4761 108.207 13.3714 108.284 13.2943C108.361 13.2171 108.466 13.1738 108.575 13.1738H110.824C110.878 13.1738 110.932 13.1845 110.981 13.2052C111.031 13.2259 111.076 13.2562 111.114 13.2945C111.152 13.3327 111.182 13.3781 111.203 13.428C111.223 13.4778 111.233 13.5313 111.233 13.5851V25.0529C111.233 25.1066 111.222 25.1597 111.202 25.2092C111.181 25.2588 111.151 25.3038 111.113 25.3417C111.075 25.3797 111.03 25.4098 110.981 25.4303C110.931 25.4508 110.878 25.4614 110.824 25.4614H108.575C108.467 25.4614 108.362 25.4184 108.285 25.3419C108.208 25.2654 108.165 25.1615 108.164 25.0529V24.7379ZM104.686 22.8008C105.375 22.8014 106.049 22.5976 106.622 22.2152C107.196 21.8328 107.643 21.289 107.907 20.6526C108.171 20.0162 108.24 19.3157 108.106 18.6398C107.972 17.964 107.64 17.343 107.153 16.8556C106.666 16.3682 106.046 16.0361 105.37 15.9015C104.694 15.7669 103.994 15.8357 103.357 16.0992C102.72 16.3628 102.176 16.8092 101.793 17.3821C101.41 17.955 101.206 18.6285 101.206 19.3176C101.206 19.7749 101.295 20.2278 101.47 20.6503C101.645 21.0729 101.901 21.4569 102.224 21.7804C102.548 22.1039 102.931 22.3605 103.354 22.5356C103.776 22.7107 104.229 22.8008 104.686 22.8008V22.8008ZM122.896 13.9002V13.5851C122.896 13.4761 122.939 13.3714 123.017 13.2943C123.094 13.2171 123.198 13.1738 123.307 13.1738H125.557C125.666 13.1738 125.77 13.2171 125.847 13.2943C125.925 13.3714 125.968 13.4761 125.968 13.5851V25.0529C125.952 26.1515 125.665 27.2292 125.131 28.1896C124.598 29.15 123.835 29.9634 122.91 30.5571C121.986 31.1508 120.928 31.5063 119.833 31.592C118.738 31.6776 117.638 31.4907 116.633 31.0479C116.342 30.9115 116.06 30.7566 115.79 30.5841C115.671 30.5104 115.581 30.3987 115.535 30.2673C115.488 30.1358 115.487 29.9925 115.533 29.8606L116.256 27.7514C116.292 27.6487 116.367 27.5642 116.465 27.5167C116.563 27.4691 116.676 27.4623 116.779 27.4976C116.831 27.5176 116.88 27.5473 116.921 27.5851C117.133 27.789 117.368 27.9663 117.622 28.1132C118.159 28.3966 118.76 28.5385 119.368 28.5256C119.976 28.5127 120.571 28.3453 121.096 28.0392C121.621 27.7331 122.06 27.2983 122.371 26.7759C122.681 26.2535 122.854 25.6606 122.873 25.0529V25.0529V24.7379C121.887 25.4085 120.738 25.7979 119.548 25.8641C118.358 25.9302 117.172 25.6707 116.119 25.1134C115.065 24.5561 114.184 23.7221 113.569 22.7011C112.954 21.6802 112.629 20.5109 112.629 19.319C112.629 18.1272 112.954 16.9579 113.569 15.937C114.184 14.916 115.065 14.082 116.119 13.5247C117.172 12.9674 118.358 12.7079 119.548 12.774C120.738 12.8402 121.887 13.2296 122.873 13.9002H122.896ZM119.419 22.8008C120.108 22.802 120.782 22.5987 121.355 22.2166C121.929 21.8346 122.376 21.291 122.641 20.6546C122.905 20.0182 122.975 19.3177 122.842 18.6416C122.708 17.9656 122.376 17.3444 121.89 16.8566C121.403 16.3689 120.782 16.0366 120.106 15.9017C119.43 15.7669 118.73 15.8355 118.093 16.099C117.456 16.3624 116.912 16.8089 116.529 17.3818C116.146 17.9547 115.941 18.6284 115.941 19.3176C115.941 19.7746 116.031 20.2273 116.205 20.6497C116.38 21.0721 116.636 21.4559 116.959 21.7794C117.281 22.1028 117.665 22.3595 118.087 22.5348C118.509 22.71 118.962 22.8004 119.419 22.8008ZM133.947 25.8727C132.65 25.8739 131.382 25.4904 130.303 24.7708C129.225 24.0512 128.383 23.0279 127.886 21.8302C127.389 20.6325 127.259 19.3143 127.511 18.0423C127.763 16.7704 128.387 15.6018 129.304 14.6845C130.22 13.7672 131.388 13.1423 132.66 12.8889C133.932 12.6355 135.25 12.7649 136.448 13.2609C137.646 13.7569 138.67 14.597 139.391 15.6752C140.111 16.7533 140.496 18.0209 140.496 19.3176C140.496 20.178 140.327 21.0301 139.998 21.8252C139.669 22.6203 139.187 23.3428 138.579 23.9515C137.971 24.5602 137.249 25.0432 136.454 25.3728C135.659 25.7025 134.807 25.8723 133.947 25.8727V25.8727ZM133.947 22.8008C134.636 22.802 135.31 22.5987 135.883 22.2166C136.457 21.8346 136.904 21.291 137.169 20.6546C137.433 20.0182 137.503 19.3177 137.37 18.6416C137.236 17.9656 136.905 17.3444 136.418 16.8566C135.931 16.3689 135.31 16.0366 134.634 15.9017C133.958 15.7669 133.258 15.8355 132.621 16.099C131.984 16.3624 131.44 16.8089 131.057 17.3818C130.674 17.9547 130.469 18.6284 130.469 19.3176C130.469 20.2404 130.835 21.1255 131.487 21.7785C132.139 22.4316 133.024 22.7993 133.947 22.8008V22.8008ZM154 18.7166V25.0529C154 25.1613 153.957 25.2652 153.88 25.3417C153.804 25.4183 153.7 25.4614 153.592 25.4614H151.135C151.082 25.4614 151.029 25.4508 150.979 25.4303C150.929 25.4098 150.884 25.3797 150.846 25.3417C150.809 25.3038 150.778 25.2588 150.758 25.2092C150.737 25.1597 150.727 25.1066 150.727 25.0529V18.9092C150.727 18.8421 150.727 18.7721 150.727 18.705C150.727 17.9452 150.425 17.2165 149.888 16.6793C149.351 16.142 148.622 15.8402 147.862 15.8402C147.102 15.8402 146.374 16.142 145.836 16.6793C145.299 17.2165 144.997 17.9452 144.997 18.705C144.997 18.7721 144.997 18.8421 144.997 18.9092V25.0529C144.997 25.1066 144.987 25.1597 144.966 25.2092C144.946 25.2588 144.916 25.3038 144.878 25.3417C144.84 25.3797 144.795 25.4098 144.745 25.4303C144.696 25.4508 144.643 25.4614 144.589 25.4614H142.337C142.283 25.4614 142.23 25.4508 142.18 25.4303C142.131 25.4098 142.086 25.3797 142.048 25.3417C142.01 25.3038 141.98 25.2588 141.959 25.2092C141.939 25.1597 141.928 25.1066 141.928 25.0529V13.5851C141.928 13.4766 141.971 13.3724 142.048 13.2953C142.124 13.2183 142.228 13.1746 142.337 13.1738H144.589C144.697 13.1746 144.801 13.2183 144.878 13.2953C144.954 13.3724 144.997 13.4766 144.997 13.5851V13.6202C145.898 13.076 146.927 12.781 147.979 12.7655C149.031 12.75 150.068 13.0146 150.984 13.532C151.901 14.0495 152.663 14.8012 153.193 15.7102C153.722 16.6192 154.001 17.6528 154 18.705V18.7166Z" fill="#0E0000"/>
<path d="M61.8006 41.0259H57.0418V32.2673H55.8111V42.1336H61.8006V41.0259Z" fill="#2C2C2C"/>
<path d="M63.2912 44.8002C64.5971 44.8002 65.1851 44.2942 65.8142 42.5849L68.6927 34.7629H67.4414L65.4244 40.8276H65.315L63.2912 34.7629H62.0194L64.7475 42.1404L64.6108 42.578C64.3031 43.4669 63.9339 43.7882 63.257 43.7882C63.0929 43.7882 62.9083 43.7814 62.7647 43.754V44.7591C62.9288 44.7865 63.1339 44.8002 63.2912 44.8002Z" fill="#2C2C2C"/>
<path d="M73.0207 42.2635C75.1198 42.2635 76.4189 40.814 76.4189 38.4482C76.4189 36.0757 75.1198 34.633 73.0207 34.633C70.9217 34.633 69.6226 36.0757 69.6226 38.4482C69.6226 40.814 70.9217 42.2635 73.0207 42.2635ZM73.0207 41.2037C71.6259 41.2037 70.8396 40.1918 70.8396 38.4482C70.8396 36.6979 71.6259 35.6928 73.0207 35.6928C74.4156 35.6928 75.2019 36.6979 75.2019 38.4482C75.2019 40.1918 74.4156 41.2037 73.0207 41.2037Z" fill="#2C2C2C"/>
<path d="M78.265 42.1336H79.441V37.7713C79.441 36.4791 80.2 35.6928 81.376 35.6928C82.552 35.6928 83.1127 36.3218 83.1127 37.6483V42.1336H84.2887V37.3611C84.2887 35.6107 83.3657 34.633 81.711 34.633C80.5829 34.633 79.8649 35.1116 79.4957 35.9253H79.3863V34.7629H78.265V42.1336Z" fill="#2C2C2C"/>
<path d="M168.646 19.3536L180.646 31.3536L181.354 30.6464L169.354 18.6464L168.646 19.3536ZM180.646 18.6464L168.646 30.6464L169.354 31.3536L181.354 19.3536L180.646 18.6464Z" fill="black" fill-opacity="0.2"/>
<path d="M223.055 0.53952C218.809 0.890805 215.009 2.61455 212.018 5.54329C208.011 9.46053 206.087 14.9504 206.757 20.5546C207.054 23.0095 207.873 25.4154 209.148 27.5517C209.465 28.0786 210.013 28.9119 210.151 29.0671C210.179 29.0998 211.34 28.6709 211.421 28.6015C211.437 28.5811 211.344 28.4218 211.206 28.242C211.072 28.0623 210.808 27.6783 210.622 27.3924C209.213 25.2071 208.373 22.8747 208.048 20.2278C207.959 19.4844 207.947 17.4421 208.028 16.6945C208.527 12.1524 210.711 8.17793 214.246 5.35948C217.295 2.93316 221.248 1.65465 225.108 1.84663C226.277 1.90381 227.024 2.01002 228.222 2.28369L228.859 2.43074L229.825 2.28369C230.353 2.202 230.958 2.11213 231.165 2.08762C231.368 2.05903 231.538 2.02635 231.538 2.01002C231.538 1.96917 230.438 1.54844 229.801 1.34012C228.725 0.992923 227.58 0.747842 226.342 0.60079C225.701 0.523181 223.7 0.486419 223.055 0.53952Z" fill="#FFFF01"/>
<path d="M238.52 2.58594C231.745 3.03118 225.303 4.17489 219.823 5.91089C217.761 6.56445 216.316 7.34871 215.229 8.39848C214.713 8.89681 214.384 9.32979 214.145 9.82812C213.913 10.302 213.84 10.592 213.812 11.0985C213.723 12.7855 215.127 14.2805 217.818 15.3588C218.553 15.6529 219.231 15.8653 220.546 16.2044C221.187 16.3718 221.959 16.5924 222.259 16.6945C223.745 17.201 224.832 17.7933 225.579 18.5081C226.018 18.9248 226.277 19.3087 226.436 19.7703C226.545 20.0971 226.553 20.1543 226.537 20.5546C226.509 21.0897 226.387 21.4409 226.042 21.9638C225.376 22.9645 224.065 23.9612 222.222 24.8639C220.294 25.8034 213.84 28.434 207.386 30.9011C206.595 31.2075 205.913 31.4648 205.876 31.4812C205.84 31.4975 205.714 31.6772 205.596 31.8815C204.955 33.0047 203.993 34.2914 203.104 35.2146C201.939 36.4277 200.746 37.359 198.761 38.609C198.359 38.8622 198.022 39.0746 198.014 39.0828C197.872 39.2094 198.842 38.9602 199.897 38.6049C202.998 37.5551 207.317 35.7742 219.848 30.3783C224.747 28.2665 227.166 27.2412 228.656 26.6408C231.027 25.685 232.504 24.7373 233.657 23.4343C234.777 22.1721 235.317 20.8446 235.26 19.4721C235.232 18.8267 235.138 18.4346 234.883 17.9036C234.258 16.5883 233.137 15.7264 231.205 15.0606C230.531 14.8278 229.906 14.6971 228.92 14.5909C227.714 14.4602 226.923 14.354 226.314 14.2437C225.6 14.113 223.879 13.68 223.424 13.5207C221.752 12.9284 221.143 11.8868 221.764 10.6941C221.93 10.3796 222.6 9.69333 222.998 9.43191C224.337 8.54961 226.237 7.99001 228.49 7.81028C229.216 7.75718 230.698 7.75718 231.591 7.81845L232.309 7.86338L232.606 7.57745C233.308 6.89939 234.245 6.17231 236.368 4.66506C237.489 3.86854 238.625 3.03118 239.112 2.63904C239.189 2.57777 239.185 2.54101 239.1 2.5451C239.06 2.54918 238.8 2.5696 238.52 2.58594Z" fill="#ED2417"/>
<path d="M236.409 6.13964C236.129 6.34388 235.893 6.51544 235.885 6.52769C235.877 6.53586 236.072 6.75235 236.32 7.01377C237.493 8.24327 238.593 9.86898 239.315 11.4498C240.768 14.6358 241.182 18.1609 240.505 21.5962C239.36 27.4046 235.171 32.1797 229.578 34.0546C227.893 34.6182 226.578 34.8429 224.755 34.8797C223.221 34.9083 222.417 34.8388 221.045 34.5611C219.698 34.2833 218.5 33.8667 217.136 33.1927C216.661 32.9598 216.26 32.7679 216.243 32.7679C216.203 32.7679 214.843 33.3479 214.802 33.3806C214.762 33.4173 215.513 33.8748 216.256 34.2629C217.713 35.0226 219.478 35.6353 221.078 35.9294C227.601 37.1426 234.14 34.7081 238.256 29.5409C240.318 26.9472 241.564 23.9735 242.019 20.575C242.1 19.9582 242.112 19.7131 242.108 18.3693C242.108 17.0377 242.1 16.7762 242.019 16.1635C241.519 12.3607 239.993 9.05204 237.44 6.23768C237.205 5.98034 236.993 5.76794 236.965 5.76794C236.937 5.76794 236.689 5.93541 236.409 6.13964Z" fill="#FFFF01"/>
<path d="M221.086 44.5359C220.907 44.5522 220.574 44.6094 220.347 44.6584L219.933 44.7442L219.771 45.2629C219.535 46.0145 219.361 46.615 218.874 48.3428L218.439 49.8828L219.129 49.8746L219.824 49.8623L220.116 49.1271C220.278 48.7186 220.432 48.3878 220.465 48.3796C220.505 48.3714 220.615 48.6042 220.822 49.1312L221.126 49.8909L221.898 49.8623C222.324 49.846 222.673 49.8297 222.677 49.8256C222.685 49.8215 222.551 49.4416 222.381 48.9882C222.214 48.5307 222.08 48.1549 222.089 48.1508C223.172 47.6811 223.708 46.9132 223.655 45.9002C223.615 45.1731 223.274 44.7483 222.608 44.5971C222.267 44.5195 221.496 44.4868 221.086 44.5359ZM221.89 45.843C222.174 45.9737 222.153 46.4516 221.849 46.8519C221.703 47.048 221.366 47.195 221.013 47.2195C220.749 47.2399 220.729 47.2359 220.749 47.1623C220.761 47.1215 220.846 46.8151 220.944 46.4802C221.114 45.9002 221.122 45.8756 221.244 45.843C221.423 45.7899 221.776 45.7899 221.89 45.843Z" fill="black"/>
<path d="M234.522 44.5523C234.144 44.6136 233.73 44.7157 233.689 44.7647C233.596 44.8627 232.873 47.3299 232.228 49.748L232.196 49.8828H232.857H233.519L233.564 49.7684C233.588 49.7072 233.698 49.4049 233.803 49.0945L233.998 48.5308L234.607 48.5185C235.297 48.5022 235.492 48.4573 235.999 48.204C236.62 47.8977 237.087 47.3013 237.245 46.6314C237.29 46.4394 237.306 46.2188 237.294 45.9411C237.282 45.5939 237.261 45.4958 237.168 45.2998C236.969 44.8954 236.604 44.6544 236.011 44.5482C235.626 44.4828 234.956 44.4828 234.522 44.5523ZM235.516 45.8594C235.65 45.9288 235.76 46.1086 235.76 46.2597C235.76 46.4067 235.65 46.6927 235.528 46.8683C235.386 47.0807 235.078 47.2237 234.708 47.2564C234.457 47.2768 234.42 47.2727 234.42 47.2114C234.42 47.1216 234.745 45.9493 234.777 45.9125C234.887 45.8063 235.35 45.7736 235.516 45.8594Z" fill="black"/>
<path d="M207.001 44.5971C206.42 44.6788 206.221 44.7197 205.905 44.8218C204.854 45.1568 204.281 45.892 204.427 46.7212C204.5 47.1542 204.728 47.4279 205.296 47.771C205.844 48.0978 205.925 48.3878 205.523 48.5839C205.3 48.6941 204.699 48.7309 204.22 48.6615C204.038 48.637 203.908 48.637 203.896 48.6574C203.867 48.7064 203.68 49.846 203.701 49.8624C203.753 49.9155 204.651 49.9727 205.134 49.9522C206.006 49.9155 206.635 49.7235 207.131 49.3477C207.541 49.0373 207.772 48.5675 207.675 48.2448C207.589 47.9548 207.269 47.6689 206.704 47.3707C206.404 47.2114 206.169 46.9908 206.169 46.8683C206.173 46.6068 206.493 46.2555 206.814 46.1657C207.045 46.1003 207.549 46.0717 207.8 46.1167L208.036 46.1534L208.068 46.0268C208.275 45.2548 208.413 44.6543 208.397 44.6339C208.369 44.6053 207.167 44.5726 207.001 44.5971Z" fill="black"/>
<path d="M216.702 44.5972C216.657 44.6053 216.519 44.6217 216.389 44.6339L216.162 44.6585L215.724 45.5448C215.484 46.0309 215.156 46.7253 214.985 47.0848C214.449 48.2448 213.759 49.7684 213.759 49.797C213.759 49.8093 214.06 49.8215 214.429 49.8215H215.099L215.306 49.4253L215.517 49.025H215.89C216.097 49.025 216.377 49.0128 216.515 49.0005L216.767 48.9719L216.739 49.4294L216.71 49.8828H217.4H218.09L218.115 49.4457C218.151 48.8984 218.151 44.7238 218.119 44.638C218.098 44.5808 218.001 44.5727 217.437 44.5768C217.08 44.5808 216.747 44.589 216.702 44.5972ZM216.946 46.8887L216.978 47.7179H216.463H215.951L216.036 47.5423C216.304 46.999 216.864 46.0064 216.889 46.035C216.905 46.0513 216.929 46.4353 216.946 46.8887Z" fill="black"/>
<path d="M224.816 44.6135C224.589 44.6298 224.386 44.6543 224.362 44.6707C224.301 44.7074 224.134 45.2466 224.049 45.6755C224.013 45.8675 223.972 46.0554 223.964 46.0963C223.944 46.1616 223.98 46.1657 224.512 46.1412C224.828 46.1248 225.084 46.1248 225.084 46.1412C225.084 46.1575 225.027 46.3944 224.958 46.6681C224.889 46.9418 224.699 47.7465 224.532 48.4532C224.366 49.1598 224.22 49.7725 224.207 49.8093C224.187 49.8787 224.24 49.8828 224.897 49.8828H225.608L225.673 49.6459C225.705 49.5193 225.949 48.6737 226.213 47.771L226.687 46.1248H227.244H227.804L227.828 46.0105C227.848 45.9206 228.116 44.928 228.197 44.6421C228.218 44.5767 228.128 44.5726 226.724 44.5767C225.9 44.5808 225.039 44.5972 224.816 44.6135Z" fill="black"/>
<path d="M209.664 44.691C209.59 44.7115 209.526 44.8095 209.388 45.124C209.075 45.8307 208.62 47.0153 208.158 48.3183C207.91 49.0086 207.683 49.6458 207.65 49.7316L207.589 49.8828L208.287 49.8746L208.986 49.8623L209.335 48.9228C209.53 48.4041 209.745 47.8649 209.814 47.7178L209.935 47.4523L209.94 47.9262C209.944 48.4122 210.013 49.6336 210.045 49.7847C210.061 49.8664 210.086 49.8705 210.471 49.8664L210.881 49.8623L211.007 49.6581C211.076 49.5437 211.376 49.0045 211.677 48.4531C211.973 47.9017 212.217 47.4891 212.217 47.5381C212.217 47.6239 212.156 48.8411 212.115 49.507L212.095 49.8868L212.761 49.8746L213.43 49.8664L213.455 49.6989C213.467 49.6091 213.548 48.882 213.637 48.0855C213.727 47.2889 213.853 46.2024 213.917 45.6755C213.978 45.1485 214.023 44.7074 214.015 44.6951C213.986 44.6625 212.736 44.6747 212.619 44.7074C212.501 44.736 212.481 44.7687 211.746 46.0717C211.49 46.5333 211.295 46.8396 211.279 46.8069C211.263 46.7824 211.218 46.2964 211.182 45.7367C211.137 45.1159 211.092 44.7033 211.064 44.687C211.007 44.6502 209.797 44.6502 209.664 44.691Z" fill="black"/>
<path d="M231.238 44.7034C231.226 44.732 231.165 45.0179 231.092 45.3406C230.929 46.084 230.617 47.2604 230.402 47.9303C230.264 48.3633 230.215 48.4654 230.097 48.5675C229.918 48.7268 229.598 48.7799 229.375 48.6819C229.237 48.6247 229.224 48.6084 229.224 48.4613C229.224 48.2203 229.756 46.3168 230.154 45.1364C230.255 44.8382 230.264 44.781 230.211 44.7606C230.126 44.7279 229.115 44.7361 228.92 44.7687C228.766 44.7973 228.758 44.8055 228.685 45.0424C228.644 45.1772 228.518 45.5898 228.409 45.9615C228.019 47.24 227.8 48.1795 227.775 48.6819C227.747 49.2211 227.787 49.3722 228.015 49.6214C228.283 49.9114 228.506 49.9768 229.326 49.9972C230.406 50.0217 230.844 49.891 231.27 49.4294C231.668 48.9964 231.867 48.4572 232.512 46.0105C232.792 44.9444 232.841 44.7238 232.792 44.6911C232.699 44.6339 231.254 44.6462 231.238 44.7034Z" fill="black"/>
</svg>
