<svg width="154" height="49" viewBox="0 0 154 49" fill="none" xmlns="http://www.w3.org/2000/svg">
<path d="M48.4268 24.2134C48.4268 29.0023 47.0067 33.6837 44.3461 37.6656C41.6855 41.6475 37.9039 44.751 33.4794 46.5836C29.055 48.4163 24.1865 48.8958 19.4896 47.9615C14.7927 47.0272 10.4782 44.7211 7.09194 41.3348C3.70564 37.9485 1.39954 33.6341 0.465264 28.9372C-0.469014 24.2402 0.0104913 19.3717 1.84314 14.9473C3.6758 10.5229 6.77929 6.74129 10.7612 4.08069C14.743 1.42009 19.4244 0 24.2134 0C30.6352 0 36.7939 2.55104 41.3348 7.09193C45.8757 11.6328 48.4268 17.7916 48.4268 24.2134Z" fill="#FD1015"/>
<path d="M29.4645 31.2586C29.4539 31.3281 29.4186 31.3916 29.365 31.4371C29.3114 31.4827 29.2431 31.5073 29.1728 31.5066H18.6706C18.5932 31.5066 18.519 31.4758 18.4643 31.4211C18.4096 31.3664 18.3789 31.2922 18.3789 31.2148C18.3789 30.2864 18.01 29.396 17.3535 28.7394C16.697 28.0829 15.8066 27.7141 14.8781 27.7141C13.9497 27.7141 13.0593 28.0829 12.4027 28.7394C11.7462 29.396 11.3774 30.2864 11.3774 31.2148C11.3774 31.2148 11.3774 31.2411 11.3774 31.2557C11.3668 31.3252 11.3315 31.3886 11.2779 31.4342C11.2243 31.4798 11.156 31.5044 11.0857 31.5036H10.2105C10.1331 31.5036 10.0589 31.4729 10.0042 31.4182C9.9495 31.3635 9.91876 31.2893 9.91876 31.2119V30.6285C9.91876 30.5511 9.9495 30.4769 10.0042 30.4222C10.0589 30.3675 10.1331 30.3367 10.2105 30.3367V26.5472C10.2105 26.4698 10.2412 26.3956 10.2959 26.3409C10.3506 26.2862 10.4248 26.2555 10.5022 26.2555H32.9652C33.7054 26.2532 34.4376 26.408 35.1135 26.7098C35.7894 27.0115 36.3936 27.4533 36.886 28.0058C36.959 28.0875 37.0494 28.2013 37.1603 28.3471C37.2146 28.4196 37.2851 28.4784 37.3661 28.5189C37.4471 28.5594 37.5365 28.5805 37.627 28.5805H38.7939C38.9487 28.5805 39.0971 28.642 39.2065 28.7514C39.3159 28.8608 39.3774 29.0092 39.3774 29.164V30.9143C39.3774 31.0691 39.3159 31.2175 39.2065 31.3269C39.0971 31.4363 38.9487 31.4978 38.7939 31.4978H36.7518C36.6811 31.4985 36.6124 31.4734 36.5588 31.4273C36.5051 31.3811 36.47 31.317 36.4601 31.2469C36.4601 31.2469 36.4601 31.2236 36.4601 31.209C36.4225 30.3061 36.0371 29.4527 35.3847 28.8274C34.7322 28.202 33.8632 27.8533 32.9595 27.854C32.0558 27.8548 31.1874 28.205 30.536 28.8314C29.8846 29.4578 29.5006 30.3118 29.4645 31.2148V31.2148C29.4645 31.2148 29.4645 31.244 29.4645 31.2586ZM38.7998 27.1306C38.7998 27.208 38.769 27.2822 38.7143 27.3369C38.6596 27.3916 38.5854 27.4224 38.508 27.4224H38.05C38.0086 27.4223 37.9677 27.4134 37.93 27.3963C37.8922 27.3792 37.8586 27.3543 37.8312 27.3232C37.6387 27.1102 37.4899 26.9498 37.3761 26.8447C36.1858 25.7147 34.6065 25.0859 32.9652 25.0886H10.5022C10.4248 25.0886 10.3506 25.0578 10.2959 25.0031C10.2412 24.9484 10.2105 24.8742 10.2105 24.7968V18.0112C10.21 17.3777 10.4386 16.7654 10.8541 16.2871C11.2696 15.8089 11.844 15.497 12.4714 15.409C16.1353 14.8792 19.8317 14.6043 23.5337 14.5864C29.7095 14.5864 32.1075 15.0765 34.4239 16.3367C35.8339 17.1049 37.1729 18.9526 38.441 21.8795C38.6797 22.4321 38.8018 23.028 38.7998 23.6299V27.1306ZM11.9609 17.7954C11.8835 17.7954 11.8093 17.8261 11.7546 17.8808C11.6999 17.9355 11.6691 18.0097 11.6691 18.0871V22.463C11.6691 22.5404 11.6999 22.6146 11.7546 22.6693C11.8093 22.724 11.8835 22.7547 11.9609 22.7547H16.3368C16.4141 22.7547 16.4883 22.724 16.543 22.6693C16.5978 22.6146 16.6285 22.5404 16.6285 22.463V18.0871C16.6285 18.0097 16.5978 17.9355 16.543 17.8808C16.4883 17.8261 16.4141 17.7954 16.3368 17.7954H11.9609ZM24.2134 17.7954C24.136 17.7954 24.0618 17.8261 24.0071 17.8808C23.9524 17.9355 23.9217 18.0097 23.9217 18.0871V22.463C23.9217 22.5404 23.9524 22.6146 24.0071 22.6693C24.0618 22.724 24.136 22.7547 24.2134 22.7547H28.5893C28.6667 22.7547 28.7409 22.724 28.7956 22.6693C28.8503 22.6146 28.881 22.5404 28.881 22.463V18.0871C28.881 18.0097 28.8503 17.9355 28.7956 17.8808C28.7409 17.8261 28.6667 17.7954 28.5893 17.7954H24.2134ZM18.0871 17.7954C18.0098 17.7954 17.9356 17.8261 17.8808 17.8808C17.8261 17.9355 17.7954 18.0097 17.7954 18.0871V22.463C17.7954 22.5404 17.8261 22.6146 17.8808 22.6693C17.9356 22.724 18.0098 22.7547 18.0871 22.7547H22.463C22.5404 22.7547 22.6146 22.724 22.6693 22.6693C22.724 22.6146 22.7548 22.5404 22.7548 22.463V18.0871C22.7548 18.0097 22.724 17.9355 22.6693 17.8808C22.6146 17.8261 22.5404 17.7954 22.463 17.7954H18.0871ZM30.3397 17.7954C30.2623 17.7954 30.1881 17.8261 30.1334 17.8808C30.0787 17.9355 30.048 18.0097 30.048 18.0871V22.463C30.048 22.5404 30.0787 22.6146 30.1334 22.6693C30.1881 22.724 30.2623 22.7547 30.3397 22.7547H37.0669C37.1029 22.755 37.1387 22.7481 37.1719 22.7343C37.2438 22.7063 37.3016 22.651 37.3327 22.5805C37.3639 22.5099 37.3659 22.43 37.3382 22.358C37.0371 21.5615 36.6662 20.7932 36.2297 20.0621C36.1684 19.9571 36.11 19.852 36.0575 19.747C35.7558 19.1596 35.298 18.6668 34.7345 18.3225C34.171 17.9782 33.5235 17.7958 32.8631 17.7954H30.3397ZM14.8781 33.8404C14.4165 33.8404 13.9653 33.7035 13.5815 33.4471C13.1977 33.1906 12.8986 32.8261 12.722 32.3997C12.5453 31.9732 12.4991 31.504 12.5892 31.0512C12.6792 30.5985 12.9015 30.1827 13.2279 29.8563C13.5543 29.5299 13.9701 29.3076 14.4228 29.2176C14.8755 29.1275 15.3448 29.1737 15.7712 29.3504C16.1977 29.527 16.5622 29.8262 16.8186 30.21C17.0751 30.5937 17.2119 31.045 17.2119 31.5066C17.2119 32.1255 16.9661 32.7191 16.5284 33.1568C16.0907 33.5945 15.4971 33.8404 14.8781 33.8404ZM14.8781 32.6735C15.1089 32.6735 15.3345 32.605 15.5264 32.4768C15.7183 32.3486 15.8679 32.1663 15.9562 31.9531C16.0445 31.7399 16.0676 31.5053 16.0226 31.2789C15.9776 31.0525 15.8665 30.8446 15.7033 30.6814C15.5401 30.5182 15.3321 30.4071 15.1058 30.3621C14.8794 30.317 14.6448 30.3401 14.4316 30.4285C14.2183 30.5168 14.0361 30.6664 13.9079 30.8583C13.7797 31.0502 13.7112 31.2758 13.7112 31.5066C13.7112 31.816 13.8342 32.1128 14.053 32.3317C14.2718 32.5505 14.5686 32.6735 14.8781 32.6735ZM32.9652 33.8404C32.5036 33.8404 32.0524 33.7035 31.6686 33.4471C31.2848 33.1906 30.9857 32.8261 30.8091 32.3997C30.6324 31.9732 30.5862 31.504 30.6763 31.0512C30.7663 30.5985 30.9886 30.1827 31.315 29.8563C31.6414 29.5299 32.0572 29.3076 32.5099 29.2176C32.9626 29.1275 33.4319 29.1737 33.8583 29.3504C34.2848 29.527 34.6493 29.8262 34.9057 30.21C35.1622 30.5937 35.299 31.045 35.299 31.5066C35.299 32.1255 35.0532 32.7191 34.6155 33.1568C34.1778 33.5945 33.5842 33.8404 32.9652 33.8404ZM32.9652 32.6735C33.196 32.6735 33.4216 32.605 33.6135 32.4768C33.8054 32.3486 33.955 32.1663 34.0433 31.9531C34.1316 31.7399 34.1547 31.5053 34.1097 31.2789C34.0647 31.0525 33.9536 30.8446 33.7904 30.6814C33.6272 30.5182 33.4192 30.4071 33.1929 30.3621C32.9665 30.317 32.7319 30.3401 32.5187 30.4285C32.3054 30.5168 32.1232 30.6664 31.995 30.8583C31.8668 31.0502 31.7983 31.2758 31.7983 31.5066C31.7983 31.816 31.9213 32.1128 32.1401 32.3317C32.3589 32.5505 32.6557 32.6735 32.9652 32.6735Z" fill="white"/>
<path d="M62.4297 16.8852H68.7719C68.496 16.2753 68.0502 15.7579 67.4878 15.395C66.9253 15.0321 66.2702 14.8391 65.6008 14.8391C64.9314 14.8391 64.2763 15.0321 63.7138 15.395C63.1514 15.7579 62.7055 16.2753 62.4297 16.8852V16.8852ZM72.0071 19.5458C71.9712 19.6085 71.9194 19.6607 71.857 19.6971C71.7945 19.7334 71.7235 19.7527 71.6512 19.7529H62.4297C62.6332 20.2055 62.9313 20.6092 63.304 20.9369C63.6768 21.2645 64.1154 21.5084 64.5904 21.6522C65.0653 21.796 65.5656 21.8362 66.0574 21.7703C66.5493 21.7043 67.0213 21.5337 67.4416 21.2699C67.6013 21.1664 67.7525 21.0503 67.8938 20.9227C67.9652 20.8605 68.0499 20.8155 68.1415 20.7912C68.233 20.767 68.3289 20.764 68.4218 20.7827L70.8198 21.2786C70.8726 21.2894 70.9227 21.3105 70.9672 21.3407C71.0118 21.3709 71.05 21.4096 71.0795 21.4546C71.1091 21.4996 71.1294 21.55 71.1394 21.6029C71.1494 21.6558 71.1489 21.7102 71.1378 21.7629C71.128 21.8116 71.1092 21.8581 71.0824 21.9L71.0153 22.0021C70.1063 23.3314 68.7368 24.2766 67.1714 24.6548C65.6061 25.0331 63.9561 24.8176 62.5404 24.05C61.1247 23.2824 60.0439 22.0172 59.5069 20.499C58.9698 18.9807 59.0147 17.3173 59.6328 15.8303C60.2509 14.3433 61.3984 13.1382 62.8534 12.448C64.3084 11.7579 65.9677 11.6316 67.5103 12.0938C69.053 12.5559 70.3696 13.5735 71.2055 14.9499C72.0415 16.3263 72.3375 17.9638 72.0363 19.5458H72.0071ZM54.5531 24.0384V7.00148C54.5535 6.9038 54.5873 6.80921 54.6489 6.73335C54.7104 6.65749 54.796 6.60491 54.8915 6.58431L57.1115 6.1263C57.2217 6.10386 57.3364 6.12593 57.4304 6.18769C57.5244 6.24945 57.5901 6.34589 57.6133 6.45595C57.616 6.48409 57.616 6.51242 57.6133 6.54055V24.0442C57.6133 24.1564 57.5687 24.264 57.4894 24.3433C57.4101 24.4226 57.3025 24.4672 57.1903 24.4672H54.9673C54.8557 24.4649 54.7494 24.4185 54.6718 24.3382C54.5942 24.2578 54.5515 24.1501 54.5531 24.0384V24.0384ZM85.0532 24.4614H82.591C82.5016 24.4619 82.4143 24.4339 82.3419 24.3815C82.2695 24.329 82.2157 24.2548 82.1884 24.1696L78.2764 12.7368C78.2402 12.6301 78.2478 12.5133 78.2975 12.4121C78.3473 12.311 78.4352 12.2337 78.5418 12.1971C78.586 12.1821 78.6323 12.1742 78.6789 12.1738H80.8523C80.9411 12.1743 81.0275 12.2028 81.0992 12.2551C81.171 12.3075 81.2244 12.3811 81.252 12.4655L83.6208 19.3911C83.6297 19.4175 83.6437 19.4418 83.662 19.4627C83.6803 19.4836 83.7026 19.5006 83.7276 19.5128C83.7525 19.525 83.7797 19.5322 83.8074 19.5338C83.8352 19.5355 83.863 19.5316 83.8892 19.5224C83.9201 19.5122 83.9483 19.4951 83.9715 19.4724C83.9948 19.4496 84.0125 19.4218 84.0234 19.3911L86.3922 12.4655C86.4198 12.3811 86.4732 12.3075 86.5449 12.2551C86.6167 12.2028 86.7031 12.1743 86.7919 12.1738H89.2686C89.3575 12.1743 89.4438 12.2028 89.5156 12.2551C89.5873 12.3075 89.6407 12.3811 89.6683 12.4655L92.0371 19.3911C92.0463 19.4176 92.0606 19.442 92.0792 19.4629C92.0978 19.4838 92.1204 19.5008 92.1456 19.513C92.1708 19.5252 92.1981 19.5323 92.2261 19.5339C92.254 19.5356 92.282 19.5316 92.3084 19.5224C92.3389 19.5121 92.3666 19.4948 92.3894 19.4721C92.4121 19.4493 92.4294 19.4216 92.4397 19.3911L94.8115 12.4626C94.8396 12.378 94.8935 12.3043 94.9658 12.2519C95.038 12.1996 95.1248 12.1712 95.214 12.1709H97.3845C97.4975 12.1709 97.6058 12.2158 97.6857 12.2956C97.7655 12.3755 97.8104 12.4839 97.8104 12.5968C97.81 12.6435 97.8021 12.6898 97.7871 12.7339L93.8604 24.1755C93.8333 24.2601 93.7799 24.334 93.7081 24.3864C93.6363 24.4388 93.5497 24.4671 93.4608 24.4672H90.9957C90.9064 24.4673 90.8193 24.4391 90.747 24.3867C90.6747 24.3343 90.6208 24.2604 90.5931 24.1755L88.2243 17.2469C88.2106 17.2047 88.1839 17.1679 88.148 17.1418C88.1121 17.1157 88.0688 17.1016 88.0244 17.1016C87.98 17.1016 87.9368 17.1157 87.9009 17.1418C87.865 17.1679 87.8383 17.2047 87.8246 17.2469L85.4558 24.1755C85.427 24.2593 85.3727 24.332 85.3005 24.3833C85.2283 24.4346 85.1418 24.4619 85.0532 24.4614V24.4614ZM108.164 23.7379C107.179 24.4085 106.029 24.7979 104.839 24.8641C103.649 24.9302 102.464 24.6707 101.41 24.1134C100.357 23.5561 99.4749 22.7221 98.86 21.7011C98.2451 20.6802 97.9201 19.5109 97.9201 18.319C97.9201 17.1272 98.2451 15.9579 98.86 14.937C99.4749 13.916 100.357 13.082 101.41 12.5247C102.464 11.9674 103.649 11.7079 104.839 11.774C106.029 11.8402 107.179 12.2296 108.164 12.9002V12.5851C108.164 12.4761 108.207 12.3714 108.284 12.2943C108.361 12.2171 108.466 12.1738 108.575 12.1738H110.824C110.878 12.1738 110.932 12.1845 110.981 12.2052C111.031 12.2259 111.076 12.2562 111.114 12.2945C111.152 12.3327 111.182 12.3781 111.203 12.428C111.223 12.4778 111.233 12.5313 111.233 12.5851V24.0529C111.233 24.1066 111.222 24.1597 111.202 24.2092C111.181 24.2588 111.151 24.3038 111.113 24.3417C111.075 24.3797 111.03 24.4098 110.981 24.4303C110.931 24.4508 110.878 24.4614 110.824 24.4614H108.575C108.467 24.4614 108.362 24.4184 108.285 24.3419C108.208 24.2654 108.165 24.1615 108.164 24.0529V23.7379ZM104.686 21.8008C105.375 21.8014 106.049 21.5976 106.622 21.2152C107.196 20.8328 107.643 20.289 107.907 19.6526C108.171 19.0162 108.24 18.3157 108.106 17.6398C107.972 16.964 107.64 16.343 107.153 15.8556C106.666 15.3682 106.046 15.0361 105.37 14.9015C104.694 14.7669 103.994 14.8357 103.357 15.0992C102.72 15.3628 102.176 15.8092 101.793 16.3821C101.41 16.955 101.206 17.6285 101.206 18.3176C101.206 18.7749 101.295 19.2278 101.47 19.6503C101.645 20.0729 101.901 20.4569 102.224 20.7804C102.548 21.1039 102.931 21.3605 103.354 21.5356C103.776 21.7107 104.229 21.8008 104.686 21.8008V21.8008ZM122.896 12.9002V12.5851C122.896 12.4761 122.939 12.3714 123.017 12.2943C123.094 12.2171 123.198 12.1738 123.307 12.1738H125.557C125.666 12.1738 125.77 12.2171 125.847 12.2943C125.925 12.3714 125.968 12.4761 125.968 12.5851V24.0529C125.952 25.1515 125.665 26.2292 125.131 27.1896C124.598 28.15 123.835 28.9634 122.91 29.5571C121.986 30.1508 120.928 30.5063 119.833 30.592C118.738 30.6776 117.638 30.4907 116.633 30.0479C116.342 29.9115 116.06 29.7566 115.79 29.5841C115.671 29.5104 115.581 29.3987 115.535 29.2673C115.488 29.1358 115.487 28.9925 115.533 28.8606L116.256 26.7514C116.292 26.6487 116.367 26.5642 116.465 26.5167C116.563 26.4691 116.676 26.4623 116.779 26.4976C116.831 26.5176 116.88 26.5473 116.921 26.5851C117.133 26.789 117.368 26.9663 117.622 27.1132C118.159 27.3966 118.76 27.5385 119.368 27.5256C119.976 27.5127 120.571 27.3453 121.096 27.0392C121.621 26.7331 122.06 26.2983 122.371 25.7759C122.681 25.2535 122.854 24.6606 122.873 24.0529V24.0529V23.7379C121.887 24.4085 120.738 24.7979 119.548 24.8641C118.358 24.9302 117.172 24.6707 116.119 24.1134C115.065 23.5561 114.184 22.7221 113.569 21.7011C112.954 20.6802 112.629 19.5109 112.629 18.319C112.629 17.1272 112.954 15.9579 113.569 14.937C114.184 13.916 115.065 13.082 116.119 12.5247C117.172 11.9674 118.358 11.7079 119.548 11.774C120.738 11.8402 121.887 12.2296 122.873 12.9002H122.896ZM119.419 21.8008C120.108 21.802 120.782 21.5987 121.355 21.2166C121.929 20.8346 122.376 20.291 122.641 19.6546C122.905 19.0182 122.975 18.3177 122.842 17.6416C122.708 16.9656 122.376 16.3444 121.89 15.8566C121.403 15.3689 120.782 15.0366 120.106 14.9017C119.43 14.7669 118.73 14.8355 118.093 15.099C117.456 15.3624 116.912 15.8089 116.529 16.3818C116.146 16.9547 115.941 17.6284 115.941 18.3176C115.941 18.7746 116.031 19.2273 116.205 19.6497C116.38 20.0721 116.636 20.4559 116.959 20.7794C117.281 21.1028 117.665 21.3595 118.087 21.5348C118.509 21.71 118.962 21.8004 119.419 21.8008ZM133.947 24.8727C132.65 24.8739 131.382 24.4904 130.303 23.7708C129.225 23.0512 128.383 22.0279 127.886 20.8302C127.389 19.6325 127.259 18.3143 127.511 17.0423C127.763 15.7704 128.387 14.6018 129.304 13.6845C130.22 12.7672 131.388 12.1423 132.66 11.8889C133.932 11.6355 135.25 11.7649 136.448 12.2609C137.646 12.7569 138.67 13.597 139.391 14.6752C140.111 15.7533 140.496 17.0209 140.496 18.3176C140.496 19.178 140.327 20.0301 139.998 20.8252C139.669 21.6203 139.187 22.3428 138.579 22.9515C137.971 23.5602 137.249 24.0432 136.454 24.3728C135.659 24.7025 134.807 24.8723 133.947 24.8727V24.8727ZM133.947 21.8008C134.636 21.802 135.31 21.5987 135.883 21.2166C136.457 20.8346 136.904 20.291 137.169 19.6546C137.433 19.0182 137.503 18.3177 137.37 17.6416C137.236 16.9656 136.905 16.3444 136.418 15.8566C135.931 15.3689 135.31 15.0366 134.634 14.9017C133.958 14.7669 133.258 14.8355 132.621 15.099C131.984 15.3624 131.44 15.8089 131.057 16.3818C130.674 16.9547 130.469 17.6284 130.469 18.3176C130.469 19.2404 130.835 20.1255 131.487 20.7785C132.139 21.4316 133.024 21.7993 133.947 21.8008V21.8008ZM154 17.7166V24.0529C154 24.1613 153.957 24.2652 153.88 24.3417C153.804 24.4183 153.7 24.4614 153.592 24.4614H151.135C151.082 24.4614 151.029 24.4508 150.979 24.4303C150.929 24.4098 150.884 24.3797 150.846 24.3417C150.809 24.3038 150.778 24.2588 150.758 24.2092C150.737 24.1597 150.727 24.1066 150.727 24.0529V17.9092C150.727 17.8421 150.727 17.7721 150.727 17.705C150.727 16.9452 150.425 16.2165 149.888 15.6793C149.351 15.142 148.622 14.8402 147.862 14.8402C147.102 14.8402 146.374 15.142 145.836 15.6793C145.299 16.2165 144.997 16.9452 144.997 17.705C144.997 17.7721 144.997 17.8421 144.997 17.9092V24.0529C144.997 24.1066 144.987 24.1597 144.966 24.2092C144.946 24.2588 144.916 24.3038 144.878 24.3417C144.84 24.3797 144.795 24.4098 144.745 24.4303C144.696 24.4508 144.643 24.4614 144.589 24.4614H142.337C142.283 24.4614 142.23 24.4508 142.18 24.4303C142.131 24.4098 142.086 24.3797 142.048 24.3417C142.01 24.3038 141.98 24.2588 141.959 24.2092C141.939 24.1597 141.928 24.1066 141.928 24.0529V12.5851C141.928 12.4766 141.971 12.3724 142.048 12.2953C142.124 12.2183 142.228 12.1746 142.337 12.1738H144.589C144.697 12.1746 144.801 12.2183 144.878 12.2953C144.954 12.3724 144.997 12.4766 144.997 12.5851V12.6202C145.898 12.076 146.927 11.781 147.979 11.7655C149.031 11.75 150.068 12.0146 150.984 12.532C151.901 13.0495 152.663 13.8012 153.193 14.7102C153.722 15.6192 154.001 16.6528 154 17.705V17.7166Z" fill="#0E0000"/>
<path d="M61.8006 40.0259H57.0418V31.2673H55.8111V41.1336H61.8006V40.0259Z" fill="#2C2C2C"/>
<path d="M63.2912 43.8002C64.5971 43.8002 65.1851 43.2942 65.8142 41.5849L68.6927 33.7629H67.4414L65.4244 39.8276H65.315L63.2912 33.7629H62.0194L64.7475 41.1404L64.6108 41.578C64.3031 42.4669 63.9339 42.7882 63.257 42.7882C63.0929 42.7882 62.9083 42.7814 62.7647 42.754V43.7591C62.9288 43.7865 63.1339 43.8002 63.2912 43.8002Z" fill="#2C2C2C"/>
<path d="M73.0207 41.2635C75.1198 41.2635 76.4189 39.814 76.4189 37.4482C76.4189 35.0757 75.1198 33.633 73.0207 33.633C70.9217 33.633 69.6226 35.0757 69.6226 37.4482C69.6226 39.814 70.9217 41.2635 73.0207 41.2635ZM73.0207 40.2037C71.6259 40.2037 70.8396 39.1918 70.8396 37.4482C70.8396 35.6979 71.6259 34.6928 73.0207 34.6928C74.4156 34.6928 75.2019 35.6979 75.2019 37.4482C75.2019 39.1918 74.4156 40.2037 73.0207 40.2037Z" fill="#2C2C2C"/>
<path d="M78.265 41.1336H79.441V36.7713C79.441 35.4791 80.2 34.6928 81.376 34.6928C82.552 34.6928 83.1127 35.3218 83.1127 36.6483V41.1336H84.2887V36.3611C84.2887 34.6107 83.3657 33.633 81.711 33.633C80.5829 33.633 79.8649 34.1116 79.4957 34.9253H79.3863V33.7629H78.265V41.1336Z" fill="#2C2C2C"/>
</svg>
