<svg width="90" height="90" viewBox="0 0 90 90" fill="none" xmlns="http://www.w3.org/2000/svg">
<g clip-path="url(#clip0)">
<path d="M15.8224 13.3604C11.4608 13.3604 7.91261 16.9083 7.91261 21.2702C7.91261 25.6318 11.4608 29.18 15.8224 29.18C20.1841 29.18 23.7322 25.6318 23.7322 21.2702C23.7322 16.9085 20.1841 13.3604 15.8224 13.3604Z" fill="#FDF5E7"/>
<path d="M29.25 0H61.75C62.9925 0 64 1.03361 64 2.30843V16.159C64 17.4339 62.9925 18.4675 61.75 18.4675H56.9552V23.5L52 18.4675H37.2018H29.25C28.0074 18.4675 27 17.4339 27 16.159V2.30843C27 1.03361 28.0074 0 29.25 0Z" fill="#FDF5E7"/>
<path d="M42.0316 83.4451L34.1216 59.5371C33.5345 57.1863 31.4309 55.5461 29.0055 55.5461C27.0972 55.5461 25.6405 55.5461 23.7322 55.5461C22.276 55.5461 21.0957 54.3656 21.0957 52.9096C21.0957 51.4536 22.2762 50.273 23.7322 50.273C26.5382 50.273 28.8816 50.273 31.642 50.273C34.5544 50.273 36.9153 47.9121 36.9153 44.9998C36.9153 42.0874 34.5545 39.7265 31.642 39.7265H17.1221L15.2662 34.734C14.3882 32.9804 12.5473 31.8477 10.4873 31.8477C8.13146 31.8709 6.00714 33.542 5.43287 35.8103L0.159605 59.5397C-0.664985 62.843 1.80755 66.0339 5.19837 66.0835L0.0824372 86.7227C-0.272817 88.1337 0.587105 89.5652 2.00074 89.918C3.40295 90.2728 4.84207 89.4218 5.19609 87.9997L7.33324 79.4513H29.5036L31.7992 86.0043C32.5807 89.1194 35.6611 90.4912 38.1952 89.8382C41.0129 89.1351 42.7363 86.2748 42.0316 83.4451ZM8.65142 74.1782L10.4694 66.7313C10.5237 66.5156 10.4992 66.3052 10.4992 66.0926C15.5273 66.0926 22.1019 66.0926 24.8857 66.0926L27.6565 74.1782H8.65142Z" fill="#FDF5E7"/>
<path d="M74.1778 13.3604C69.8161 13.3604 66.268 16.9085 66.268 21.2702C66.268 25.6318 69.8161 29.18 74.1778 29.18C78.5394 29.18 82.0876 25.6318 82.0876 21.2702C82.0876 16.9085 78.5394 13.3604 74.1778 13.3604Z" fill="#FDF5E7"/>
<path d="M84.8016 66.0834C88.1923 66.0338 90.6648 62.843 89.8402 59.5394L84.5669 35.8098C83.9927 33.5415 81.8685 31.8704 79.5125 31.8472C77.4525 31.8472 75.6118 32.9801 74.7336 34.7335L72.8777 39.726H58.3576C55.4453 39.726 53.0843 42.087 53.0843 44.9993C53.0843 47.9116 55.4451 50.2726 58.3576 50.2726C61.1179 50.2726 63.4614 50.2726 66.2674 50.2726C67.7236 50.2726 68.904 51.4531 68.904 52.9091C68.904 54.3651 67.7234 55.5456 66.2674 55.5456C64.3591 55.5456 62.9021 55.5456 60.9942 55.5456C58.5687 55.5456 56.465 57.1859 55.878 59.5366L47.9682 83.4446C47.2634 86.2743 48.9869 89.1346 51.8047 89.8379C54.3385 90.491 57.4191 89.1192 58.2006 86.004L60.496 79.451H82.6666L84.8037 87.9994C85.1577 89.4215 86.597 90.2725 87.9991 89.9177C89.4127 89.5649 90.2726 88.1334 89.9174 86.7224L84.8016 66.0834ZM62.3435 74.1781L65.1143 66.0749C67.898 66.0749 74.4725 66.0749 79.5007 66.0749C79.5007 66.2873 79.4763 66.4979 79.5306 66.7136L81.3486 74.1781H62.3435V74.1781Z" fill="#FDF5E7"/>
</g>
<defs>
<clipPath id="clip0">
<rect width="90" height="90" fill="white"/>
</clipPath>
</defs>
</svg>
