<svg width="45" height="51" viewBox="0 0 45 51" fill="none" xmlns="http://www.w3.org/2000/svg">
<path d="M25.5608 0.540024C21.2292 0.898408 17.3531 2.65699 14.3011 5.64491C10.2138 9.64131 8.2509 15.2421 8.93419 20.9596C9.23649 23.4641 10.073 25.9186 11.3733 28.0981C11.6963 28.6357 12.2554 29.4858 12.3962 29.6441C12.4252 29.6775 13.6095 29.2399 13.6924 29.1691C13.7089 29.1482 13.6137 28.9857 13.4729 28.8023C13.3362 28.619 13.067 28.2273 12.8766 27.9356C11.4396 25.7061 10.5824 23.3266 10.2511 20.6262C10.16 19.8677 10.1475 17.7841 10.2304 17.0215C10.7397 12.3875 12.9677 8.33279 16.5746 5.45738C19.6846 2.98204 23.718 1.67768 27.6563 1.87355C28.8489 1.93189 29.6109 2.04024 30.8325 2.31944L31.4827 2.46946L32.4683 2.31944C33.0066 2.2361 33.6236 2.14442 33.8348 2.11941C34.0419 2.09024 34.2158 2.0569 34.2158 2.04024C34.2158 1.99856 33.0936 1.56934 32.4434 1.35681C31.346 1.00259 30.1782 0.752554 28.9152 0.602533C28.2609 0.523355 26.2193 0.48585 25.5608 0.540024Z" fill="#FFFF01"/>
<path d="M41.3385 2.62783C34.427 3.08206 27.855 4.24889 22.2645 6.01997C20.1608 6.68673 18.6865 7.48684 17.5767 8.55782C17.0508 9.06623 16.7154 9.50796 16.471 10.0164C16.235 10.4998 16.1605 10.7956 16.1315 11.3124C16.0404 13.0335 17.4732 14.5587 20.2188 15.6588C20.9683 15.9589 21.6599 16.1756 23.0016 16.5214C23.6559 16.6923 24.4427 16.9173 24.7492 17.0215C26.2648 17.5382 27.3746 18.1425 28.1366 18.8718C28.5838 19.2968 28.8489 19.6885 29.0104 20.1594C29.1222 20.4928 29.1305 20.5512 29.1139 20.9596C29.0849 21.5055 28.9607 21.8639 28.6087 22.3973C27.9296 23.4182 26.592 24.435 24.7119 25.356C22.7449 26.3145 16.1605 28.9982 9.57605 31.5152C8.76853 31.8277 8.07282 32.0903 8.03555 32.107C7.99828 32.1236 7.8699 32.307 7.74981 32.5153C7.09551 33.6613 6.11406 34.974 5.20715 35.9158C4.01865 37.1535 2.80115 38.1036 0.77614 39.3788C0.366168 39.6372 0.0224537 39.8539 0.0141714 39.8622C-0.130768 39.9914 0.858963 39.7372 1.93566 39.3746C5.09948 38.3037 9.50565 36.4867 22.2893 30.9818C27.2877 28.8273 29.7558 27.7813 31.2756 27.1688C33.694 26.1936 35.2014 25.2268 36.3775 23.8975C37.5204 22.6098 38.0712 21.2554 38.0132 19.8552C37.9842 19.1968 37.889 18.7968 37.6281 18.255C36.9904 16.9132 35.8474 16.0339 33.8762 15.3546C33.1888 15.1171 32.5511 14.9837 31.5448 14.8754C30.3148 14.742 29.5073 14.6337 28.8862 14.5212C28.1573 14.3878 26.4015 13.9461 25.9377 13.7836C24.2315 13.1793 23.6103 12.1167 24.2439 10.8998C24.4137 10.5789 25.097 9.87884 25.5028 9.61214C26.8694 8.71201 28.8075 8.1411 31.1058 7.95774C31.8471 7.90357 33.3586 7.90357 34.2696 7.96607L35.0026 8.01191L35.3049 7.72021C36.0213 7.02844 36.9779 6.28667 39.1437 4.74896C40.2867 3.93634 41.4462 3.08206 41.9431 2.682C42.0218 2.61949 42.0177 2.58199 41.9307 2.58616C41.8893 2.59032 41.6243 2.61116 41.3385 2.62783Z" fill="#ED2417"/>
<path d="M39.1851 6.25332C38.8994 6.46168 38.6592 6.6367 38.6509 6.6492C38.6427 6.65754 38.8414 6.8784 39.094 7.14511C40.2908 8.39945 41.4131 10.058 42.1502 11.6707C43.6327 14.9212 44.0551 18.5175 43.3636 22.0222C42.1958 27.948 37.9221 32.8196 32.2156 34.7323C30.4971 35.3074 29.1553 35.5366 27.296 35.5741C25.7306 35.6033 24.9107 35.5324 23.511 35.2491C22.1361 34.9657 20.9145 34.5406 19.523 33.853C19.0385 33.6155 18.6286 33.4196 18.612 33.4196C18.5706 33.4196 17.1833 34.0114 17.1419 34.0447C17.1005 34.0822 17.8666 34.549 18.6244 34.9449C20.1111 35.72 21.9125 36.3451 23.5441 36.6451C30.1989 37.8828 36.8703 35.3991 41.0694 30.1275C43.1731 27.4813 44.4444 24.4475 44.9082 20.9804C44.991 20.3511 45.0034 20.1011 44.9993 18.7301C44.9993 17.3715 44.991 17.1048 44.9082 16.4798C44.3988 12.6 42.8418 9.22457 40.237 6.35333C39.9968 6.09079 39.7815 5.8741 39.7525 5.8741C39.7235 5.8741 39.4709 6.04495 39.1851 6.25332Z" fill="#FFFF01"/>
<path d="M23.5524 45.4254C23.3702 45.4421 23.0306 45.5005 22.7987 45.5505L22.3763 45.638L22.2107 46.1672C21.9705 46.934 21.7924 47.5466 21.2955 49.3093L20.8524 50.8804L21.5564 50.8721L22.2645 50.8596L22.5627 50.1095C22.7283 49.6927 22.8857 49.3552 22.9188 49.3468C22.9602 49.3385 23.072 49.576 23.2832 50.1136L23.5938 50.8887L24.3806 50.8596C24.8155 50.8429 25.1716 50.8262 25.1757 50.8221C25.184 50.8179 25.0474 50.4303 24.8734 49.9678C24.7037 49.501 24.567 49.1176 24.5753 49.1135C25.681 48.6342 26.2276 47.8508 26.1738 46.8173C26.1324 46.0755 25.7845 45.6421 25.1053 45.488C24.7575 45.4088 23.9707 45.3754 23.5524 45.4254ZM24.3724 46.759C24.6622 46.8923 24.6415 47.3799 24.331 47.7883C24.1819 47.9883 23.8382 48.1383 23.4779 48.1633C23.2087 48.1842 23.188 48.18 23.2087 48.105C23.2211 48.0633 23.3081 47.7508 23.4075 47.4091C23.5814 46.8173 23.5897 46.7923 23.7139 46.759C23.8961 46.7048 24.2564 46.7048 24.3724 46.759Z" fill="black"/>
<path d="M37.2595 45.4422C36.8744 45.5047 36.452 45.6089 36.4106 45.6589C36.3153 45.7589 35.5782 48.2759 34.9198 50.7429L34.8866 50.8804H35.5616H36.2367L36.2822 50.7637C36.3071 50.7012 36.4189 50.3929 36.5265 50.0762L36.7253 49.5011L37.3465 49.4886C38.0505 49.4719 38.2493 49.4261 38.7669 49.1677C39.4005 48.8552 39.8767 48.2467 40.0383 47.5633C40.0838 47.3675 40.1004 47.1424 40.0879 46.859C40.0755 46.5048 40.0548 46.4048 39.9596 46.2048C39.7567 45.7922 39.3839 45.5464 38.7793 45.438C38.3859 45.3713 37.7026 45.3713 37.2595 45.4422ZM38.2741 46.7757C38.4108 46.8465 38.5226 47.0299 38.5226 47.1841C38.5226 47.3341 38.4108 47.6258 38.2865 47.805C38.1416 48.0217 37.8269 48.1676 37.45 48.2009C37.1933 48.2217 37.156 48.2176 37.156 48.1551C37.156 48.0634 37.4873 46.8674 37.5204 46.8299C37.6322 46.7215 38.1043 46.6882 38.2741 46.7757Z" fill="black"/>
<path d="M9.18268 45.488C8.5905 45.5713 8.38758 45.613 8.06457 45.7172C6.99202 46.0589 6.40811 46.809 6.5572 47.655C6.63174 48.0967 6.86364 48.3759 7.4434 48.726C8.00245 49.0594 8.08528 49.3552 7.6753 49.5553C7.44754 49.6678 6.83465 49.7053 6.346 49.6344C6.15965 49.6094 6.02713 49.6094 6.01471 49.6303C5.98572 49.6803 5.79523 50.843 5.81593 50.8596C5.86977 50.9138 6.78496 50.9721 7.27775 50.9513C8.1681 50.9138 8.80998 50.7179 9.3152 50.3345C9.73345 50.0178 9.9695 49.5386 9.87011 49.2094C9.78315 48.9135 9.456 48.6218 8.88038 48.3176C8.57393 48.1551 8.33375 47.93 8.33375 47.805C8.33789 47.5383 8.66504 47.1799 8.99219 47.0882C9.22823 47.0216 9.74173 46.9924 9.99848 47.0382L10.2387 47.0757L10.2718 46.9465C10.483 46.1589 10.6238 45.5463 10.6072 45.5255C10.5782 45.4963 9.35247 45.463 9.18268 45.488Z" fill="black"/>
<path d="M19.08 45.488C19.0344 45.4963 18.8936 45.513 18.7611 45.5255L18.5292 45.5505L18.0819 46.4548C17.8376 46.9507 17.5022 47.6591 17.3283 48.0259C16.7816 49.2094 16.0776 50.7637 16.0776 50.7929C16.0776 50.8054 16.3841 50.8179 16.7609 50.8179H17.4442L17.6554 50.4137L17.8708 50.0053H18.2517C18.4629 50.0053 18.7487 49.9928 18.8895 49.9803L19.1462 49.9511L19.1172 50.4179L19.0882 50.8804H19.7922H20.4962L20.5211 50.4345C20.5584 49.8761 20.5584 45.6172 20.5252 45.5297C20.5045 45.4713 20.4051 45.463 19.8295 45.4672C19.4651 45.4713 19.1255 45.4797 19.08 45.488ZM19.3284 47.8258L19.3616 48.6718H18.8356H18.3139L18.4008 48.4926C18.6741 47.9383 19.2456 46.9257 19.2705 46.9549C19.287 46.9715 19.3119 47.3633 19.3284 47.8258Z" fill="black"/>
<path d="M27.3581 45.5046C27.1262 45.5213 26.9192 45.5463 26.8943 45.563C26.8322 45.6005 26.6624 46.1506 26.5755 46.5881C26.5382 46.784 26.4968 46.9757 26.4885 47.0174C26.4678 47.084 26.5051 47.0882 27.0475 47.0632C27.3706 47.0465 27.6314 47.0465 27.6314 47.0632C27.6314 47.0799 27.5735 47.3216 27.5031 47.6008C27.4327 47.88 27.238 48.7009 27.0682 49.4219C26.8985 50.1428 26.7494 50.7679 26.737 50.8054C26.7163 50.8763 26.7701 50.8804 27.441 50.8804H28.1656L28.2319 50.6387C28.265 50.5095 28.5135 49.6469 28.7827 48.7259L29.2672 47.0465H29.8345H30.406L30.4308 46.9298C30.4515 46.8382 30.7249 45.8255 30.8077 45.5338C30.8284 45.4671 30.7373 45.463 29.3045 45.4671C28.4638 45.4713 27.5859 45.488 27.3581 45.5046Z" fill="black"/>
<path d="M11.8992 45.5838C11.8247 45.6046 11.7584 45.7046 11.6176 46.0255C11.2988 46.7465 10.835 47.955 10.3629 49.2843C10.1103 49.9886 9.87836 50.6387 9.84523 50.7262L9.78311 50.8804L10.4954 50.8721L11.2077 50.8596L11.5638 49.9011C11.7626 49.3719 11.9821 48.8218 12.0525 48.6718L12.1767 48.4009L12.1808 48.8843C12.185 49.3802 12.2554 50.6262 12.2885 50.7804C12.3051 50.8637 12.3299 50.8679 12.7233 50.8637L13.1416 50.8596L13.27 50.6512C13.3404 50.5345 13.6468 49.9844 13.9532 49.4219C14.2555 48.8593 14.504 48.4384 14.504 48.4884C14.504 48.5759 14.4419 49.8178 14.4005 50.497L14.3798 50.8846L15.0589 50.8721L15.7422 50.8637L15.7671 50.6929C15.7795 50.6012 15.8623 49.8594 15.9534 49.0468C16.0445 48.2342 16.1729 47.1257 16.2391 46.5881C16.3013 46.0505 16.3468 45.6005 16.3385 45.588C16.3095 45.5546 15.0341 45.5671 14.914 45.6005C14.7939 45.6296 14.7732 45.663 14.0236 46.9923C13.7627 47.4632 13.564 47.7758 13.5474 47.7424C13.5308 47.7174 13.4853 47.2215 13.448 46.6506C13.4025 46.0172 13.3569 45.5963 13.3279 45.5796C13.27 45.5421 12.0359 45.5421 11.8992 45.5838Z" fill="black"/>
<path d="M33.9094 45.5963C33.8969 45.6255 33.8348 45.9172 33.7603 46.2464C33.5946 47.0049 33.2758 48.2051 33.0563 48.8885C32.9155 49.3302 32.8658 49.4344 32.7457 49.5386C32.5635 49.7011 32.2363 49.7553 32.0086 49.6553C31.8678 49.5969 31.8554 49.5803 31.8554 49.4302C31.8554 49.1844 32.3979 47.2424 32.8037 46.0381C32.9072 45.7339 32.9155 45.6755 32.8617 45.6547C32.7747 45.6213 31.7436 45.6297 31.5448 45.663C31.3874 45.6922 31.3791 45.7005 31.3046 45.9422C31.2632 46.0797 31.1348 46.5006 31.023 46.8799C30.6254 48.1842 30.4018 49.1427 30.377 49.6553C30.348 50.2053 30.3894 50.3595 30.6213 50.6137C30.8946 50.9096 31.1224 50.9763 31.9589 50.9971C33.0604 51.0221 33.5077 50.8888 33.9425 50.4179C34.3483 49.9761 34.5512 49.4261 35.2097 46.9299C35.4954 45.8422 35.5451 45.6172 35.4954 45.5838C35.4002 45.5255 33.9259 45.538 33.9094 45.5963Z" fill="black"/>
</svg>
