<svg width="90" height="90" viewBox="0 0 90 90" fill="none" xmlns="http://www.w3.org/2000/svg">
<path d="M54.6429 42.5452C54.6429 47.9673 50.3252 52.3634 45 52.3634C39.6748 52.3634 35.3571 47.9673 35.3571 42.5452C35.3571 37.1232 39.6748 32.7271 45 32.7271C50.3252 32.7271 54.6429 37.1232 54.6429 42.5452Z" fill="#FDF5E7"/>
<path d="M69.1072 86.7275V68.7275C69.1001 62.4042 64.0676 57.2801 57.8572 57.2729H32.1429C25.9325 57.2801 20.8999 62.4042 20.8929 68.7275V86.7275H3.21429V90.0002H80.3572V86.7275H69.1072ZM30.5357 86.7275V67.0911H33.75V86.7275H30.5357ZM56.25 86.7275V67.0911H59.4643V86.7275H56.25Z" fill="#FDF5E7"/>
<path d="M85.1786 0H4.82143C2.15881 0 0 2.19806 0 4.90909V34.3636C0 37.0747 2.15881 39.2727 4.82143 39.2727H32.5752C34.0294 33.4959 39.1427 29.4561 45 29.4561C50.8573 29.4561 55.9706 33.4959 57.4248 39.2727H67.5V46.785L74.904 39.2727H85.1786C87.8412 39.2727 90 37.0747 90 34.3636V4.90909C90 2.19806 87.8412 0 85.1786 0Z" fill="#FDF5E7"/>
</svg>
