<svg width="195" height="30" viewBox="0 0 195 30" xmlns="http://www.w3.org/2000/svg"><title>logo</title><g fill="none" fill-rule="evenodd"><path d="M8.547 0h23.887L26.83 4.981 8.547 0zm25.019 1.132l-2.604 25.019-2.92-19.98 5.524-5.039zm-7.075 6.396l3.113 21.453-21-5.32L26.49 7.527zM4.245.566l21.057 5.717-18 16.245L4.245.566zM2.943 4.189l2.774 19.698L0 28.925 2.943 4.189zM1.472 30l5.547-4.981L26.604 30H1.472z" fill="#48B6AC"/><path d="M53.943 7.472c-.98-.426-2.01-.648-3.056-.623-1.41-.025-2.695.315-3.85 1.019a7.146 7.146 0 0 0-2.773 2.717 7.156 7.156 0 0 0-1.019 3.849 7.124 7.124 0 0 0 1.02 3.849 7.322 7.322 0 0 0 2.773 2.774c1.154.675 2.439 1.015 3.849 1.018 1.027-.003 2.048-.216 3.056-.622a9.508 9.508 0 0 0 2.66-1.755l1.642 1.755a10.367 10.367 0 0 1-3.51 2.32c-1.3.571-2.641.85-4.018.85-1.873 0-3.603-.45-5.151-1.359a9.677 9.677 0 0 1-3.736-3.68c-.905-1.527-1.358-3.237-1.358-5.093 0-1.866.458-3.562 1.358-5.095.933-1.547 2.185-2.76 3.793-3.622 1.567-.915 3.315-1.359 5.207-1.359 1.396 0 2.733.26 4.02.793 1.302.506 2.422 1.238 3.339 2.207L56.604 9.34a8.518 8.518 0 0 0-2.66-1.868zm8.321-4.076h2.66v21h-2.66v-21zm20.094 7.981c1.216 1.389 1.812 3.293 1.812 5.717 0 .393-.01.676-.057.85h-11.83c.213 1.358.776 2.426 1.698 3.226.911.788 2.04 1.184 3.396 1.188a6.198 6.198 0 0 0 2.49-.509 5.535 5.535 0 0 0 1.982-1.358l1.415 1.528a6.83 6.83 0 0 1-2.66 1.811c-1.019.462-2.172.68-3.453.68-1.46 0-2.77-.317-3.906-.963a6.463 6.463 0 0 1-2.66-2.66c-.646-1.16-.962-2.474-.962-3.962 0-1.46.316-2.77.962-3.906.62-1.151 1.505-2.049 2.66-2.717 1.113-.636 2.408-.962 3.85-.962 2.34 0 4.097.685 5.263 2.037zm-.566 4.585c-.075-1.367-.528-2.445-1.358-3.226-.83-.795-1.925-1.189-3.283-1.189-1.32 0-2.42.399-3.283 1.189-.892.805-1.415 1.878-1.585 3.226h9.51zm16.529 8.434v-2.094c-1.113 1.472-2.859 2.207-5.264 2.207-1.01 0-1.92-.198-2.717-.566-.77-.424-1.373-.971-1.812-1.641a4.732 4.732 0 0 1-.622-2.377c0-1.34.495-2.401 1.471-3.17 1.005-.797 2.387-1.198 4.132-1.189h4.755v-.736c.028-1.056-.297-1.872-.962-2.434-.637-.59-1.585-.877-2.83-.849-1.51-.028-3.047.51-4.585 1.585l-1.132-1.811c1.075-.698 2.07-1.203 3-1.529.9-.297 1.99-.452 3.283-.452 1.84 0 3.283.457 4.302 1.358 1.018.93 1.537 2.208 1.528 3.85l.057 9.848H98.32zm-1.529-2.943c.842-.58 1.358-1.368 1.529-2.32v-1.53h-4.415c-1.18 0-2.066.18-2.66.567-.561.33-.85.896-.85 1.698 0 .745.294 1.358.906 1.811.562.453 1.348.68 2.32.68 1.243 0 2.29-.298 3.17-.906zm14.491-11.264c.897-.543 1.977-.83 3.226-.85v2.548c-1.533-.057-2.774.34-3.735 1.188-.932.85-1.472 1.991-1.585 3.453v7.868h-2.66V9.453h2.66v3.226c.473-1.104 1.174-1.92 2.094-2.49zm6.283-.736h2.774l4.188 12.396 4.132-12.396h2.717l4.189 12.396 4.132-12.396h2.717l-5.547 15h-2.717l-4.132-11.774-4.132 11.774h-2.774l-5.547-15zm37.415 14.943v-2.094c-1.113 1.472-2.858 2.207-5.264 2.207-1.01 0-1.92-.198-2.717-.566-.769-.424-1.373-.971-1.811-1.641a4.732 4.732 0 0 1-.623-2.377c0-1.34.495-2.401 1.472-3.17 1.004-.797 2.387-1.198 4.132-1.189h4.755v-.736c.028-1.056-.298-1.872-.963-2.434-.637-.59-1.585-.877-2.83-.849-1.51-.028-3.047.51-4.585 1.585l-1.132-1.811c1.076-.698 2.07-1.203 3-1.529.901-.297 1.99-.452 3.283-.452 1.84 0 3.283.457 4.302 1.358 1.019.93 1.538 2.208 1.528 3.85l.057 9.848h-2.604zm-1.528-2.943c.842-.58 1.358-1.368 1.528-2.32v-1.53h-4.415c-1.18 0-2.066.18-2.66.567-.56.33-.85.896-.85 1.698 0 .745.294 1.358.906 1.811.562.453 1.348.68 2.321.68 1.242 0 2.289-.298 3.17-.906zm22.981-12v13.415c0 1.454-.316 2.71-.962 3.792-.618 1.073-1.51 1.9-2.66 2.49-1.152.562-2.491.85-4.02.85-2.207 0-4.264-.7-6.17-2.094l1.133-1.925c.764.6 1.528 1.048 2.32 1.359a7.29 7.29 0 0 0 2.604.396c1.547.025 2.783-.41 3.736-1.302.896-.846 1.359-2.008 1.359-3.453v-2.094a5.58 5.58 0 0 1-2.151 2.094c-.906.505-1.944.756-3.114.736-1.34.02-2.523-.287-3.566-.906a6.346 6.346 0 0 1-2.377-2.547c-.566-1.11-.849-2.365-.849-3.792 0-1.389.283-2.626.849-3.68a6.208 6.208 0 0 1 2.377-2.547c1.043-.603 2.227-.905 3.566-.905 1.19 0 2.232.245 3.114.735a5.462 5.462 0 0 1 2.15 2.095V9.453h2.661zm-4.925 11.49a4.389 4.389 0 0 0 1.642-1.754c.42-.788.623-1.653.623-2.604 0-.998-.203-1.873-.623-2.66a4.389 4.389 0 0 0-1.642-1.755c-.745-.462-1.566-.68-2.49-.68-.925 0-1.75.218-2.49.68-.713.409-1.284 1.01-1.699 1.755-.415.787-.622 1.662-.622 2.66.018 1.462.471 2.673 1.358 3.623.887.942 2.038 1.415 3.453 1.415.924 0 1.745-.218 2.49-.68zm21.397-9.566c1.215 1.389 1.811 3.293 1.811 5.717 0 .393-.01.676-.057.85h-11.83c.213 1.358.776 2.426 1.698 3.226.912.788 2.041 1.184 3.397 1.188a6.198 6.198 0 0 0 2.49-.509 5.535 5.535 0 0 0 1.981-1.358l1.415 1.528a6.83 6.83 0 0 1-2.66 1.811c-1.018.462-2.172.68-3.453.68-1.46 0-2.769-.317-3.906-.963a6.463 6.463 0 0 1-2.66-2.66c-.646-1.16-.962-2.474-.962-3.962 0-1.46.316-2.77.962-3.906.621-1.151 1.505-2.049 2.66-2.717 1.113-.636 2.408-.962 3.85-.962 2.34 0 4.097.685 5.264 2.037zm-.566 4.585c-.076-1.367-.529-2.445-1.359-3.226-.83-.795-1.924-1.189-3.283-1.189-1.32 0-2.42.399-3.283 1.189-.891.805-1.415 1.878-1.585 3.226h9.51z" fill="#000"/></g></svg>