<svg width="133" height="20" viewBox="0 0 133 20" fill="none" xmlns="http://www.w3.org/2000/svg">
<path fill-rule="evenodd" clip-rule="evenodd" d="M5.82949 0H22.1216L18.2994 3.32067L5.82949 0ZM22.8937 0.754667L21.1177 17.434L19.1261 4.114L22.8937 0.754667V0.754667ZM18.0682 5.01867L20.1914 19.3207L5.86837 15.774L18.0675 5.018L18.0682 5.01867ZM2.89531 0.377333L17.2573 4.18867L4.98034 15.0187L2.89531 0.377333ZM2.00728 2.79267L3.89929 15.9247L0 19.2833L2.00728 2.79267ZM1.00398 20L4.78732 16.6793L18.1453 20H1.00398Z" fill="#48B6AC"/>
<path fill-rule="evenodd" clip-rule="evenodd" d="M36.7919 4.98125C36.1235 4.69725 35.421 4.54925 34.7075 4.56592C33.7459 4.54925 32.8694 4.77592 32.0816 5.24525C31.2923 5.66686 30.6377 6.29378 30.1903 7.05658C29.715 7.83043 29.474 8.72021 29.4953 9.62258C29.473 10.5252 29.7143 11.4153 30.191 12.1886C30.6376 12.9617 31.2916 13.6011 32.0823 14.0379C32.8694 14.4879 33.7459 14.7146 34.7075 14.7166C35.408 14.7146 36.1044 14.5726 36.7919 14.3019C37.4597 14.0145 38.073 13.6189 38.6062 13.1319L39.7261 14.3019C39.0446 14.972 38.2298 15.4984 37.3321 15.8486C36.4454 16.2293 35.5308 16.4152 34.5916 16.4152C33.3141 16.4152 32.1342 16.1152 31.0784 15.5092C30.0141 14.9363 29.1324 14.0873 28.5302 13.0559C27.913 12.0379 27.604 10.8979 27.604 9.66058C27.604 8.41658 27.9164 7.28592 28.5302 6.26392C29.1666 5.23258 30.0205 4.42392 31.1172 3.84925C32.186 3.23925 33.3782 2.94325 34.6687 2.94325C35.6208 2.94325 36.5327 3.11658 37.4105 3.47192C38.2985 3.80925 39.0624 4.29725 39.6879 4.94325L38.6068 6.22658C38.0895 5.70149 37.4735 5.27869 36.7926 4.98125H36.7919ZM42.4672 2.26392H44.2815V16.2639H42.4672V2.26392ZM56.1724 7.58458C57.0018 8.51058 57.4083 9.77992 57.4083 11.3959C57.4083 11.6579 57.4014 11.8466 57.3694 11.9626H49.3007C49.446 12.8679 49.83 13.5799 50.4588 14.1132C51.0802 14.6386 51.8502 14.9026 52.7751 14.9052C53.3591 14.908 53.9373 14.7925 54.4734 14.5659C54.9864 14.3645 55.4479 14.0555 55.8252 13.6606L56.7903 14.6792C56.2926 15.2172 55.6706 15.6311 54.9761 15.8866C54.2811 16.1946 53.4946 16.3399 52.6209 16.3399C51.6251 16.3399 50.7317 16.1286 49.9569 15.6979C49.1856 15.2957 48.5541 14.6785 48.1426 13.9246C47.702 13.1512 47.4865 12.2752 47.4865 11.2832C47.4865 10.3099 47.702 9.43658 48.1426 8.67925C48.5655 7.91192 49.1691 7.31325 49.9569 6.86792C50.716 6.44392 51.5992 6.22658 52.5827 6.22658C54.1787 6.22658 55.3771 6.68325 56.1724 7.58458V7.58458ZM55.7863 10.6412C55.7352 9.72992 55.4262 9.01125 54.8601 8.49058C54.294 7.96058 53.5472 7.69792 52.6209 7.69792C51.7206 7.69792 50.9704 7.96392 50.3818 8.49058C49.7734 9.02725 49.4167 9.74258 49.3007 10.6412H55.787H55.7863ZM67.06 16.2639V14.8679C66.3008 15.8492 65.11 16.3393 63.4696 16.3393C62.7808 16.3393 62.1601 16.2073 61.6165 15.9619C61.0913 15.6793 60.6801 15.3146 60.3806 14.8679C60.0989 14.3854 59.9526 13.8388 59.9564 13.2832C59.9564 12.3899 60.294 11.6826 60.9597 11.1699C61.6452 10.6386 62.5878 10.3712 63.7779 10.3772H67.0211V9.88658C67.0402 9.18258 66.8185 8.63858 66.365 8.26392C65.9305 7.87058 65.2839 7.67925 64.4348 7.69792C63.4049 7.67925 62.3565 8.03792 61.3075 8.75458L60.5355 7.54725C61.2687 7.08192 61.9473 6.74525 62.5816 6.52792C63.1955 6.32992 63.9389 6.22658 64.8208 6.22658C66.0758 6.22658 67.06 6.53125 67.755 7.13192C68.4493 7.75192 68.8033 8.60392 68.7971 9.69858L68.836 16.2639H67.0593H67.06ZM66.0171 14.3019C66.5914 13.9152 66.9433 13.3899 67.06 12.7552V11.7353H64.0487C63.2439 11.7353 62.6396 11.8552 62.2345 12.1132C61.8518 12.3332 61.6547 12.7106 61.6547 13.2452C61.6547 13.7419 61.8552 14.1506 62.2726 14.4526C62.656 14.7546 63.1921 14.9059 63.855 14.9059C64.7028 14.9059 65.4169 14.7072 66.0171 14.3019ZM75.9007 6.79258C76.5125 6.43058 77.2491 6.23925 78.101 6.22592V7.92458C77.0554 7.88658 76.209 8.15125 75.5536 8.71658C74.9179 9.28325 74.5496 10.0439 74.4725 11.0186V16.2639H72.6582V6.30192H74.4725V8.45258C74.7951 7.71658 75.2732 7.17258 75.9007 6.79258V6.79258ZM80.186 6.30192H82.0781L84.9345 14.5659L87.7527 6.30192H89.6059L92.463 14.5659L95.2812 6.30192H97.1343L93.351 16.3019H91.4979L88.6796 8.45258L85.8614 16.3019H83.9694L80.186 6.30192ZM105.705 16.2639V14.8679C104.946 15.8492 103.756 16.3393 102.115 16.3393C101.426 16.3393 100.805 16.2073 100.262 15.9619C99.737 15.6793 99.3251 15.3146 99.0263 14.8679C98.7444 14.3855 98.5978 13.8388 98.6014 13.2832C98.6014 12.3899 98.939 11.6826 99.6054 11.1699C100.29 10.6386 101.233 10.3712 102.424 10.3772H105.667V9.88658C105.686 9.18258 105.464 8.63858 105.01 8.26392C104.576 7.87058 103.929 7.67925 103.08 7.69792C102.05 7.67925 101.002 8.03792 99.9526 8.75458L99.1805 7.54725C99.9144 7.08192 100.592 6.74525 101.227 6.52792C101.841 6.32992 102.584 6.22658 103.466 6.22658C104.721 6.22658 105.705 6.53125 106.4 7.13192C107.095 7.75192 107.449 8.60392 107.442 9.69858L107.481 16.2639H105.705V16.2639ZM104.663 14.3019C105.237 13.9152 105.589 13.3899 105.705 12.7552V11.7353H102.694C101.889 11.7353 101.285 11.8552 100.879 12.1132C100.498 12.3332 100.3 12.7106 100.3 13.2452C100.3 13.7419 100.5 14.1506 100.918 14.4526C101.301 14.7546 101.837 14.9059 102.501 14.9059C103.348 14.9059 104.062 14.7072 104.663 14.3019ZM120.337 6.30192V15.2452C120.337 16.2146 120.122 17.0519 119.681 17.7732C119.259 18.4886 118.651 19.0399 117.867 19.4332C117.081 19.8079 116.168 19.9999 115.125 19.9999C113.62 19.9999 112.217 19.5333 110.917 18.6039L111.689 17.3206C112.21 17.7206 112.731 18.0192 113.272 18.2266C113.842 18.4193 114.444 18.5087 115.048 18.4906C116.103 18.5072 116.946 18.2172 117.596 17.6226C118.207 17.0586 118.523 16.2839 118.523 15.3206V13.9246C118.173 14.5122 117.666 14.995 117.056 15.3206C116.438 15.6573 115.73 15.8246 114.932 15.8112C114.018 15.8246 113.211 15.6199 112.5 15.2073C111.808 14.8002 111.246 14.212 110.878 13.5092C110.492 12.7692 110.299 11.9326 110.299 10.9812C110.299 10.0552 110.492 9.23058 110.878 8.52792C111.242 7.82226 111.804 7.23306 112.5 6.82992C113.211 6.42792 114.019 6.22658 114.932 6.22658C115.743 6.22658 116.454 6.38992 117.056 6.71658C117.668 7.03913 118.176 7.52296 118.522 8.11325V6.30192H120.337V6.30192ZM116.978 13.9619C117.455 13.6815 117.843 13.2766 118.098 12.7926C118.384 12.2672 118.523 11.6906 118.523 11.0566C118.523 10.3912 118.384 9.80792 118.098 9.28325C117.843 8.799 117.455 8.3938 116.978 8.11325C116.47 7.80525 115.91 7.65992 115.28 7.65992C114.649 7.65992 114.086 7.80525 113.581 8.11325C113.095 8.38592 112.706 8.78658 112.423 9.28325C112.139 9.80792 111.998 10.3912 111.998 11.0566C112.011 12.0312 112.32 12.8386 112.925 13.4719C113.529 14.0999 114.315 14.4152 115.28 14.4152C115.91 14.4152 116.47 14.2699 116.978 13.9619V13.9619ZM131.572 7.58458C132.4 8.51058 132.807 9.77992 132.807 11.3959C132.807 11.6579 132.8 11.8466 132.768 11.9626H124.699C124.845 12.8679 125.229 13.5799 125.858 14.1132C126.48 14.6386 127.25 14.9026 128.174 14.9052C128.758 14.908 129.337 14.7925 129.873 14.5659C130.386 14.3644 130.847 14.0554 131.224 13.6606L132.189 14.6792C131.691 15.2172 131.069 15.6311 130.375 15.8866C129.68 16.1946 128.893 16.3399 128.02 16.3399C127.024 16.3399 126.131 16.1286 125.356 15.6979C124.584 15.2957 123.953 14.6785 123.541 13.9246C123.101 13.1512 122.885 12.2752 122.885 11.2832C122.885 10.3099 123.101 9.43658 123.541 8.67925C123.965 7.91192 124.568 7.31325 125.356 6.86792C126.115 6.44392 126.998 6.22658 127.981 6.22658C129.577 6.22658 130.776 6.68325 131.572 7.58458V7.58458ZM131.186 10.6412C131.134 9.72992 130.825 9.01125 130.259 8.49058C129.693 7.96058 128.947 7.69792 128.02 7.69792C127.119 7.69792 126.369 7.96392 125.78 8.49058C125.173 9.02725 124.815 9.74258 124.699 10.6412H131.186Z" fill="black"/>
</svg>
