<svg width="116" height="35" viewBox="0 0 116 35" fill="none" xmlns="http://www.w3.org/2000/svg">
<g clip-path="url(#clip0)">
<path fill-rule="evenodd" clip-rule="evenodd" d="M50.1601 19.4956C50.1945 19.4653 50.2345 19.4421 50.2779 19.4274C50.3212 19.4127 50.3671 19.4068 50.4128 19.4099C50.4584 19.4131 50.503 19.4252 50.5439 19.4457C50.5849 19.4662 50.6213 19.4947 50.6512 19.5294C50.9549 19.8788 51.4743 20.4828 51.7553 20.8098C51.8104 20.8738 51.8402 20.9557 51.839 21.0402C51.8379 21.1246 51.806 21.2057 51.7492 21.2682C51.2395 21.8163 50.6108 22.2401 49.8625 22.5387C49.012 22.8778 48.0536 23.0473 46.9867 23.0473C45.6264 23.0473 44.4284 22.7775 43.3924 22.238C42.3567 21.6985 41.5565 20.9471 40.9925 19.9837C40.4281 19.0202 40.1459 17.9298 40.1459 16.7118C40.1459 15.5094 40.4203 14.4266 40.9691 13.4632C41.5179 12.4997 42.2755 11.7482 43.2418 11.2088C44.2078 10.6692 45.3018 10.3994 46.523 10.3994C47.6825 10.3994 48.7377 10.65 49.6885 11.1509C50.6393 11.652 51.3929 12.3688 51.9495 13.3014C52.4618 14.1594 52.7381 15.1514 52.7789 16.2772C52.7815 16.3595 52.7547 16.44 52.7034 16.5043C52.652 16.5686 52.5795 16.6124 52.4988 16.628C50.9175 16.9372 43.2997 18.4229 43.2997 18.4229C43.5936 19.132 44.0649 19.6714 44.7144 20.0415C45.3636 20.4115 46.1445 20.5966 47.0565 20.5966C48.275 20.5966 49.3096 20.2294 50.1601 19.4956V19.4956ZM43.9375 13.7522C43.2804 14.446 42.9519 15.3785 42.9519 16.55V16.5731L49.5722 15.3054C49.6219 15.296 49.6689 15.2758 49.7101 15.2462C49.7512 15.2167 49.7854 15.1785 49.8102 15.1343C49.8603 15.0451 49.8685 14.9384 49.8324 14.8428C49.6039 14.2653 49.2402 13.7858 48.7377 13.4055C48.1271 12.9429 47.3889 12.7118 46.523 12.7118C45.4563 12.7118 44.5946 13.0586 43.9375 13.7522V13.7522ZM76.0564 21.9738C76.0851 22.0464 76.0883 22.1266 76.0654 22.2012C76.0425 22.2757 75.9948 22.3403 75.9303 22.384C75.6343 22.5784 75.293 22.7309 74.9057 22.8399C74.4156 22.9784 73.8988 23.0473 73.3544 23.0473C71.9858 23.0473 70.9284 22.6942 70.1818 21.9878C69.4355 21.2815 69.0621 20.253 69.0621 18.9018V8.2153C69.0621 8.02463 69.2187 7.86987 69.412 7.86987H71.6281C71.8215 7.86987 71.978 8.02463 71.978 8.2153V10.6797H74.9639C75.1571 10.6797 75.3138 10.8343 75.3138 11.0252V12.6373C75.3138 12.8281 75.1571 12.9827 74.9639 12.9827H71.978V18.8327C71.978 19.4315 72.1298 19.8883 72.433 20.2029C72.7362 20.5177 73.16 20.6752 73.7043 20.6752C74.1973 20.6752 74.6285 20.5789 74.9974 20.3864C75.0404 20.3626 75.088 20.3481 75.137 20.344C75.186 20.3399 75.2353 20.3462 75.2816 20.3625C75.3755 20.3956 75.4501 20.467 75.4864 20.5584C75.6577 20.9732 75.9166 21.623 76.0564 21.9738V21.9738ZM63.6667 21.5421V16.1774C63.6667 15.0989 63.4142 14.2861 62.9093 13.7392C62.4044 13.1922 61.6852 12.9188 60.752 12.9188C59.6963 12.9188 58.8624 13.2385 58.2505 13.8779C57.6384 14.5173 57.3325 15.438 57.3325 16.6399V22.7003C57.3326 22.7457 57.3238 22.7907 57.3065 22.8327C57.2893 22.8747 57.264 22.9129 57.232 22.9451C57.2 22.9773 57.162 23.0028 57.1202 23.0203C57.0784 23.0378 57.0335 23.0468 56.9882 23.0469H54.8078C54.7165 23.0469 54.629 23.0104 54.5644 22.9456C54.4997 22.8804 54.4634 22.7922 54.4635 22.7003V10.7495C54.4633 10.7041 54.4722 10.6591 54.4894 10.6171C54.5066 10.5752 54.532 10.537 54.5639 10.5048C54.5959 10.4726 54.6339 10.447 54.6757 10.4296C54.7176 10.4121 54.7624 10.403 54.8078 10.4029H56.8505C56.8958 10.4031 56.9407 10.4121 56.9825 10.4296C57.0243 10.4471 57.0623 10.4726 57.0942 10.5048C57.1262 10.537 57.1515 10.5752 57.1688 10.6172C57.186 10.6592 57.1948 10.7041 57.1947 10.7495V12.1327C57.6689 11.5626 58.2657 11.1311 58.9848 10.8385C59.704 10.5457 60.5148 10.3993 61.4176 10.3993C62.9629 10.3993 64.2021 10.8539 65.1355 11.763C66.0689 12.6721 66.5356 14.0202 66.5356 15.8076V22.7005C66.5358 22.7922 66.4996 22.8803 66.435 22.9453C66.3704 23.0103 66.2827 23.047 66.1912 23.0472H64.011C63.9196 23.0472 63.832 23.0106 63.7675 22.9456C63.7029 22.8804 63.6667 22.7923 63.6667 22.7005V21.5418V21.5421ZM78.3266 20.8105V10.7464C78.3266 10.5548 78.4791 10.3994 78.6672 10.3994H80.6888C80.8769 10.3994 81.0295 10.5548 81.0295 10.7464V12.3397C81.7997 11.1196 83.1206 10.4744 84.9922 10.4035C85.0381 10.4018 85.0837 10.4096 85.1264 10.4263C85.1691 10.4429 85.208 10.4682 85.2406 10.5005C85.3071 10.5658 85.3446 10.6556 85.3446 10.7498C85.3451 11.2627 85.3451 12.2117 85.3451 12.7496C85.3452 12.7976 85.3354 12.8451 85.3163 12.8892C85.2972 12.9332 85.2693 12.9728 85.2343 13.0056C85.1996 13.038 85.1586 13.0627 85.1137 13.0781C85.0689 13.0935 85.0213 13.0993 84.9741 13.0951C84.8786 13.0849 84.7825 13.0798 84.6864 13.0796C83.581 13.0796 82.7178 13.4074 82.0972 14.0625C81.4763 14.7177 81.1658 15.6622 81.1658 16.8956V22.7003C81.1658 22.8921 81.0132 23.0473 80.8251 23.0473H78.6672C78.577 23.0473 78.4903 23.0108 78.4265 22.9459C78.3623 22.8803 78.3265 22.7921 78.3266 22.7003V20.8105V20.8105ZM102.189 10.7549C102.189 10.7089 102.198 10.6634 102.216 10.6209C102.233 10.5784 102.259 10.5398 102.292 10.5072C102.324 10.4747 102.363 10.4489 102.405 10.4313C102.447 10.4136 102.493 10.4045 102.539 10.4045H104.61C104.702 10.4046 104.791 10.4416 104.857 10.5072C104.922 10.5729 104.959 10.662 104.959 10.7548V12.1747C105.44 11.583 106.033 11.1391 106.739 10.8433C107.445 10.5474 108.224 10.3994 109.078 10.3994L109.134 10.3997C110.322 10.4078 111.385 10.6725 112.324 11.1937C113.278 11.7231 114.027 12.4707 114.57 13.436C115.113 14.4016 115.384 15.515 115.384 16.7762C115.384 18.0376 115.113 19.1549 114.57 20.1281C114.027 21.1013 113.278 21.8528 112.324 22.3822C111.37 22.9116 110.288 23.1762 109.078 23.1762C107.402 23.1762 106.076 22.6157 105.098 21.4945V27.1939C105.098 27.2399 105.089 27.2854 105.072 27.3279C105.054 27.3704 105.029 27.409 104.996 27.4415C104.964 27.4741 104.925 27.4999 104.883 27.5175C104.841 27.5352 104.795 27.5443 104.749 27.5443H102.538C102.493 27.5443 102.447 27.5352 102.405 27.5175C102.362 27.4999 102.324 27.4741 102.292 27.4415C102.259 27.409 102.233 27.3704 102.216 27.3279C102.198 27.2854 102.189 27.2399 102.189 27.1939V10.7549ZM111.393 19.6026C112.084 18.8863 112.429 17.9443 112.429 16.7762C112.429 15.6083 112.084 14.6663 111.393 13.9501C110.703 13.2336 109.823 12.8754 108.752 12.8754C108.054 12.8754 107.425 13.035 106.867 13.3543C106.309 13.6735 105.866 14.129 105.541 14.7207C105.215 15.3123 105.052 15.9976 105.052 16.7762C105.052 17.5548 105.215 18.2399 105.541 18.8318C105.866 19.4235 106.309 19.8791 106.867 20.1982C107.425 20.5174 108.054 20.6771 108.752 20.6771C109.823 20.6771 110.703 20.3189 111.393 19.6026H111.393ZM96.7632 10.7495C96.7633 10.7039 96.7723 10.6587 96.7898 10.6166C96.8073 10.5745 96.8329 10.5362 96.8652 10.504C96.8975 10.4718 96.9357 10.4463 96.9778 10.4289C97.02 10.4115 97.0651 10.4026 97.1106 10.4027H99.3119C99.4039 10.4027 99.4925 10.4392 99.5576 10.5041C99.6228 10.5692 99.6594 10.6573 99.6594 10.7494V10.8027C99.6617 10.8189 99.6628 10.8353 99.6628 10.8521V22.7006C99.6628 22.7462 99.6537 22.7914 99.6362 22.8335C99.6187 22.8756 99.593 22.9139 99.5608 22.9461C99.5285 22.9783 99.4902 23.0038 99.4481 23.0212C99.406 23.0386 99.3608 23.0474 99.3153 23.0473H97.253C97.2074 23.0474 97.1623 23.0385 97.1202 23.0211C97.0781 23.0038 97.0399 22.9782 97.0076 22.9461C96.9753 22.9139 96.9497 22.8756 96.9322 22.8335C96.9147 22.7914 96.9057 22.7462 96.9056 22.7006V21.3084C96.4421 21.8632 95.8628 22.2909 95.1678 22.5913C94.4728 22.8919 93.7234 23.0421 92.9203 23.0421C91.2674 23.0421 89.9659 22.5837 89.016 21.6669C88.066 20.7499 87.5911 19.39 87.5911 17.5869V10.7463C87.5912 10.7006 87.6002 10.6555 87.6177 10.6133C87.6352 10.5712 87.6608 10.533 87.6931 10.5007C87.7254 10.4685 87.7636 10.443 87.8058 10.4256C87.8479 10.4082 87.893 10.3993 87.9385 10.3994H90.1398C90.2318 10.3994 90.3202 10.436 90.3854 10.501C90.4506 10.566 90.4874 10.6543 90.4874 10.7461V17.1938C90.4874 18.3035 90.7384 19.1318 91.2403 19.6788C91.7422 20.226 92.4567 20.4994 93.3836 20.4994C94.4187 20.4994 95.2412 20.1797 95.8513 19.5402C96.4614 18.9008 96.7665 17.9799 96.7665 16.7779V13.179H96.7631V10.7494L96.7632 10.7495Z" fill="#221D3F"/>
<mask id="mask0" mask-type="alpha" maskUnits="userSpaceOnUse" x="0" y="0" width="35" height="35">
<path d="M0 0.0146484H34.4189V34.7323H0V0.0146484Z" fill="white"/>
</mask>
<g mask="url(#mask0)">
<path fill-rule="evenodd" clip-rule="evenodd" d="M33.8384 16.0075C35.0741 19.4729 36.0788 33.7359 17.378 34.7038C-0.52021 35.6301 -6.24737 13.6498 8.08193 3.19422C22.2487 -7.14266 31.8966 10.563 33.8384 16.0075" fill="#DBCCF0"/>
</g>
<mask id="mask1" mask-type="alpha" maskUnits="userSpaceOnUse" x="0" y="1" width="36" height="35">
<path d="M0.318335 1.44849H35.2549V35.0002H0.318335V1.44849Z" fill="white"/>
</mask>
<g mask="url(#mask1)">
<path fill-rule="evenodd" clip-rule="evenodd" d="M27.7671 4.37152C31.0848 5.95174 41.8644 15.3366 29.3736 29.2253C17.4181 42.5184 -2.13837 31.0061 0.57327 13.4886C3.25389 -3.82984 22.5542 1.889 27.7671 4.37152Z" fill="#7032C5"/>
</g>
<path fill-rule="evenodd" clip-rule="evenodd" d="M19.3434 24.3122C19.3139 24.312 19.2846 24.3089 19.2558 24.3028C18.0266 24.0426 15.7982 17.5437 16.3258 15.0168C16.6826 13.3052 17.8792 12.0936 19.4505 11.6651L19.4638 11.6621C17.9657 10.0794 15.598 9.58552 13.2367 10.5449C10.1581 11.7952 8.76405 14.8307 9.92009 17.716C11.0757 20.6009 17.6349 25.5997 19.0385 25.0298C19.2584 24.9403 19.4757 24.663 19.6806 24.2488L19.6795 24.2491L19.6806 24.2488C19.682 24.2461 19.6833 24.2434 19.6845 24.2406C19.6778 24.2428 19.6707 24.2465 19.6646 24.2488C19.5447 24.2911 19.4366 24.3135 19.3434 24.3122Z" fill="white"/>
<path fill-rule="evenodd" clip-rule="evenodd" d="M21.8514 11.6144C20.9904 11.4323 20.1661 11.4596 19.4238 11.6594L19.4269 11.6624C19.8783 12.1391 20.2532 12.7111 20.5207 13.3774C21.4893 15.7922 20.7392 21.9407 19.6437 24.1603C21.2682 23.5631 25.1048 19.2313 25.5804 16.9542C26.1055 14.4429 24.5353 12.1816 21.8514 11.6144" fill="#FFEC7D" fill-opacity="0.8"/>
<path fill-rule="evenodd" clip-rule="evenodd" d="M20.534 13.3542C20.2622 12.683 19.8811 12.1064 19.4224 11.6262C19.4216 11.625 19.4202 11.624 19.4192 11.623C19.4151 11.6242 19.4101 11.625 19.4059 11.6262C17.8167 12.0552 16.6063 13.2684 16.2451 14.9825C15.7116 17.513 17.9655 24.0211 19.2088 24.2816C19.2367 24.2872 19.2662 24.2907 19.2975 24.291C19.392 24.292 19.5011 24.2697 19.6223 24.2272C19.6286 24.225 19.636 24.2215 19.6426 24.2194C20.7558 21.9827 21.5185 15.7874 20.534 13.3542Z" fill="white"/>
<path fill-rule="evenodd" clip-rule="evenodd" d="M20.534 13.3542C20.2622 12.683 19.8811 12.1064 19.4224 11.6262C19.4216 11.625 19.4202 11.624 19.4192 11.623C19.4151 11.6242 19.4101 11.625 19.406 11.6262C17.8167 12.0552 16.6063 13.2684 16.2451 14.9825C15.7116 17.513 17.9655 24.0212 19.2088 24.2816C19.2366 24.2872 19.2662 24.2907 19.2975 24.291C19.3968 24.2923 19.5127 24.2675 19.6419 24.2204C20.7554 21.9846 21.5186 15.788 20.534 13.3542" fill="#FFEC7D"/>
</g>
<defs>
<clipPath id="clip0">
<rect width="115.5" height="35" fill="white"/>
</clipPath>
</defs>
</svg>
