<?xml version="1.0" encoding="utf-8"?>
<!-- Generator: Adobe Illustrator 23.0.2, SVG Export Plug-In . SVG Version: 6.00 Build 0)  -->
<svg version="1.1" id="Layer_1" xmlns="http://www.w3.org/2000/svg" xmlns:xlink="http://www.w3.org/1999/xlink" x="0px" y="0px"
	 viewBox="0 0 140.5 31.5" style="enable-background:new 0 0 140.5 31.5;" xml:space="preserve">
<style type="text/css">
	.st0{fill:#1A171B;}
	.st1{fill:#00AFCB;}
</style>
<g>
	<g>
		<path class="st0" d="M30.8,15.7c0-0.5,0-1.1-0.1-1.6l-11.1,0V20h4.4l-0.3,0.5c-1.7,2.9-4.9,4.8-8.2,4.8c-5.3,0-9.5-4.3-9.5-9.5
			c0-5.2,4.3-9.5,9.5-9.5c3.7,0,7,2.2,8.6,5.4c0.5-2.3,1.4-4.4,2.8-6.3c-2.9-3.2-7-5-11.4-5C6.9,0.3,0,7.2,0,15.7
			c0,8.5,6.9,15.4,15.4,15.4c4.8,0,9.2-2.2,12.2-6c1.1-1.5,2-3.1,2.5-4.9C30.6,18.8,30.8,17.3,30.8,15.7z"/>
		<path class="st0" d="M40.3,0.3c-0.3,0-0.6,0-0.9,0l-0.3,0c-0.2,0-0.4,0-0.6,0.1c-0.1,0-0.2,0-0.2,0l-0.2,0c-0.1,0-0.3,0-0.4,0.1
			l-0.5,0.1c-0.1,0-0.3,0.1-0.4,0.1l-0.5,0.1c-0.1,0-0.2,0.1-0.3,0.1c-0.1,0-0.3,0.1-0.4,0.1c-0.1,0-0.3,0.1-0.4,0.1
			c-0.1,0-0.3,0.1-0.4,0.2c-0.1,0-0.2,0.1-0.4,0.1c-0.1,0.1-0.3,0.1-0.4,0.2c-0.1,0-0.2,0.1-0.3,0.1c-0.2,0.1-0.3,0.2-0.5,0.2
			l-0.3,0.2c-0.1,0.1-0.3,0.2-0.4,0.2l-0.3,0.2c-0.1,0.1-0.3,0.2-0.4,0.3l-0.2,0.1c-0.2,0.1-0.3,0.2-0.5,0.3L31,3.5
			c-0.7,0.5-1.3,1.1-1.9,1.8l-0.3,0.3l0,0c-1.7,2-2.9,4.3-3.5,6.9l6.1,0c0.4-1.1,1-2.1,1.7-2.9c0.3-0.4,0.7-0.7,1-1
			c0.2-0.2,0.4-0.3,0.6-0.5l0.1,0c0.2-0.1,0.3-0.2,0.5-0.4c0.2-0.1,0.4-0.2,0.6-0.3l0.1,0c0.4-0.2,0.8-0.4,1.2-0.5l0.1,0
			c0.2-0.1,0.4-0.1,0.6-0.2l0.1,0c0.2-0.1,0.4-0.1,0.6-0.1l0.1,0c0.2,0,0.5-0.1,0.7-0.1l0.1,0c0.2,0,0.5,0,0.7,0
			c5.2,0,9.5,4.3,9.5,9.5c0,5.3-4.3,9.5-9.5,9.5c-0.2,0-0.4,0-0.7,0l-0.2,0c-0.2,0-0.4,0-0.6-0.1c-0.3,0-0.5-0.1-0.6-0.1l-0.1,0
			c-0.2-0.1-0.4-0.1-0.6-0.2l-0.1,0c-0.2-0.1-0.4-0.1-0.6-0.2l-0.1,0c-0.2-0.1-0.4-0.2-0.6-0.3l-0.1,0c-0.2-0.1-0.4-0.2-0.5-0.3
			l-0.1,0c-0.2-0.1-0.4-0.2-0.6-0.4c-0.2-0.2-0.4-0.3-0.6-0.4c-0.2-0.2-0.4-0.3-0.5-0.5c-0.4-0.3-0.7-0.7-1-1
			c-0.3-0.4-0.6-0.8-0.8-1.2c-0.1-0.1-0.1-0.2-0.2-0.3c-0.1,0.2-0.1,0.4-0.2,0.6c-0.6,1.9-1.5,3.8-2.8,5.4c0.6,0.7,1.3,1.3,2.1,1.9
			l0.1,0.1c0.1,0.1,0.3,0.2,0.4,0.3l0.3,0.2c0.1,0.1,0.3,0.2,0.4,0.3l0.3,0.2c0.1,0.1,0.3,0.2,0.4,0.2c0.1,0.1,0.2,0.1,0.3,0.2
			c0.1,0.1,0.3,0.1,0.4,0.2c0.1,0.1,0.2,0.1,0.3,0.2c0.1,0.1,0.3,0.1,0.4,0.2c0.1,0.1,0.2,0.1,0.4,0.1c0.1,0.1,0.3,0.1,0.4,0.2
			c0.1,0,0.3,0.1,0.4,0.1c0.1,0,0.3,0.1,0.4,0.1c0.1,0,0.2,0.1,0.3,0.1l0.2,0c0.1,0,0.2,0.1,0.3,0.1c0.1,0,0.3,0.1,0.4,0.1l0.1,0
			c0.1,0,0.2,0,0.3,0.1c0.1,0,0.3,0,0.4,0.1l0.2,0c0.1,0,0.2,0,0.2,0c0.2,0,0.4,0,0.6,0.1l0.3,0c0.3,0,0.6,0,0.9,0
			c8.5,0,15.4-6.9,15.4-15.4C55.7,7.2,48.8,0.3,40.3,0.3z"/>
	</g>
	<g>
		<path class="st1" d="M86.1,24c-0.5,0.6-1.3,0.9-2.2,0.9c-1.6,0-3-1.3-3-3V9.5C81,4.3,76.7,0,71.5,0c-2.4,0-4.6,0.9-6.2,2.3
			C63.6,0.9,61.4,0,59,0c-3,0-5.6,1.4-7.3,3.5c2,1.8,3.5,4.1,4.4,6.6V9.5c0-1.6,1.3-3,3-3c1.6,0,3,1.3,3,3V31h6.6V9.5
			c0-1.6,1.3-3,2.9-3c1.6,0,3,1.3,3,3V22c0,5.2,4.3,9.5,9.5,9.5c2.5,0,4.8-1,6.5-2.5C88.6,27.6,87.2,25.9,86.1,24z"/>
		<path class="st1" d="M125.1,0.3c-3.4,0-6.6,1.1-9.2,3c-0.8,0.6-1.5,1.2-2.1,1.9c0.1,0.1,0.1,0.1,0.2,0.2c0.3,0.4,0.5,0.7,0.8,1.1
			l0.6,0.9l-0.8,0.8l-2.9,2.9l-1.7,1.7c-0.2,0.9-0.3,1.8-0.3,2.8c0,3.5,1.2,6.8,3.2,9.4c0.3,0.4,0.6,0.7,0.9,1c2.8,3,6.8,5,11.3,5
			c8.5,0,15.4-6.9,15.4-15.4C140.5,7.2,133.6,0.3,125.1,0.3z M125.1,24.7c-5,0-9-4-9-9c0-5,4-9,9-9c5,0,9,4,9,9
			C134.1,20.7,130,24.7,125.1,24.7z"/>
		<path class="st1" d="M107.8,21.2C107.8,21.2,107.8,21.2,107.8,21.2C107.8,21.2,107.8,21.2,107.8,21.2z"/>
		<path class="st1" d="M106.1,22.9c-0.1,0-0.1,0.1-0.2,0.1C106,23,106.1,22.9,106.1,22.9z"/>
		<path class="st1" d="M107.4,21.7C107.4,21.7,107.4,21.7,107.4,21.7C107.4,21.7,107.4,21.7,107.4,21.7z"/>
		<path class="st1" d="M105.6,23.3c-0.1,0.1-0.2,0.1-0.3,0.2C105.4,23.4,105.5,23.3,105.6,23.3z"/>
		<path class="st1" d="M108.8,19.6C108.8,19.6,108.8,19.6,108.8,19.6c-0.3,0.6-0.6,1.1-1,1.6c0,0,0,0,0,0c-0.1,0.2-0.3,0.3-0.4,0.5
			c0,0,0,0,0,0c-0.4,0.4-0.8,0.8-1.2,1.2c-0.1,0-0.1,0.1-0.2,0.1c-0.1,0.1-0.2,0.2-0.4,0.3c-0.1,0.1-0.2,0.1-0.3,0.2
			c-0.2,0.1-0.3,0.2-0.5,0.3c-0.1,0.1-0.3,0.1-0.4,0.2c-0.1,0-0.2,0.1-0.3,0.1c-0.2,0.1-0.3,0.1-0.5,0.2c-0.1,0-0.1,0-0.2,0.1
			c-0.2,0.1-0.5,0.1-0.8,0.2c-0.1,0-0.1,0-0.2,0c-0.2,0-0.4,0.1-0.6,0.1c-0.1,0-0.1,0-0.2,0c-0.3,0-0.5,0-0.8,0h0c0,0,0,0,0,0
			c-0.3,0-0.6,0-1-0.1c0,0,0,0-0.1,0c-0.3,0-0.6-0.1-0.9-0.1l0,0c-4-0.9-7.1-4.5-7.1-8.8c0-5,4-9,9-9c0.3,0,0.7,0,1,0.1c0,0,0,0,0,0
			c0.3,0,0.6,0.1,0.9,0.2c0,0,0,0,0.1,0c0.3,0.1,0.6,0.1,0.8,0.2c0,0,0,0,0.1,0c0.3,0.1,0.5,0.2,0.8,0.3c0,0,0,0,0,0l0,0l-1,1
			l-9.9,9.9c0.8,2.1,2.4,3.8,4.5,4.5l9.9-9.9l0.8-0.8l0.2-0.2l0,0l1.8-1.8l2.9-2.9c-0.2-0.3-0.5-0.7-0.7-1c-0.3-0.4-0.6-0.7-0.9-1
			c-0.9-0.9-1.8-1.8-2.9-2.5c-2.4-1.6-5.3-2.5-8.4-2.5c-8.5,0-15.4,6.9-15.4,15.4c0,8.5,6.9,15.4,15.4,15.4c4.5,0,8.5-1.9,11.3-5
			c-0.1-0.1-0.1-0.1-0.2-0.2C110.4,24,109.3,21.9,108.8,19.6z"/>
		<path class="st1" d="M106,23c-0.1,0.1-0.2,0.2-0.4,0.3C105.7,23.2,105.8,23.1,106,23z"/>
		<path class="st1" d="M108.8,19.7c-0.3,0.5-0.6,1.1-1,1.5C108.2,20.7,108.5,20.2,108.8,19.7z"/>
		<path class="st1" d="M107.8,21.2c-0.1,0.2-0.3,0.3-0.4,0.5C107.6,21.5,107.7,21.4,107.8,21.2z"/>
		<path class="st1" d="M106.1,22.9c0.5-0.3,0.9-0.7,1.2-1.2C107,22.1,106.6,22.5,106.1,22.9z"/>
	</g>
</g>
</svg>
