<svg width="90" height="20" viewBox="0 0 90 20" fill="none" xmlns="http://www.w3.org/2000/svg">
<g clip-path="url(#clip0)">
<path d="M19.5556 9.96814C19.5556 9.65068 19.5556 9.26973 19.4921 8.95227H12.4444V12.6983H15.2381L15.0476 13.0158C13.9683 14.857 11.9365 16.0634 9.84127 16.0634C6.47619 16.0634 3.80952 13.3332 3.80952 10.0316C3.80952 6.73005 6.53968 3.99989 9.84127 3.99989C12.1905 3.99989 14.2857 5.39671 15.3016 7.42846C15.619 5.96814 16.1905 4.63481 17.0794 3.42846C15.2381 1.39671 12.6349 0.253855 9.84127 0.253855C4.38095 0.190363 0 4.57132 0 9.96814C0 15.365 4.38095 19.7459 9.77778 19.7459C12.8254 19.7459 15.619 18.3491 17.5238 15.9364C18.2222 14.984 18.7937 13.9681 19.1111 12.8253C19.4286 11.9364 19.5556 10.984 19.5556 9.96814Z" fill="#1A171B"/>
<path d="M25.5873 0.19043C25.3968 0.19043 25.2064 0.19043 25.0159 0.19043H24.8254C24.6984 0.19043 24.5714 0.19043 24.4444 0.253922C24.381 0.253922 24.3175 0.253922 24.3175 0.253922H24.1905C24.127 0.253922 24 0.253922 23.9365 0.317414L23.619 0.380906C23.5556 0.380906 23.4286 0.444398 23.3651 0.444398L23.0476 0.50789C22.9841 0.50789 22.9206 0.571382 22.8571 0.571382C22.7937 0.571382 22.6667 0.634874 22.6032 0.634874C22.5397 0.634874 22.4127 0.698366 22.3492 0.698366C22.2857 0.698366 22.1587 0.761858 22.0952 0.82535C22.0317 0.82535 21.9683 0.888842 21.8413 0.888842C21.7778 0.952334 21.6508 0.952334 21.5873 1.01583C21.5238 1.01583 21.4603 1.07932 21.3968 1.07932C21.2698 1.14281 21.2064 1.2063 21.0794 1.2063L20.8889 1.33329C20.8254 1.39678 20.6984 1.46027 20.6349 1.46027L20.4444 1.58726C20.381 1.65075 20.254 1.71424 20.1905 1.77773L20.0635 1.84122C19.9365 1.90472 19.873 1.96821 19.746 2.0317L19.6825 2.22218C19.2381 2.53964 18.8571 2.92059 18.4762 3.36503L18.2857 3.55551C17.2063 4.82535 16.4444 6.28567 16.0635 7.93646H19.9365C20.1905 7.23805 20.5714 6.60313 21.0159 6.09519C21.2063 5.84122 21.4603 5.65075 21.6508 5.46027C21.7778 5.33329 21.9048 5.2698 22.0317 5.14281H22.0952C22.2222 5.07932 22.2857 5.01583 22.4127 4.88884C22.5397 4.82535 22.6667 4.76186 22.7937 4.69837H22.8571C23.1111 4.57138 23.3651 4.4444 23.619 4.38091H23.6825C23.8095 4.31741 23.9365 4.31741 24.0635 4.25392H24.127C24.254 4.19043 24.381 4.19043 24.5079 4.19043H24.5714C24.6984 4.19043 24.8889 4.12694 25.0159 4.12694H25.0794C25.2063 4.12694 25.3968 4.12694 25.5238 4.12694C28.8254 4.12694 31.5556 6.8571 31.5556 10.1587C31.5556 13.5238 28.8254 16.1904 25.5238 16.1904C25.3968 16.1904 25.2698 16.1904 25.0794 16.1904H24.9524C24.8254 16.1904 24.6984 16.1904 24.5714 16.1269C24.381 16.1269 24.254 16.0634 24.1905 16.0634H24.127C24 16 23.873 16 23.746 15.9365H23.6825C23.5556 15.873 23.4286 15.873 23.3016 15.8095H23.2381C23.1111 15.746 22.9841 15.6825 22.8571 15.619H22.7937C22.6667 15.5555 22.5397 15.492 22.4762 15.4285H22.4127C22.2857 15.365 22.1587 15.3015 22.0317 15.1746C21.9048 15.0476 21.7778 14.9841 21.6508 14.9206C21.5238 14.7936 21.3968 14.7301 21.3333 14.6031C21.0794 14.4127 20.8889 14.1587 20.6984 13.9682C20.5079 13.7142 20.3175 13.4603 20.1905 13.2063C20.127 13.1428 20.127 13.0793 20.0635 13.0158C20 13.1428 20 13.2698 19.9365 13.3968C19.5556 14.6031 18.9841 15.8095 18.1587 16.8254C18.5397 17.2698 18.9841 17.6507 19.4921 18.0317L19.5556 18.0952C19.619 18.1587 19.746 18.2222 19.8095 18.2857L20 18.4127C20.0635 18.4761 20.1905 18.5396 20.254 18.6031L20.4444 18.7301C20.5079 18.7936 20.6349 18.8571 20.6984 18.8571C20.7619 18.9206 20.8254 18.9206 20.8889 18.9841C20.9524 19.0476 21.0794 19.0476 21.1429 19.1111C21.2063 19.1746 21.2698 19.1746 21.3333 19.238C21.3968 19.3015 21.5238 19.3015 21.5873 19.365C21.6508 19.4285 21.7143 19.4285 21.8413 19.4285C21.9048 19.492 22.0317 19.492 22.0952 19.5555C22.1587 19.5555 22.2857 19.619 22.3492 19.619C22.4127 19.619 22.5397 19.6825 22.6032 19.6825C22.6667 19.6825 22.7302 19.746 22.7937 19.746H22.9206C22.9841 19.746 23.0476 19.8095 23.1111 19.8095C23.1746 19.8095 23.3016 19.873 23.3651 19.873H23.4286C23.4921 19.873 23.5556 19.873 23.619 19.9365C23.6825 19.9365 23.8095 19.9365 23.873 20H24C24.0635 20 24.127 20 24.127 20C24.254 20 24.381 20 24.5079 20.0634H24.6984C24.8889 20.0634 25.0794 20.0634 25.2698 20.0634C30.6667 20.0634 35.0476 15.6825 35.0476 10.2857C35.3651 4.57138 30.9841 0.19043 25.5873 0.19043Z" fill="#1A171B"/>
<path d="M54.6667 15.2381C54.3492 15.619 53.8413 15.8095 53.2698 15.8095C52.254 15.8095 51.3651 14.9841 51.3651 13.9048V6.03175C51.4286 2.73016 48.6984 0 45.3968 0C43.873 0 42.4762 0.571429 41.4603 1.46032C40.381 0.571429 38.9841 0 37.4603 0C35.5556 0 33.9048 0.888889 32.8254 2.22222C34.0952 3.36508 35.0476 4.8254 35.6191 6.4127V6.03175C35.6191 5.01587 36.4445 4.12698 37.5238 4.12698C38.5397 4.12698 39.4286 4.95238 39.4286 6.03175V19.6825H43.6191V6.03175C43.6191 5.01587 44.4445 4.12698 45.4603 4.12698C46.4762 4.12698 47.3651 4.95238 47.3651 6.03175V13.9683C47.3651 17.2698 50.0952 20 53.3968 20C54.9841 20 56.4444 19.3651 57.5238 18.4127C56.254 17.5238 55.3651 16.4444 54.6667 15.2381Z" fill="#00AFCB"/>
<path d="M79.4286 0.19043C77.2699 0.19043 75.2381 0.888842 73.5873 2.09519C73.0794 2.47614 72.6349 2.8571 72.254 3.30154C72.3175 3.36503 72.3175 3.36503 72.381 3.42852C72.5714 3.68249 72.6984 3.87297 72.8889 4.12694L73.2699 4.69837L72.7619 5.2063L70.9206 7.04757L69.8413 8.12694C69.7143 8.69837 69.6508 9.26979 69.6508 9.90471C69.6508 12.1269 70.4127 14.2222 71.6826 15.873C71.873 16.1269 72.0635 16.3174 72.254 16.5079C74.0318 18.4127 76.5714 19.6825 79.4286 19.6825C84.8254 19.6825 89.2064 15.3015 89.2064 9.90471C89.2064 4.57138 84.8254 0.19043 79.4286 0.19043ZM79.4286 15.6825C76.254 15.6825 73.7143 13.1428 73.7143 9.96821C73.7143 6.7936 76.254 4.25392 79.4286 4.25392C82.6032 4.25392 85.1429 6.7936 85.1429 9.96821C85.1429 13.1428 82.5397 15.6825 79.4286 15.6825Z" fill="#00AFCB"/>
<path d="M67.3651 14.5398C67.3016 14.5398 67.3016 14.6033 67.2381 14.6033C67.3016 14.6033 67.3651 14.5398 67.3651 14.5398Z" fill="#00AFCB"/>
<path d="M67.0476 14.7937C66.9841 14.8572 66.9206 14.8572 66.8571 14.9207C66.9206 14.8572 66.9841 14.7937 67.0476 14.7937Z" fill="#00AFCB"/>
<path d="M69.0794 12.4444C68.8889 12.8254 68.6984 13.1428 68.4445 13.4603C68.381 13.5873 68.254 13.6507 68.1905 13.7777C67.9365 14.0317 67.6825 14.2857 67.4286 14.5396C67.3651 14.5396 67.3651 14.6031 67.3016 14.6031C67.2381 14.6666 67.1746 14.7301 67.0476 14.7936C66.9841 14.8571 66.9206 14.8571 66.8572 14.9206C66.7302 14.9841 66.6667 15.0476 66.5397 15.1111C66.4762 15.1746 66.3492 15.1746 66.2857 15.238C66.2222 15.238 66.1587 15.3015 66.0952 15.3015C65.9683 15.365 65.9048 15.365 65.7778 15.4285C65.7143 15.4285 65.7143 15.4285 65.6508 15.492C65.5238 15.5555 65.3333 15.5555 65.1429 15.619C65.0794 15.619 65.0794 15.619 65.0159 15.619C64.8889 15.619 64.7619 15.6825 64.6349 15.6825C64.5714 15.6825 64.5714 15.6825 64.5079 15.6825C64.3175 15.6825 64.1905 15.6825 64 15.6825C63.8095 15.6825 63.6191 15.6825 63.3651 15.619C63.3651 15.619 63.3651 15.619 63.3016 15.619C63.1111 15.619 62.9206 15.5555 62.7302 15.5555C60.1905 14.9841 58.2222 12.6984 58.2222 9.96821C58.2222 6.7936 60.7619 4.25392 63.9365 4.25392C64.127 4.25392 64.381 4.25392 64.5714 4.31741C64.7619 4.31741 64.9524 4.38091 65.1429 4.4444C65.1429 4.4444 65.1429 4.4444 65.2064 4.4444C65.3968 4.50789 65.5873 4.50789 65.7143 4.57138C65.7143 4.57138 65.7143 4.57138 65.7778 4.57138C65.9683 4.63487 66.0952 4.69837 66.2857 4.76186L65.6508 5.39678L59.3651 11.6825C59.873 13.0158 60.8889 14.0952 62.2222 14.5396L68.5079 8.25392L69.0159 7.74598L69.1429 7.619L70.2857 6.47614L72.127 4.63487C72 4.4444 71.8095 4.19043 71.6826 3.99995C71.4921 3.74599 71.3016 3.55551 71.1111 3.36503C70.5397 2.7936 69.9683 2.22218 69.2699 1.77773C67.746 0.761858 65.9048 0.19043 63.9365 0.19043C58.5397 0.19043 54.1587 4.57138 54.1587 9.96821C54.1587 15.365 58.5397 19.746 63.9365 19.746C66.7937 19.746 69.3333 18.5396 71.1111 16.5714C71.0476 16.5079 71.0476 16.5079 70.9841 16.4444C70.0953 15.238 69.3968 13.9047 69.0794 12.4444Z" fill="#00AFCB"/>
<path d="M67.3016 14.6033C67.2381 14.6668 67.1746 14.7303 67.0476 14.7937C67.1111 14.7303 67.1746 14.6668 67.3016 14.6033Z" fill="#00AFCB"/>
<path d="M69.0794 12.5081C68.8889 12.8255 68.6984 13.2065 68.4445 13.4604C68.6984 13.143 68.8889 12.8255 69.0794 12.5081Z" fill="#00AFCB"/>
<path d="M68.4445 13.4604C68.381 13.5874 68.254 13.6509 68.1905 13.7779C68.3175 13.6509 68.381 13.5874 68.4445 13.4604Z" fill="#00AFCB"/>
<path d="M67.3651 14.5397C67.6825 14.3493 67.9365 14.0953 68.127 13.7778C67.9365 14.0318 67.6825 14.2858 67.3651 14.5397Z" fill="#00AFCB"/>
</g>
<defs>
<clipPath id="clip0">
<rect width="89.2064" height="20" fill="white"/>
</clipPath>
</defs>
</svg>
