<svg width="54" height="45" viewBox="0 0 54 45" fill="none" xmlns="http://www.w3.org/2000/svg">
<g clip-path="url(#clip0)">
<path fill-rule="evenodd" clip-rule="evenodd" d="M43.6954 20.697C48.4337 19.9702 51.6874 15.5262 50.9627 10.7698C50.2386 6.01383 45.8104 2.74823 41.0727 3.47563C36.4042 4.19183 33.1766 8.51663 33.775 13.1926C33.7901 14.153 33.0987 15 32.1265 15.15C31.5448 15.2386 30.9851 15.058 30.5708 14.7012C26.7052 10.7452 21.0642 8.64823 15.1898 9.54963C5.48973 11.0378 -1.1712 20.1362 0.311707 29.8732C1.79442 39.608 10.8596 46.2942 20.5597 44.8058C30.26 43.3176 36.9215 34.2186 35.4388 24.4834C35.2702 23.3762 35.0026 22.3092 34.6481 21.2884C34.6475 21.2848 34.6469 21.2812 34.6461 21.2778C34.4839 20.2116 35.213 19.2162 36.2739 19.0534C36.6806 18.991 37.0765 19.0624 37.4201 19.2318C39.1829 20.4658 41.4029 21.0486 43.6954 20.697Z" fill="#00244E"/>
<path fill-rule="evenodd" clip-rule="evenodd" d="M29.1375 9.00062C31.5591 8.62862 33.2219 6.35842 32.8513 3.92722C32.4813 1.49642 30.2187 -0.17258 27.7972 0.19962C25.3756 0.57102 23.7126 2.84242 24.0828 5.27302C24.4528 7.70362 26.7164 9.37202 29.1375 9.00062Z" fill="#00244E"/>
<path fill-rule="evenodd" clip-rule="evenodd" d="M38.9135 25.0105V24.6169C38.9135 24.4455 38.841 24.3689 38.6702 24.3689H37.1961V24.7735H37.432V26.9567H37.9076V25.9107H38.732V25.5061H37.9076V24.7735H38.4052C38.4596 24.7735 38.4851 24.7991 38.4851 24.8537V25.0105H38.9135Z" fill="#001D37"/>
<path fill-rule="evenodd" clip-rule="evenodd" d="M40.7802 25.9362C40.7802 25.681 40.7076 25.4696 40.5624 25.3056C40.4171 25.138 40.2175 25.054 39.9594 25.054C39.6798 25.054 39.4547 25.1452 39.2767 25.3274C39.1026 25.506 39.0155 25.7394 39.0155 26.0272C39.0155 26.3006 39.1062 26.5302 39.2913 26.7198C39.4766 26.9056 39.7163 27.0004 40.014 27.0004C40.3081 27.0004 40.5951 26.8692 40.7584 26.7344L40.5769 26.4028C40.3844 26.5374 40.2065 26.6068 40.0467 26.6068C39.7526 26.6068 39.5164 26.4246 39.4876 26.1148H40.7656C40.7766 26.0564 40.7802 25.9982 40.7802 25.9362ZM39.5019 25.7976C39.5455 25.5608 39.7163 25.404 39.9486 25.404C40.1629 25.404 40.3153 25.5534 40.3191 25.7976H39.5019Z" fill="#001D37"/>
<path fill-rule="evenodd" clip-rule="evenodd" d="M41.652 26.9567V26.2203C41.652 26.1001 41.6665 26.0017 41.6918 25.9179C41.7755 25.6591 41.9788 25.5279 42.1966 25.5279C42.2366 25.5279 42.2767 25.5317 42.3093 25.5353V25.0797L42.2221 25.0723C41.9497 25.0723 41.7245 25.2727 41.6339 25.5497H41.6267L41.6339 25.4331V25.3237C41.6339 25.1743 41.5539 25.0979 41.3906 25.0979H40.9657V25.4915H41.111C41.1654 25.4915 41.1907 25.5171 41.1907 25.5717V26.9567H41.652Z" fill="#001D37"/>
<path fill-rule="evenodd" clip-rule="evenodd" d="M43.0431 26.9055C43.1919 26.9639 43.2971 26.9747 43.4242 26.9747C43.4824 26.9747 43.5297 26.9711 43.5695 26.9639V26.5593L43.486 26.5665C43.3916 26.5665 43.3045 26.5411 43.2282 26.4935C43.1521 26.4427 43.1156 26.3515 43.1156 26.2167V25.4659H43.5368V25.0977H43.1156V24.5911H42.6691V25.0977H42.4148V25.4659H42.6545V26.2749C42.6545 26.6505 42.836 26.8253 43.0431 26.9055Z" fill="#001D37"/>
<path fill-rule="evenodd" clip-rule="evenodd" d="M44.1906 26.9567H44.63V26.5667H44.4847C44.4303 26.5667 44.4048 26.5411 44.4048 26.4865V25.3457C44.4048 25.1743 44.3323 25.0979 44.1615 25.0979H43.7221V25.4915H43.8674C43.9218 25.4915 43.9473 25.5171 43.9473 25.5717V26.7089C43.9473 26.8837 44.02 26.9567 44.1906 26.9567Z" fill="#001D37"/>
<path fill-rule="evenodd" clip-rule="evenodd" d="M43.969 24.7953H44.3685V24.3689H43.969V24.7953Z" fill="#001D37"/>
<path fill-rule="evenodd" clip-rule="evenodd" d="M45.1675 26.9567H45.6069V26.5667H45.4616C45.4072 26.5667 45.3817 26.5411 45.3817 26.4865V24.6167C45.3817 24.4455 45.3092 24.3689 45.1384 24.3689H44.6991V24.7625H44.8443C44.8987 24.7625 44.9242 24.7881 44.9242 24.8427V26.7089C44.9242 26.8837 44.9968 26.9567 45.1675 26.9567Z" fill="#001D37"/>
<path fill-rule="evenodd" clip-rule="evenodd" d="M45.8612 25.1197H46.1735L46.4423 24.3215H46.0318L45.8612 25.1197Z" fill="#001D37"/>
<path fill-rule="evenodd" clip-rule="evenodd" d="M48.1708 26.7562L48.0692 26.4828L47.9929 26.534C47.8912 26.6068 47.6732 26.6942 47.4845 26.6942C47.1542 26.6942 46.9617 26.4974 46.9617 26.2096C46.9617 26.1622 46.9653 26.1184 46.9762 26.0782H48.3161L48.327 26.031C48.3451 25.9688 48.3705 25.8414 48.3705 25.7502C48.3705 25.3384 48.1274 25.0686 47.6732 25.0686C47.372 25.0686 47.1177 25.1816 46.9109 25.4076C46.7038 25.6336 46.6022 25.9034 46.6022 26.2168C46.6022 26.4464 46.6783 26.6358 46.8345 26.7818C46.9906 26.9274 47.1976 27.0004 47.4628 27.0004C47.5826 27.0004 47.7023 26.9786 47.8259 26.9348C47.9494 26.8874 48.0329 26.851 48.0728 26.8254C48.1128 26.8 48.1455 26.7744 48.1708 26.7562ZM47.6625 25.3492C47.8767 25.3492 48.0184 25.4842 48.0184 25.721C48.0184 25.7538 48.0146 25.7904 48.0074 25.8268H47.0306C47.136 25.5316 47.3865 25.3492 47.6625 25.3492Z" fill="#001D37"/>
<path fill-rule="evenodd" clip-rule="evenodd" d="M49.8342 26.9566H50.1428L50.2046 26.654H50.052C50.0085 26.654 49.9868 26.6358 49.9868 26.5994C49.9868 26.5812 49.9904 26.5556 50.0012 26.5228L50.1357 25.8048C50.1538 25.7138 50.161 25.6444 50.161 25.5898C50.161 25.2582 49.9577 25.0686 49.5255 25.0686C49.3547 25.0686 49.1987 25.0978 49.0606 25.1524C48.9263 25.207 48.8464 25.291 48.8211 25.4112L48.7847 25.597H49.1188L49.137 25.4914C49.1515 25.3966 49.2677 25.3492 49.4819 25.3492C49.6999 25.3492 49.8089 25.4404 49.8089 25.6226C49.8089 25.67 49.8051 25.7174 49.7943 25.7648L49.7869 25.8084H49.6961C49.3803 25.8084 49.1043 25.8558 48.861 25.9616C48.6177 26.0636 48.4652 26.2568 48.4652 26.5154C48.4652 26.8254 48.694 27.0004 48.9991 27.0004C49.4456 27.0004 49.6672 26.6066 49.6636 26.6066H49.6708C49.6453 26.6832 49.6345 26.7524 49.6345 26.8072C49.6345 26.9056 49.6999 26.9566 49.8342 26.9566ZM49.5038 26.5338C49.3838 26.6612 49.2495 26.727 49.1007 26.727C48.9299 26.727 48.8211 26.6248 48.8211 26.4646C48.8211 26.3006 48.9373 26.1876 49.1224 26.1328C49.3077 26.0782 49.4637 26.0636 49.6491 26.0636H49.7397L49.7252 26.1292C49.6999 26.2676 49.6236 26.4026 49.5038 26.5338Z" fill="#001D37"/>
<path fill-rule="evenodd" clip-rule="evenodd" d="M51.7735 25.1744C51.6392 25.1052 51.4904 25.0688 51.3196 25.0688C51.1199 25.0688 50.9527 25.116 50.8113 25.2146C50.6732 25.313 50.6042 25.4478 50.6042 25.6226C50.6042 25.7794 50.6624 25.8996 50.7786 25.9872C50.8948 26.071 50.9673 26.1113 51.1235 26.1695C51.2688 26.2279 51.3196 26.2461 51.3887 26.3225C51.425 26.3627 51.4431 26.4064 51.4431 26.4575C51.4431 26.6141 51.2941 26.7125 51.0801 26.7125C50.8693 26.7125 50.7132 26.6215 50.6188 26.5449C50.5498 26.4829 50.5425 26.4683 50.5317 26.4537L50.3538 26.6869L50.3791 26.7199C50.4444 26.8037 50.6841 27.0005 51.0763 27.0005C51.2905 27.0005 51.4684 26.9459 51.6029 26.8401C51.7408 26.7309 51.8098 26.5923 51.8098 26.4246C51.8098 26.275 51.759 26.1584 51.6464 26.082C51.5412 25.9982 51.4684 25.9654 51.3196 25.907C51.316 25.9034 51.305 25.8997 51.2941 25.8961C51.1381 25.8343 51.0908 25.8196 51.0145 25.7358C50.9783 25.6956 50.9601 25.6482 50.9601 25.5972C50.9601 25.4514 51.0982 25.3494 51.3124 25.3494C51.5121 25.3494 51.6247 25.4296 51.6065 25.5316L51.5956 25.6008H51.9042L51.9333 25.4696C51.9586 25.342 51.908 25.2438 51.7735 25.1744Z" fill="#001D37"/>
<path fill-rule="evenodd" clip-rule="evenodd" d="M52.9721 27.0004C53.0919 27.0004 53.2118 26.9786 53.3352 26.9346C53.4587 26.8874 53.5422 26.8508 53.5823 26.8254C53.6221 26.8 53.6548 26.7744 53.6801 26.7562L53.5785 26.4828L53.5022 26.5338C53.4005 26.6068 53.1827 26.6942 52.9938 26.6942C52.6635 26.6942 52.471 26.4974 52.471 26.2094C52.471 26.1622 52.4746 26.1182 52.4855 26.0782H53.8254L53.8363 26.0308C53.8545 25.9688 53.88 25.8414 53.88 25.7502C53.88 25.3384 53.6367 25.0686 53.1827 25.0686C52.8813 25.0686 52.6272 25.1816 52.4202 25.4076C52.2131 25.6336 52.1115 25.9034 52.1115 26.2168C52.1115 26.4462 52.1878 26.6358 52.3439 26.7818C52.5001 26.9274 52.7071 27.0004 52.9721 27.0004ZM53.1718 25.3492C53.386 25.3492 53.5277 25.4842 53.5277 25.721C53.5277 25.7538 53.5241 25.7904 53.5167 25.8268H52.5399C52.6453 25.5316 52.8958 25.3492 53.1718 25.3492Z" fill="#001D37"/>
<path fill-rule="evenodd" clip-rule="evenodd" d="M38.8841 28.5786C38.7243 28.5786 38.6699 28.6152 38.5826 28.7646L37.9836 29.825C37.9472 29.8908 37.9109 29.9708 37.8746 30.0694H37.8675L37.8491 29.825L37.6604 28.7754C37.6349 28.6442 37.5622 28.5786 37.4353 28.5786H37.2535L37.1956 28.8812H37.2428C37.2936 28.8812 37.3227 28.9102 37.3336 28.965L37.6094 30.4228H38.0163L38.8624 28.954C38.8913 28.9066 38.9313 28.8812 38.9857 28.8812H39.033L39.0909 28.5786H38.8841Z" fill="#001D37"/>
<path fill-rule="evenodd" clip-rule="evenodd" d="M40.217 28.5349C39.9084 28.5349 39.6398 28.6441 39.4036 28.8629C39.1713 29.0779 39.0549 29.3439 39.0549 29.6539C39.0549 29.8943 39.135 30.0911 39.2911 30.2407C39.4509 30.3901 39.6543 30.4667 39.9048 30.4667C40.2099 30.4667 40.4785 30.3573 40.7146 30.1385C40.9505 29.9199 41.0667 29.6539 41.0667 29.3403C41.0667 29.1035 40.987 28.9103 40.8308 28.7609C40.6745 28.6115 40.4677 28.5349 40.217 28.5349ZM40.4677 29.9271C40.3115 30.0839 40.1335 30.1603 39.9375 30.1603C39.6288 30.1603 39.4146 29.9491 39.4146 29.6391C39.4146 29.4169 39.4945 29.2311 39.6505 29.0743C39.8103 28.9175 39.9919 28.8411 40.1917 28.8411C40.4966 28.8411 40.7074 29.0525 40.7074 29.3587C40.7074 29.5809 40.6273 29.7705 40.4677 29.9271Z" fill="#001D37"/>
<path fill-rule="evenodd" clip-rule="evenodd" d="M42.131 28.072H41.7861L41.6881 28.5786H41.4412L41.3866 28.863H41.6263L41.4557 29.734C41.4448 29.807 41.4374 29.8688 41.4374 29.9198C41.4374 30.3536 41.8114 30.441 42.022 30.441C42.0729 30.441 42.1165 30.4374 42.1492 30.4302L42.2109 30.1168L42.1201 30.124C41.9095 30.124 41.8043 30.0292 41.8043 29.836C41.8043 29.7886 41.8078 29.7412 41.8186 29.6938L41.9784 28.863H42.418L42.476 28.5786H42.033L42.131 28.072Z" fill="#001D37"/>
<path fill-rule="evenodd" clip-rule="evenodd" d="M43.8416 28.5566C43.5546 28.5566 43.2968 28.7716 43.1625 29.0486H43.1553C43.2023 28.9138 43.2243 28.8118 43.2243 28.7352C43.2243 28.6294 43.1589 28.5784 43.0244 28.5784H42.6868L42.6287 28.881H42.7739C42.8283 28.881 42.8502 28.9066 42.8393 28.9612L42.5597 30.4228H42.912L43.0463 29.7192C43.09 29.4896 43.1806 29.3002 43.3151 29.1434C43.4494 28.9866 43.6019 28.9066 43.7688 28.9066C43.8125 28.9066 43.8452 28.9102 43.8633 28.9138L43.936 28.564C43.9033 28.5602 43.8705 28.5566 43.8416 28.5566Z" fill="#001D37"/>
<path fill-rule="evenodd" clip-rule="evenodd" d="M44.9818 28.5349C44.6804 28.5349 44.4263 28.6479 44.2193 28.8739C44.0122 29.0999 43.9106 29.3695 43.9106 29.6831C43.9106 29.9125 43.9869 30.1021 44.143 30.2479C44.2992 30.3937 44.5062 30.4667 44.7712 30.4667C44.891 30.4667 45.0109 30.4447 45.1345 30.4011C45.2578 30.3537 45.3413 30.3171 45.3814 30.2917C45.4212 30.2661 45.4539 30.2407 45.4792 30.2225L45.3776 29.9491L45.3015 30.0001C45.1996 30.0729 44.9818 30.1603 44.7931 30.1603C44.4626 30.1603 44.2701 29.9637 44.2701 29.6757C44.2701 29.6283 44.2739 29.5847 44.2846 29.5445H45.6247L45.6354 29.4971C45.6536 29.4351 45.6791 29.3077 45.6791 29.2165C45.6791 28.8047 45.4358 28.5349 44.9818 28.5349ZM45.3158 29.2931H44.339C44.4444 28.9977 44.6949 28.8155 44.9709 28.8155C45.1851 28.8155 45.3268 28.9505 45.3268 29.1873C45.3268 29.2201 45.3232 29.2565 45.3158 29.2931Z" fill="#001D37"/>
<path fill-rule="evenodd" clip-rule="evenodd" d="M47.3935 28.5786H47.0558L46.9978 28.8812H47.1466C47.1901 28.8812 47.212 28.8994 47.212 28.9358C47.212 28.954 47.2084 28.9794 47.201 29.016L46.9794 30.164C46.9723 30.1896 46.9687 30.2224 46.9687 30.2552C46.9687 30.3682 47.0376 30.4228 47.1719 30.4228H47.5097L47.5641 30.1202H47.4188C47.3718 30.1202 47.3499 30.1022 47.3499 30.0656C47.3499 30.062 47.3537 30.0438 47.3608 30.0074L47.5822 28.852C47.5932 28.7972 47.5968 28.7608 47.5968 28.739C47.5968 28.6332 47.5278 28.5786 47.3935 28.5786Z" fill="#001D37"/>
<path fill-rule="evenodd" clip-rule="evenodd" d="M47.3608 28.2178H47.6804L47.7529 27.8496H47.4335L47.3608 28.2178Z" fill="#001D37"/>
<path fill-rule="evenodd" clip-rule="evenodd" d="M49.754 27.8496H49.4162L49.3582 28.1522H49.5035C49.5469 28.1522 49.5688 28.1704 49.5688 28.2068C49.5688 28.225 49.5653 28.2542 49.5579 28.287L49.4744 28.728C49.467 28.7718 49.4634 28.8156 49.4598 28.8592H49.4525C49.3764 28.6514 49.1584 28.5348 48.9079 28.5348C48.6427 28.5348 48.4068 28.6478 48.2071 28.8702C48.0072 29.0924 47.9056 29.3696 47.9056 29.7084C47.9056 30.175 48.1599 30.4666 48.5955 30.4666C48.8752 30.4666 49.1076 30.317 49.2492 30.0984H49.2564C49.2347 30.1676 49.2237 30.226 49.2237 30.2734C49.2237 30.3718 49.2891 30.4228 49.4198 30.4228H49.7249L49.7866 30.1204H49.6378C49.5942 30.1204 49.5724 30.1022 49.5724 30.0656C49.5724 30.0402 49.576 30.0146 49.5834 29.9854L49.9464 28.1194C49.9572 28.072 49.961 28.0356 49.961 28.01C49.961 27.9042 49.892 27.8496 49.754 27.8496ZM49.1548 29.898C49.0241 30.073 48.8643 30.1604 48.6718 30.1604C48.4213 30.1604 48.2615 29.9818 48.2615 29.6792C48.2615 29.4352 48.3304 29.2382 48.4721 29.0816C48.6138 28.9248 48.7698 28.8446 48.9442 28.8446C49.2165 28.8446 49.3509 29.0414 49.3509 29.3148C49.3509 29.5298 49.2855 29.723 49.1548 29.898Z" fill="#001D37"/>
<path fill-rule="evenodd" clip-rule="evenodd" d="M51.8494 27.8462H51.4828L51.1305 28.309H51.4174L51.8494 27.8462Z" fill="#001D37"/>
<path fill-rule="evenodd" clip-rule="evenodd" d="M51.1995 28.5349C50.898 28.5349 50.644 28.6479 50.437 28.8739C50.2299 29.0999 50.1283 29.3695 50.1283 29.6831C50.1283 29.9125 50.2046 30.1021 50.3606 30.2479C50.5169 30.3937 50.7237 30.4667 50.9889 30.4667C51.1087 30.4667 51.2284 30.4447 51.352 30.4011C51.4755 30.3537 51.559 30.3171 51.5989 30.2917C51.6389 30.2661 51.6716 30.2407 51.6971 30.2225L51.5953 29.9491L51.5192 30.0001C51.4173 30.0729 51.1995 30.1603 51.0106 30.1603C50.6803 30.1603 50.4878 29.9637 50.4878 29.6757C50.4878 29.6283 50.4914 29.5847 50.5023 29.5445H51.8424L51.8567 29.4971C51.8748 29.4351 51.8968 29.3077 51.8968 29.2165C51.8968 28.8047 51.6535 28.5349 51.1995 28.5349ZM51.5337 29.2931H50.5567C50.6621 28.9977 50.9126 28.8155 51.1886 28.8155C51.4028 28.8155 51.5445 28.9505 51.5445 29.1873C51.5445 29.2201 51.5409 29.2565 51.5337 29.2931Z" fill="#001D37"/>
<path fill-rule="evenodd" clip-rule="evenodd" d="M53.1896 28.5349C52.8882 28.5349 52.6341 28.6479 52.4271 28.8739C52.22 29.0999 52.1184 29.3695 52.1184 29.6831C52.1184 29.9125 52.1947 30.1021 52.3508 30.2479C52.507 30.3937 52.714 30.4667 52.979 30.4667C53.0988 30.4667 53.2187 30.4447 53.3423 30.4011C53.4656 30.3537 53.5491 30.3171 53.5892 30.2917C53.629 30.2661 53.6617 30.2407 53.6872 30.2225L53.5854 29.9491L53.5093 30.0001C53.4074 30.0729 53.1896 30.1603 53.0009 30.1603C52.6704 30.1603 52.4779 29.9637 52.4779 29.6757C52.4779 29.6283 52.4817 29.5847 52.4924 29.5445H53.8325L53.8432 29.4971C53.8614 29.4351 53.8869 29.3077 53.8869 29.2165C53.8869 28.8047 53.6436 28.5349 53.1896 28.5349ZM53.5238 29.2931H52.5468C52.6522 28.9977 52.9027 28.8155 53.1787 28.8155C53.3929 28.8155 53.5346 28.9505 53.5346 29.1873C53.5346 29.2201 53.531 29.2565 53.5238 29.2931Z" fill="#001D37"/>
<path fill-rule="evenodd" clip-rule="evenodd" d="M8.44596 25.0284C8.44596 25.1126 8.44596 25.185 8.45791 25.2574H8.434L8.38598 25.1488C8.218 24.8838 7.72582 24.2334 6.42982 24.2214C5.6258 24.2214 4.9778 24.4984 4.50974 25.0646C4.04167 25.6306 3.80176 26.3654 3.80176 27.2808C3.80176 28.1962 4.04167 28.943 4.53365 29.5212C5.02582 30.0994 5.68578 30.3886 6.4898 30.3886C7.38987 30.3886 8.02591 30.0392 8.39793 29.3406H8.42205L8.39793 29.7742V30.3042C8.39793 31.593 7.54589 32.2074 6.28576 32.2074C5.69774 32.2074 5.15774 32.0628 4.6538 31.7858L4.34176 32.4724C4.9778 32.7976 5.63776 32.9542 6.32182 32.9542C7.1378 32.9542 7.82187 32.7372 8.37402 32.2916C8.93793 31.846 9.21391 31.1834 9.21391 30.28V25.3416C9.21391 25.161 9.298 25.0766 9.47793 25.0766H9.98207V24.3658H9.14198C8.67391 24.3658 8.44596 24.5826 8.44596 25.0284ZM6.62191 29.6538C5.42176 29.6538 4.64165 28.7142 4.64165 27.2688C4.64165 25.8234 5.34982 24.9562 6.51391 24.9562C7.786 24.9562 8.42205 25.727 8.42205 27.2808C8.42205 28.931 7.678 29.6538 6.62191 29.6538Z" fill="white"/>
<path fill-rule="evenodd" clip-rule="evenodd" d="M12.418 25.9199H12.3941L12.418 25.4623V25.0527C12.418 24.5949 12.1781 24.3661 11.6859 24.3661H10.858V25.0767H11.3619C11.542 25.0767 11.6259 25.1611 11.6259 25.3417V30.4249H12.4421V27.8713C12.4421 27.4255 12.4899 27.0281 12.5981 26.6907C12.8861 25.7633 13.5341 25.1249 14.3502 25.1249C14.458 25.1249 14.5541 25.1369 14.6621 25.1491V24.3419L14.3261 24.3059C13.4261 24.3059 12.742 24.9563 12.418 25.9199Z" fill="white"/>
<path fill-rule="evenodd" clip-rule="evenodd" d="M18.4784 24.2214C17.5903 24.2214 16.8343 24.5226 16.2223 25.1248C15.6102 25.727 15.2982 26.474 15.2982 27.3652C15.2982 28.2686 15.6102 29.0396 16.2223 29.6538C16.8343 30.268 17.5903 30.5692 18.4784 30.5692C19.3665 30.5692 20.1225 30.268 20.7346 29.6538C21.3466 29.0396 21.6586 28.2686 21.6586 27.3652C21.6586 26.474 21.3466 25.727 20.7346 25.1248C20.1225 24.5226 19.3665 24.2214 18.4784 24.2214ZM20.1464 29.1238C19.6905 29.5936 19.1383 29.8344 18.4784 29.8344C17.8184 29.8344 17.2663 29.5936 16.8104 29.1238C16.3542 28.654 16.1263 28.0638 16.1263 27.3652C16.1263 26.6786 16.3542 26.1126 16.8104 25.6548C17.2663 25.185 17.8184 24.9562 18.4784 24.9562C19.1383 24.9562 19.6905 25.185 20.1464 25.6548C20.6025 26.1126 20.8305 26.6786 20.8305 27.3652C20.8305 28.0638 20.6025 28.654 20.1464 29.1238Z" fill="white"/>
<path fill-rule="evenodd" clip-rule="evenodd" d="M30.8151 25.0406L29.5791 28.883C29.5069 29.0878 29.447 29.3046 29.3989 29.5334H29.375L29.1949 28.883L27.7068 24.3902H26.9028L25.4147 28.883C25.3547 29.0756 25.2828 29.2926 25.2228 29.5334H25.1987L25.0307 28.883L23.7827 25.0406C23.6026 24.4744 23.4227 24.366 22.8347 24.366H22.4146V25.0766H22.5826C22.7866 25.0766 22.9305 25.1732 22.9907 25.3536L24.7187 30.4248H25.6307L27.0949 26.1126C27.1668 25.9078 27.2268 25.691 27.287 25.4622H27.3109L27.491 26.1126L28.9669 30.4248H29.879L31.6072 25.3536C31.6671 25.1732 31.811 25.0766 32.0151 25.0766H32.1832V24.366H31.7632C31.1752 24.366 30.995 24.4744 30.8151 25.0406Z" fill="white"/>
<path fill-rule="evenodd" clip-rule="evenodd" d="M41.6803 9.62063V13.105C41.6803 14.0432 41.0929 14.624 40.1759 14.624C39.2501 14.624 38.6714 14.0522 38.6714 13.114V9.62063C38.6714 9.21863 38.4935 9.04883 38.093 9.04883H37.2027V9.81703H37.5855C37.719 9.81703 37.7813 9.87963 37.7813 10.0136V13.1498C37.7813 13.8376 38.0039 14.4006 38.4401 14.8294C38.8852 15.2494 39.4639 15.4638 40.1848 15.4638C40.897 15.4638 41.4756 15.2494 41.9116 14.8294C42.3478 14.4006 42.5704 13.8376 42.5704 13.1498V10.0136C42.5704 9.87963 42.6328 9.81703 42.7663 9.81703H43.149V9.04883H42.25C41.8495 9.04883 41.6803 9.21863 41.6803 9.62063Z" fill="white"/>
<path fill-rule="evenodd" clip-rule="evenodd" d="M47.8669 9.59383C47.5019 9.22743 47.0213 9.04883 46.4426 9.04883H43.6743V9.81723H44.2527V15.3566H45.143V13.0246H46.4426C47.0213 13.0246 47.5019 12.837 47.8669 12.4708C48.232 12.1044 48.4187 11.622 48.4187 11.0234C48.4187 10.4248 48.232 9.95123 47.8669 9.59383ZM46.3001 12.2564H45.143V9.81723H46.3091C47.0569 9.81723 47.5019 10.273 47.5019 11.0234C47.5019 11.7828 47.048 12.2564 46.3001 12.2564Z" fill="white"/>
</g>
<defs>
<clipPath id="clip0">
<rect width="54" height="45" fill="white"/>
</clipPath>
</defs>
</svg>
