<svg width="111" height="35" viewBox="0 0 111 35" fill="none" xmlns="http://www.w3.org/2000/svg">
<g clip-path="url(#clip0)">
<path d="M17.2125 35C26.7187 35 34.4251 27.165 34.4251 17.5C34.4251 7.83502 26.7187 0 17.2125 0C7.70631 0 0 7.83502 0 17.5C0 27.165 7.70631 35 17.2125 35Z" fill="#FD1015"/>
<path fill-rule="evenodd" clip-rule="evenodd" d="M20.9515 21.9594C20.9365 22.0608 20.8504 22.1386 20.7465 22.1386C20.7436 22.1386 20.7408 22.1385 20.738 22.1384V22.1386H13.2723C13.1578 22.1386 13.0649 22.0442 13.0649 21.9277H13.0564C12.951 20.629 11.8809 19.6085 10.5764 19.6085C9.27182 19.6085 8.20172 20.629 8.09634 21.9277H8.09623C8.09623 21.9282 8.09623 21.9286 8.09623 21.929C8.09543 21.9389 8.09469 21.9488 8.09401 21.9588C8.07925 22.0605 7.99302 22.1386 7.88886 22.1386C7.88604 22.1386 7.88323 22.1385 7.88044 22.1384V22.1386H7.2583C7.14377 22.1386 7.05092 22.0442 7.05092 21.9277V21.5061C7.05092 21.3896 7.14377 21.2952 7.2583 21.2952L7.2583 18.5542C7.2583 18.4378 7.35115 18.3434 7.46568 18.3434H23.4361C24.5446 18.3434 25.5401 18.8349 26.2234 19.6152C26.2748 19.6739 26.3396 19.7561 26.4176 19.8617C26.4959 19.9678 26.6188 20.0302 26.7492 20.0302V20.0301H26.9674C27.1209 20.0301 27.3261 20.0301 27.5829 20.0302C27.8113 20.0309 27.9963 20.2194 27.9963 20.4518V21.7169C27.9963 21.9498 27.8106 22.1386 27.5815 22.1386H26.1299V22.1384C26.1271 22.1385 26.1243 22.1386 26.1215 22.1386C26.0169 22.1386 25.9304 22.0598 25.9162 21.9575C25.9156 21.9484 25.9149 21.9394 25.9142 21.9304C25.9142 21.9295 25.9142 21.9286 25.9142 21.9277H25.914C25.8086 20.629 24.7385 19.6085 23.4339 19.6085C22.1294 19.6085 21.0593 20.629 20.9539 21.9277H20.9538C20.9538 21.928 20.9538 21.9282 20.9538 21.9284C20.953 21.9387 20.9522 21.949 20.9515 21.9594ZM27.5815 18.9759C27.5815 19.0924 27.4887 19.1868 27.3741 19.1868H27.0481C26.9889 19.1868 26.9325 19.1611 26.8931 19.1161L26.8931 19.1161C26.7571 18.9606 26.6494 18.8447 26.57 18.7683C25.7529 17.9822 24.6499 17.5 23.4361 17.5H7.46568C7.35115 17.5 7.2583 17.4056 7.2583 17.2892L7.2583 12.3841C7.2583 11.4379 7.94394 10.6363 8.86561 10.5049C11.65 10.1081 14.2713 9.90967 16.7295 9.90967C21.1186 9.90967 22.8251 10.2649 24.4708 11.1747C25.473 11.7288 26.4248 13.0668 27.3264 15.1886C27.4947 15.5847 27.5815 16.0115 27.5815 16.4429V18.9759ZM7.2583 17.7109H7.2583V18.1326H7.2583V17.7109ZM8.50258 12.2289C8.38804 12.2289 8.2952 12.3233 8.2952 12.4398V15.6024C8.2952 15.7189 8.38804 15.8133 8.50258 15.8133H11.6133C11.7278 15.8133 11.8207 15.7189 11.8207 15.6024V12.4398C11.8207 12.3233 11.7278 12.2289 11.6133 12.2289H8.50258ZM17.2125 12.2289C17.098 12.2289 17.0051 12.3233 17.0051 12.4398V15.6024C17.0051 15.7189 17.098 15.8133 17.2125 15.8133H20.3232C20.4378 15.8133 20.5306 15.7189 20.5306 15.6024V12.4398C20.5306 12.3233 20.4378 12.2289 20.3232 12.2289H17.2125ZM12.8576 12.2289C12.743 12.2289 12.6502 12.3233 12.6502 12.4398V15.6024C12.6502 15.7189 12.743 15.8133 12.8576 15.8133H15.9683C16.0828 15.8133 16.1756 15.7189 16.1756 15.6024V12.4398C16.1756 12.3233 16.0828 12.2289 15.9683 12.2289H12.8576ZM21.5675 12.2289C21.453 12.2289 21.3601 12.3233 21.3601 12.4398V15.6024C21.3601 15.7189 21.453 15.8133 21.5675 15.8133H26.3497C26.3751 15.8133 26.4003 15.8085 26.424 15.7993C26.5309 15.7575 26.5843 15.6356 26.5433 15.5269L26.5433 15.5269C26.316 14.925 26.0533 14.3715 25.7552 13.8662C25.7104 13.7903 25.6692 13.715 25.6316 13.6404C25.1953 12.774 24.3185 12.2289 23.3611 12.2289L21.5675 12.2289V12.2289ZM10.5764 23.8253C9.66011 23.8253 8.91734 23.0701 8.91734 22.1386C8.91734 21.207 9.66011 20.4518 10.5764 20.4518C11.4926 20.4518 12.2354 21.207 12.2354 22.1386C12.2354 23.0701 11.4926 23.8253 10.5764 23.8253ZM10.5764 22.982C11.0345 22.982 11.4059 22.6044 11.4059 22.1386C11.4059 21.6728 11.0345 21.2952 10.5764 21.2952C10.1182 21.2952 9.74686 21.6728 9.74686 22.1386C9.74686 22.6044 10.1182 22.982 10.5764 22.982ZM23.4339 23.8253C22.5177 23.8253 21.7749 23.0701 21.7749 22.1386C21.7749 21.207 22.5177 20.4518 23.4339 20.4518C24.3502 20.4518 25.093 21.207 25.093 22.1386C25.093 23.0701 24.3502 23.8253 23.4339 23.8253ZM23.4339 22.982C23.8921 22.982 24.2634 22.6044 24.2634 22.1386C24.2634 21.6728 23.8921 21.2952 23.4339 21.2952C22.9758 21.2952 22.6044 21.6728 22.6044 22.1386C22.6044 22.6044 22.9758 22.982 23.4339 22.982Z" fill="white"/>
<path fill-rule="evenodd" clip-rule="evenodd" d="M45.2103 16.8484H49.7186C49.3305 15.9756 48.4672 15.3683 47.4644 15.3683C46.4617 15.3683 45.5984 15.9756 45.2103 16.8484ZM52.0166 18.7726C51.9663 18.8611 51.8723 18.9206 51.7646 18.9206H45.2103C45.5984 19.7934 46.4617 20.4007 47.4644 20.4007C47.9457 20.4007 48.3948 20.2609 48.7746 20.0189C48.8593 19.965 48.9661 19.8809 49.0951 19.7666C49.1978 19.6756 49.3363 19.6386 49.4697 19.6665L51.1757 20.0241C51.333 20.0571 51.4343 20.2137 51.4019 20.3738C51.3948 20.4091 51.3814 20.4427 51.3623 20.4731C51.3449 20.5009 51.3288 20.5259 51.3141 20.5479C50.8916 21.1789 50.3233 21.7006 49.6585 22.0628C49.0048 22.419 48.2578 22.6209 47.4644 22.6209C44.8937 22.6209 42.8097 20.5004 42.8097 17.8845C42.8097 15.2686 44.8937 13.1481 47.4644 13.1481C50.0352 13.1481 52.1192 15.2686 52.1192 17.8845C52.1192 18.188 52.0911 18.4849 52.0375 18.7726H52.0166ZM39.6096 22.0182V9.70934C39.6096 9.56374 39.7102 9.43822 39.8505 9.40893L41.4291 9.07933C41.5923 9.04526 41.7518 9.15213 41.7853 9.31805C41.7894 9.33835 41.7915 9.35902 41.7915 9.37974V22.0182C41.7915 22.1876 41.6564 22.3249 41.4898 22.3249H39.9112C39.7446 22.3249 39.6096 22.1876 39.6096 22.0182ZM61.2917 22.3249H59.5401C59.4111 22.3249 59.2964 22.2415 59.2547 22.1174L56.4741 13.85C56.4202 13.6897 56.5043 13.5154 56.6619 13.4606C56.6933 13.4497 56.7263 13.4441 56.7595 13.4441H58.3038C58.4328 13.4441 58.5475 13.5275 58.5892 13.6515L60.2732 18.6583C60.3001 18.7384 60.3859 18.7812 60.4647 18.7538C60.5088 18.7384 60.5435 18.7032 60.5586 18.6583L62.2425 13.6515C62.2842 13.5275 62.3989 13.4441 62.5279 13.4441H64.2791C64.4081 13.4441 64.5228 13.5275 64.5645 13.6515L66.2484 18.6583C66.2754 18.7384 66.3611 18.7812 66.44 18.7538C66.4841 18.7384 66.5188 18.7032 66.5339 18.6583L68.2178 13.6515C68.2595 13.5275 68.3742 13.4441 68.5032 13.4441H70.0475C70.2141 13.4441 70.3492 13.5814 70.3492 13.7508C70.3492 13.7845 70.3437 13.8181 70.333 13.85L67.5524 22.1174C67.5106 22.2415 67.3959 22.3249 67.2669 22.3249H65.5154C65.3864 22.3249 65.2717 22.2415 65.23 22.1174L63.5462 17.1113C63.5193 17.0311 63.4335 16.9884 63.3547 17.0158C63.3106 17.0311 63.2759 17.0664 63.2608 17.1113L61.5771 22.1174C61.5353 22.2415 61.4206 22.3249 61.2917 22.3249ZM77.7203 21.8011C76.9743 22.3185 76.0729 22.6209 75.102 22.6209C72.5313 22.6209 70.4473 20.5004 70.4473 17.8845C70.4473 15.2686 72.5313 13.1481 75.102 13.1481C76.0729 13.1481 76.9743 13.4505 77.7203 13.9679V13.7401C77.7203 13.5766 77.8505 13.4441 78.0112 13.4441H79.6113C79.772 13.4441 79.9022 13.5766 79.9022 13.7401V22.0289C79.9022 22.1924 79.772 22.3249 79.6113 22.3249H78.0112C77.8505 22.3249 77.7203 22.1924 77.7203 22.0289V21.8011ZM75.2475 20.4007C76.6132 20.4007 77.7203 19.2742 77.7203 17.8845C77.7203 16.4948 76.6132 15.3683 75.2475 15.3683C73.8818 15.3683 72.7746 16.4948 72.7746 17.8845C72.7746 19.2742 73.8818 20.4007 75.2475 20.4007ZM88.1935 13.9679V13.7401C88.1935 13.5766 88.3237 13.4441 88.4844 13.4441H90.0845C90.2451 13.4441 90.3754 13.5766 90.3754 13.7401V22.0289H90.3748C90.336 24.6515 88.2345 26.7653 85.6479 26.7653C84.9722 26.7653 84.3296 26.621 83.7482 26.3611C83.594 26.2922 83.3943 26.1808 83.1491 26.0268C82.9753 25.9177 82.8991 25.7007 82.9656 25.5043L83.4814 23.9805C83.5337 23.8259 83.6993 23.7437 83.8512 23.797C83.889 23.8102 83.9237 23.8312 83.9531 23.8587C84.1453 24.0381 84.3116 24.1659 84.452 24.242C84.8086 24.4355 85.2157 24.5451 85.6479 24.5451C87.0295 24.5451 88.154 23.4252 88.1925 22.0289H88.1935V21.8011C87.4475 22.3185 86.546 22.6209 85.5752 22.6209C83.0044 22.6209 80.9204 20.5004 80.9204 17.8845C80.9204 15.2686 83.0044 13.1481 85.5752 13.1481C86.546 13.1481 87.4475 13.4505 88.1935 13.9679ZM85.7206 20.4007C87.0863 20.4007 88.1935 19.2742 88.1935 17.8845C88.1935 16.4948 87.0863 15.3683 85.7206 15.3683C84.3549 15.3683 83.2478 16.4948 83.2478 17.8845C83.2478 19.2742 84.3549 20.4007 85.7206 20.4007ZM96.0484 22.6209C93.4776 22.6209 91.3936 20.5004 91.3936 17.8845C91.3936 15.2686 93.4776 13.1481 96.0484 13.1481C98.6191 13.1481 100.703 15.2686 100.703 17.8845C100.703 20.5004 98.6191 22.6209 96.0484 22.6209ZM96.0484 20.4007C97.4141 20.4007 98.5212 19.2742 98.5212 17.8845C98.5212 16.4948 97.4141 15.3683 96.0484 15.3683C94.6826 15.3683 93.5755 16.4948 93.5755 17.8845C93.5755 19.2742 94.6826 20.4007 96.0484 20.4007ZM110.304 17.4404V22.0289C110.304 22.1924 110.173 22.3249 110.013 22.3249H108.267C108.106 22.3249 107.976 22.1924 107.976 22.0289V17.5885H107.971C107.974 17.5396 107.976 17.4902 107.976 17.4404C107.976 16.296 107.064 15.3683 105.94 15.3683C104.815 15.3683 103.903 16.296 103.903 17.4404C103.903 17.4902 103.905 17.5396 103.908 17.5885H103.903V22.0289C103.903 22.1924 103.773 22.3249 103.612 22.3249H102.012C101.852 22.3249 101.721 22.1924 101.721 22.0289V13.7401C101.721 13.5766 101.852 13.4441 102.012 13.4441H103.612C103.773 13.4441 103.903 13.5766 103.903 13.7401V13.7661C104.54 13.3738 105.287 13.1481 106.085 13.1481C108.415 13.1481 110.304 15.0698 110.304 17.4404Z" fill="#0E0000"/>
</g>
<defs>
<clipPath id="clip0">
<rect width="110.326" height="35" fill="white"/>
</clipPath>
</defs>
</svg>
