<svg width="120" height="50" viewBox="0 0 120 50" fill="none" xmlns="http://www.w3.org/2000/svg">
<path d="M31.5108 26.2358C32.6838 26.1878 33.7458 25.6599 34.3957 24.6361C34.681 24.1881 34.3165 23.5322 33.7617 23.6602C32.7472 23.8842 30.9401 25.068 31.5742 26.3798C32.129 27.5476 33.8251 26.7637 34.6493 26.4598C36.1394 25.9159 37.5343 25.148 38.8658 24.2521C40.2766 23.3083 41.4021 22.0125 42.7653 21.0206C43.3835 20.5727 42.6226 19.6928 42.0044 20.1088C40.0388 21.4365 38.2159 23.5642 37.0746 25.6439C36.7734 26.1878 37.4392 26.9717 37.9464 26.4438C38.6281 25.7239 39.4682 25.18 40.3083 24.7C40.0547 24.5721 39.8169 24.4441 39.5633 24.3321C39.6425 25.068 40.3083 25.5159 41.0216 25.4679C42.0678 25.3879 42.9872 24.812 44.0651 24.748C44.5089 24.716 44.5724 23.9482 44.1444 23.8522C43.1774 23.6282 42.369 24.1401 42.1788 25.148C42.1154 25.5319 42.5592 25.7239 42.8445 25.6119C45.0162 24.78 46.6806 23.5482 47.8695 21.5005C48.1231 21.0526 47.6317 20.5887 47.2037 20.8926C46.3477 21.5005 45.6503 22.3324 45.1272 23.2443C44.7626 23.8522 44.1285 24.892 44.5565 25.6119C45.0479 26.4278 46.1099 25.7239 46.7123 25.4679C47.9963 24.924 49.2485 24.3801 50.6276 24.1241C50.4849 23.8362 50.3581 23.5482 50.2155 23.2603C49.7241 23.7562 49.3436 24.2841 49.0425 24.908C48.8522 25.292 49.407 25.6119 49.6924 25.3719C50.1996 24.956 50.5959 24.4921 50.9288 23.9322C51.1666 23.5482 50.7703 22.9243 50.3106 23.1963C49.6131 23.6282 48.8998 23.9802 48.1389 24.2681C47.7585 24.4121 47.3781 24.5561 46.9976 24.6841C46.6172 24.812 46.0148 25.164 45.6185 25.052C45.3174 24.972 45.3966 24.988 45.5076 24.732C45.5868 24.5401 45.6978 24.3641 45.7929 24.1721C45.9514 23.8682 46.1258 23.5802 46.316 23.3083C46.744 22.6844 47.2513 22.1244 47.7743 21.5645C47.5366 21.4046 47.2988 21.2286 47.061 21.0686C46.3477 22.9083 44.5089 24.4921 42.5275 24.716C42.7019 24.924 42.8762 25.132 43.0506 25.34C43.2091 25.004 43.5262 24.764 43.9066 24.764C43.859 24.4601 43.7956 24.1721 43.7481 23.8682C43.4469 24.0441 40.5302 25.276 40.5619 24.2841C40.5778 23.9162 40.1815 23.5642 39.8169 23.7722C38.8817 24.3161 38.0257 24.956 37.138 25.5479C37.4233 25.8199 37.7087 26.0758 38.0098 26.3478C38.7073 25.4039 39.3889 24.4601 40.1656 23.5642C40.9741 22.6524 41.8776 21.8845 42.7494 21.0366C42.4324 20.8126 42.1312 20.6047 41.8142 20.3807C41.3545 21.4046 40.4034 22.2364 39.5633 22.9403C38.7073 23.6602 37.7879 24.3001 36.8051 24.828C35.8699 25.324 34.8713 25.7719 33.8409 26.0758C33.619 26.1398 33.3971 26.2198 33.1593 26.2518C33.0008 26.2838 32.8264 26.2998 32.6679 26.2678C32.5886 26.1078 32.5094 25.9479 32.4301 25.8039C32.5252 25.292 33.5873 24.972 33.9836 24.908C33.7775 24.5881 33.5556 24.2521 33.3495 23.9322C32.9057 24.6681 32.2875 25.052 31.4315 25.116C30.8133 25.164 30.8767 26.2678 31.5108 26.2358Z" fill="black"/>
<path d="M67.1992 20.9192C65.9083 21.2466 64.7787 21.8867 64.0848 22.9732C63.8428 23.3453 64.1494 23.7918 64.6173 23.7323C66.0697 23.5686 67.2477 22.8988 67.8286 21.6336C68.0384 21.1722 67.3122 20.8597 67.0056 21.2466C66.7635 21.5443 66.5215 21.8569 66.2794 22.1546C66.1342 22.3332 66.1826 22.6457 66.3924 22.7648C67.1186 23.1518 67.9093 22.9434 68.6354 22.6458C69.7811 22.1843 70.8946 21.6783 72.008 21.1722C73.0731 20.6811 74.1381 20.1899 75.187 19.6541C75.7034 19.3861 76.2359 19.1182 76.7523 18.8652C77.3655 18.5675 78.0755 18.4038 78.6403 18.0763C79.1889 17.7638 78.9792 16.8559 78.2691 17.0196C74.6545 17.8382 72.1855 20.5322 70.1362 23.2262C69.7973 23.6727 70.4589 24.2532 70.9107 23.8811C71.7498 23.1667 72.7342 22.6606 73.7992 22.2885C73.5894 22.1099 73.3635 21.9313 73.1538 21.7527C72.8633 22.6011 73.6863 23.1518 74.5577 23.0625C75.2838 22.9881 76.01 22.6309 76.7039 22.4374C77.4784 22.2141 78.2369 22.0206 79.0437 21.9313C78.9792 21.6485 78.9308 21.3657 78.8662 21.0829C78.1078 21.2169 77.5914 21.5592 77.1073 22.1099C76.7846 22.482 77.2202 23.1369 77.7366 23.003C78.8178 22.7202 79.8506 22.3481 80.9317 22.0504C80.7058 21.8718 80.496 21.6932 80.2701 21.4997C80.2217 21.7527 80.1572 22.0057 80.1087 22.2588C80.0281 22.6011 80.4476 22.8541 80.7704 22.8095C82.1743 22.6011 83.5298 22.2141 84.8046 21.6485C84.6109 21.4253 84.4012 21.2169 84.2075 20.9936C83.8202 21.4848 83.6589 21.9909 83.7073 22.5862C83.7234 22.7946 83.9816 22.9285 84.1914 22.8839C86.0633 22.5416 87.9351 22.1843 89.807 21.8122C89.7425 21.4848 89.6779 21.1573 89.5972 20.8299C88.7742 21.0383 88.1933 21.6485 87.9997 22.4076C87.9351 22.6458 87.9835 22.8988 88.2095 23.0327C89.9361 24.0895 91.7918 22.2885 90.6461 20.7406C90.2588 20.2048 89.4359 20.8597 89.8231 21.3955C90.275 22.0206 89.4681 22.5416 88.8872 22.1546C88.9518 22.363 89.0324 22.5713 89.097 22.7797C89.2584 22.2588 89.5811 22.0057 90.0491 21.7081C90.5493 21.3955 89.9845 20.5769 89.452 20.8745C87.806 21.8122 86.0633 22.2588 84.1268 22.1546C84.2559 22.2885 84.3689 22.4225 84.498 22.5564C84.5625 22.1546 84.7078 21.8271 84.9659 21.4997C85.2725 21.1276 84.7884 20.6811 84.3689 20.8448C83.1425 21.336 81.8677 21.6336 80.5444 21.7974C80.7704 21.976 80.9801 22.1546 81.2061 22.3481C81.2545 22.095 81.319 21.842 81.3674 21.589C81.432 21.2764 81.0285 20.949 80.7058 21.0383C79.6408 21.336 78.5435 21.5592 77.4946 21.8718C77.7044 22.1695 77.9141 22.4671 78.1239 22.7648C78.4305 22.3927 78.8339 22.095 79.2535 21.842C79.6892 21.5741 79.2051 20.8745 78.7371 21.1276C78.0755 21.4848 77.3978 21.7229 76.6716 21.9611C76.2682 22.095 75.8647 22.229 75.4452 22.3481C75.3806 22.363 73.5572 22.8392 73.9767 22.1546C74.2188 21.7676 73.8315 21.3657 73.3797 21.5146C72.2017 21.9015 71.2012 22.4671 70.2168 23.1518C70.475 23.3751 70.7332 23.5834 70.9914 23.8067C73.1053 21.5741 75.2838 19.0289 78.4951 18.1508C78.3176 17.8233 78.1562 17.4959 77.9787 17.1684C77.5591 17.4214 77.2687 17.7936 76.8652 18.0615C76.4134 18.374 75.9293 18.6568 75.4452 18.9247C74.5899 19.3861 73.7185 19.8327 72.831 20.2494C71.9919 20.6513 71.1366 21.0234 70.2652 21.3657C69.6682 21.6039 67.5865 22.7499 67.0217 22.1397C67.0379 22.3183 67.0379 22.4969 67.054 22.6755C67.2961 22.363 67.522 22.0653 67.764 21.7527C67.4897 21.6188 67.2154 21.4848 66.9411 21.3657C66.5376 22.2141 65.5856 22.869 64.5528 22.7797C64.6496 23.0625 64.7626 23.3602 64.8594 23.643C65.5694 22.9434 66.4085 22.363 67.4413 22.1397C68.2643 21.9313 68.0222 20.7257 67.1992 20.9192Z" fill="black"/>
<path d="M90.1382 23.2371C90.3733 23.4684 90.6673 23.9156 91.02 23.9772C91.4021 24.0389 92.034 23.7459 92.3867 23.6226C93.3419 23.2833 94.1796 22.7282 95.0466 22.2193C94.8262 21.9418 94.6057 21.6642 94.3706 21.3866C94.062 21.803 93.7975 22.2348 93.5476 22.6819C93.2978 23.1137 93.6064 23.7305 94.1208 23.6226C95.7373 23.2987 97.2804 22.7282 98.794 22.0343C98.6177 21.7413 98.4266 21.4483 98.2503 21.1553C97.3685 22.0806 96.6337 23.1908 95.899 24.2394C95.1495 25.288 94.4294 26.3674 93.7975 27.5085C93.1802 28.6341 92.6365 29.8061 92.1956 31.0088C91.8135 32.1037 91.3874 33.3219 91.3727 34.5092C91.3433 37.3465 94.4 37.2232 96.2957 36.7143C99.1026 35.9587 101.91 35.1414 104.716 34.3704C106.362 33.9232 107.994 33.4452 109.64 33.0289C111.285 32.6125 112.975 32.3195 114.592 31.8261C115.239 31.6256 115.077 30.5462 114.386 30.7159C113.108 31.0397 111.873 31.5485 110.624 31.9495C109.375 32.3658 108.111 32.7359 106.847 33.1214C104.32 33.8616 101.792 34.6172 99.2643 35.3573C97.6478 35.8353 92.5042 38.0404 92.0193 35.0489C91.8282 33.9232 92.4014 32.5509 92.7981 31.5177C93.2243 30.3766 93.7681 29.2972 94.3706 28.2486C95.0319 27.123 95.7373 26.0435 96.5015 24.995C97.2804 23.9156 98.2209 22.9287 98.9704 21.8338C99.2496 21.4175 98.794 20.8007 98.3385 21.0628C96.9571 21.8801 95.4581 22.281 93.8856 22.4044C94.0767 22.7128 94.2677 23.0212 94.4588 23.345C94.7674 22.867 95.0319 22.389 95.2817 21.8801C95.5169 21.3866 94.7821 20.8624 94.4294 21.2633C93.5329 22.281 92.2103 22.7899 90.9318 23.0058C91.0787 23.052 91.2257 23.1137 91.358 23.16C91.1816 22.9595 90.9906 22.7745 90.8142 22.574C90.4174 22.1422 89.6973 22.8053 90.1382 23.2371Z" fill="black"/>
<path d="M119.456 31C120.12 31 120.215 30 119.527 30C118.886 30 118.791 31 119.456 31Z" fill="black"/>
<path d="M72.0873 5.25694C64.2518 15.1701 56.4316 25.1138 48.5962 35.0117C48.9309 34.9965 49.2656 34.9812 49.6004 34.966C48.9157 34.0662 49.4178 32.7851 50.1177 32.0378C50.9088 31.2142 52.0499 30.8177 53.1149 30.4822C55.7318 29.6739 58.3791 28.9876 61.0568 28.3928C66.3058 27.1879 71.6461 26.3491 77.0167 25.8459C78.599 25.6933 80.1965 25.5866 81.7941 25.5256C83.3611 25.4646 84.913 25.5256 86.4649 25.5103C87.2104 25.5103 87.1648 24.4275 86.404 24.4733C83.3916 24.6868 80.3791 25.0681 77.3667 25.4036C74.3542 25.7391 71.3418 26.1356 68.3293 26.6084C65.3321 27.0812 62.3348 27.6302 59.368 28.2555C57.877 28.5758 56.4012 28.8961 54.9254 29.2468C53.6626 29.5519 52.3694 29.7959 51.137 30.2229C49.9959 30.6347 48.9157 31.2752 48.368 32.4038C47.8203 33.5171 47.8659 34.783 48.6266 35.7743C48.8853 36.1251 49.4026 36.0336 49.6308 35.7285C57.451 25.8001 65.3016 15.8869 73.1371 5.97374C73.6544 5.3332 72.5893 4.60115 72.0873 5.25694Z" fill="black"/>
<path d="M1.16781 32.1778C3.20433 28.3682 5.22542 24.5586 7.26193 20.7332C7.64763 19.9964 6.62938 19.2282 6.18196 19.9651C5.2717 21.5014 4.3923 23.2887 4.778 25.1386C5.10199 26.675 6.19739 27.8351 7.75563 28.0546C9.56072 28.2898 11.5355 27.6784 13.2172 27.0513C15.084 26.3615 16.8274 25.3895 18.5399 24.4018C25.5751 20.3256 32.1012 15.4343 38.3496 10.2137C41.8827 7.26629 45.3386 4.20918 48.7791 1.15208C49.2728 0.713107 48.8716 -0.0864449 48.2391 0.00761998C44.7215 0.540654 42.4072 3.7075 40.3553 6.37268C37.9022 9.55521 35.5417 12.8318 33.3201 16.1868C28.9385 22.787 24.9889 29.6694 21.4867 36.787C19.4964 40.8318 17.4137 44.9706 15.9325 49.2349C15.6857 49.9561 16.7194 50.3167 17.0279 49.6425C18.6479 46.0994 20.0364 42.4622 21.7027 38.9348C23.3843 35.376 25.2203 31.8799 27.1488 28.4622C30.9441 21.768 35.1869 15.3402 39.8153 9.22598C41.0496 7.57984 42.2838 5.90235 43.6569 4.38164C44.9683 2.92363 46.5111 1.63808 48.4859 1.32453C48.3008 0.948269 48.1311 0.556332 47.9459 0.180072C42.469 5.18119 36.9765 10.198 31.1601 14.8072C28.2596 17.1118 25.2666 19.2909 22.1501 21.2976C19.0799 23.273 15.8554 25.3267 12.3841 26.4712C10.795 27.0042 7.80192 27.8979 6.53681 26.3458C5.14827 24.6526 6.32081 22.3324 7.26193 20.7489C6.90708 20.4981 6.55224 20.2472 6.18196 19.9807C4.14545 23.7904 2.12436 27.6 0.0878436 31.4096C-0.313288 32.1621 0.766682 32.9303 1.16781 32.1778Z" fill="black"/>
</svg>
