<svg width="200" height="30" viewBox="0 0 200 30" fill="none" xmlns="http://www.w3.org/2000/svg">
<path d="M10.2099 12.0822C10.2321 12.1498 10.2432 12.2005 10.2432 12.2343C10.2432 12.3244 10.2155 12.3977 10.16 12.454C10.1045 12.5103 10.0379 12.5385 9.96023 12.5385H7.51317C7.32451 12.5385 7.20244 12.4371 7.14695 12.2343L5.34911 7.50282C5.31582 7.41269 5.26588 7.35073 5.19929 7.31694C5.13271 7.28314 5.02728 7.26624 4.88301 7.26624H3.30158C3.23499 7.26624 3.18505 7.28877 3.15176 7.33383C3.11847 7.36763 3.10182 7.40706 3.10182 7.45212V12.1329C3.10182 12.2794 3.06298 12.3864 2.98529 12.454C2.91871 12.5103 2.80773 12.5385 2.65236 12.5385H0.538241C0.405068 12.5385 0.310737 12.5103 0.255248 12.454C0.210857 12.3977 0.188662 12.3132 0.188662 12.2005V0.321066C0.188662 0.107022 0.277444 0 0.455008 0H5.64875C7.14695 0 8.30666 0.298536 9.1279 0.895607C9.94913 1.49268 10.3597 2.34322 10.3597 3.44724C10.3597 4.26962 10.1433 4.97371 9.71053 5.55952C9.27772 6.13406 8.73393 6.53962 8.07916 6.77619C7.99038 6.80999 7.96818 6.89448 8.01257 7.02967L10.2099 12.0822ZM5.38241 5.27225C6.02608 5.27225 6.51438 5.13706 6.84731 4.86669C7.18024 4.58505 7.34671 4.1795 7.34671 3.65002C7.34671 3.10928 7.17469 2.69809 6.83066 2.41645C6.49773 2.12355 6.04272 1.97709 5.46564 1.97709H3.41811C3.29603 1.97709 3.2128 1.99962 3.16841 2.04469C3.12402 2.07848 3.10182 2.14608 3.10182 2.24747V4.98498C3.10182 5.08637 3.11847 5.15959 3.15176 5.20466C3.18505 5.24972 3.24609 5.27225 3.33487 5.27225H5.38241Z" fill="black"/>
<path d="M16.3611 12.7075C15.4843 12.7075 14.7075 12.516 14.0305 12.1329C13.3647 11.7386 12.8431 11.1923 12.4658 10.4938C12.0884 9.79534 11.8998 9.00113 11.8998 8.11115C11.8998 7.18738 12.0884 6.37063 12.4658 5.66091C12.8542 4.95118 13.3869 4.39917 14.0638 4.00488C14.7519 3.61059 15.5232 3.41344 16.3777 3.41344C17.2544 3.41344 18.0313 3.61622 18.7082 4.02178C19.3852 4.41607 19.9068 4.96808 20.273 5.67781C20.6503 6.38753 20.839 7.19302 20.839 8.09425C20.839 8.98423 20.6503 9.77845 20.273 10.4769C19.8957 11.1754 19.3686 11.7217 18.6916 12.116C18.0146 12.5103 17.2378 12.7075 16.3611 12.7075ZM16.3777 10.9839C16.9881 10.9839 17.4486 10.7416 17.7594 10.2572C18.0812 9.76155 18.2421 9.02929 18.2421 8.06046C18.2421 7.08036 18.0812 6.34247 17.7594 5.84679C17.4486 5.33984 16.9881 5.08637 16.3777 5.08637C15.7673 5.08637 15.3012 5.33984 14.9794 5.84679C14.6576 6.34247 14.4966 7.08036 14.4966 8.06046C14.4966 9.01803 14.6576 9.74465 14.9794 10.2403C15.3012 10.736 15.7673 10.9839 16.3777 10.9839Z" fill="black"/>
<path d="M22.9609 12.5385C22.8388 12.5385 22.75 12.516 22.6945 12.4709C22.6391 12.4146 22.6113 12.3244 22.6113 12.2005V3.90349C22.6113 3.8021 22.6335 3.72324 22.6779 3.66692C22.7334 3.61059 22.8 3.58243 22.8777 3.58243H24.8752C25.0417 3.58243 25.1249 3.67818 25.1249 3.8697V4.69771C25.1249 4.78783 25.1527 4.8329 25.2082 4.8329C25.2415 4.8329 25.2803 4.81036 25.3247 4.7653C25.7908 4.32595 26.2458 3.98798 26.6897 3.75141C27.1336 3.51483 27.6053 3.39655 28.1047 3.39655C28.6929 3.39655 29.1923 3.53736 29.6029 3.819C30.0135 4.10064 30.302 4.48367 30.4685 4.96808C30.4796 5.01314 30.5018 5.03567 30.5351 5.03567C30.5795 5.03567 30.6294 5.00751 30.6849 4.95118C31.0955 4.4893 31.5561 4.11754 32.0666 3.8359C32.5882 3.55426 33.1042 3.41344 33.6147 3.41344C34.3916 3.41344 35.0075 3.65565 35.4625 4.14007C35.9286 4.62448 36.1617 5.28915 36.1617 6.13406V12.1329C36.1617 12.4033 36.0285 12.5385 35.7621 12.5385H33.9144C33.7923 12.5385 33.7091 12.516 33.6647 12.4709C33.6203 12.4146 33.5981 12.3244 33.5981 12.2005V6.48892C33.5981 6.11716 33.4982 5.82426 33.2984 5.61021C33.0987 5.39617 32.8157 5.28915 32.4495 5.28915C32.1498 5.28915 31.8557 5.37364 31.5672 5.54262C31.2897 5.7116 31.0511 5.91438 30.8514 6.15096C30.7848 6.22982 30.7349 6.30304 30.7016 6.37063C30.6794 6.43823 30.6683 6.52272 30.6683 6.62411V12.1329C30.6683 12.4033 30.5351 12.5385 30.2688 12.5385H28.4376C28.3266 12.5385 28.2434 12.516 28.1879 12.4709C28.1435 12.4146 28.1213 12.3244 28.1213 12.2005V6.48892C28.1213 6.11716 28.0215 5.82426 27.8217 5.61021C27.6219 5.39617 27.3334 5.28915 26.9561 5.28915C26.6342 5.28915 26.3346 5.37364 26.0572 5.54262C25.7797 5.7116 25.4856 5.97634 25.1749 6.33684V12.1498C25.1749 12.285 25.1416 12.3864 25.075 12.454C25.0084 12.5103 24.8974 12.5385 24.7421 12.5385H22.9609Z" fill="black"/>
<path d="M43.1163 11.6767C42.3838 12.3639 41.5126 12.7075 40.5027 12.7075C39.6704 12.7075 39.0101 12.4822 38.5218 12.0315C38.0335 11.5697 37.7893 10.9726 37.7893 10.2403C37.7893 9.29403 38.2166 8.53361 39.0711 7.95907C39.9257 7.38453 41.102 7.08036 42.6002 7.04656L43.1995 6.99587C43.2661 6.99587 43.3216 6.97897 43.366 6.94517C43.4214 6.90011 43.4492 6.83815 43.4492 6.75929V6.40443C43.4492 5.96508 43.3271 5.62711 43.083 5.39054C42.8388 5.15396 42.4892 5.03567 42.0342 5.03567C41.2574 5.03567 40.6803 5.37364 40.303 6.04957C40.2586 6.16222 40.1865 6.21855 40.0866 6.21855C40.0311 6.21855 39.9811 6.21292 39.9368 6.20165L38.2721 5.81299C38.1722 5.79046 38.1223 5.7285 38.1223 5.62711C38.1223 5.55952 38.1445 5.47503 38.1889 5.37364C38.4552 4.72024 38.9269 4.23019 39.6038 3.90349C40.2919 3.57679 41.1409 3.41344 42.1508 3.41344C43.4714 3.41344 44.4258 3.66128 45.014 4.15697C45.6021 4.64138 45.8962 5.33421 45.8962 6.23545V12.1667C45.8962 12.3019 45.874 12.3977 45.8297 12.454C45.7853 12.5103 45.702 12.5385 45.58 12.5385H43.8654C43.7544 12.5385 43.6711 12.4991 43.6157 12.4202C43.5713 12.3413 43.538 12.2231 43.5158 12.0653L43.4991 11.6936C43.488 11.5922 43.4436 11.5415 43.366 11.5415C43.3216 11.5415 43.2383 11.5866 43.1163 11.6767ZM43.4492 8.55051C43.4492 8.44912 43.4325 8.37589 43.3992 8.33083C43.366 8.28577 43.2994 8.26324 43.1995 8.26324L42.7334 8.29703C42.0897 8.33083 41.5182 8.48855 41.0188 8.77018C40.5305 9.04056 40.2863 9.41795 40.2863 9.90237C40.2863 10.2403 40.4029 10.5107 40.6359 10.7135C40.869 10.905 41.1908 11.0008 41.6014 11.0008C42.1119 11.0008 42.5447 10.8487 42.8999 10.5445C43.2661 10.2516 43.4492 9.95306 43.4492 9.64889V8.55051Z" fill="black"/>
<path d="M50.5791 2.07848C50.5791 2.36012 50.4293 2.50094 50.1296 2.50094H48.3318C48.1986 2.50094 48.1043 2.47278 48.0488 2.41645C47.9933 2.34885 47.9656 2.24747 47.9656 2.11228V0.337964C47.9656 0.112655 48.0599 0 48.2486 0H50.3128C50.3904 0 50.4515 0.0281637 50.4959 0.0844911C50.5514 0.140818 50.5791 0.219677 50.5791 0.321066V2.07848ZM50.5458 12.1329C50.5458 12.2794 50.5125 12.3864 50.4459 12.454C50.3793 12.5103 50.2628 12.5385 50.0963 12.5385H48.3485C48.2153 12.5385 48.1209 12.5103 48.0655 12.454C48.01 12.3977 47.9822 12.3075 47.9822 12.1836V3.90349C47.9822 3.68945 48.0766 3.58243 48.2652 3.58243H50.2961C50.4626 3.58243 50.5458 3.67818 50.5458 3.8697V12.1329Z" fill="black"/>
<path d="M53.0841 12.5385C52.962 12.5385 52.8733 12.516 52.8178 12.4709C52.7623 12.4146 52.7345 12.3244 52.7345 12.2005V3.90349C52.7345 3.68945 52.8233 3.58243 53.0009 3.58243H55.0151C55.1816 3.58243 55.2648 3.67818 55.2648 3.8697V4.69771C55.2648 4.78783 55.2926 4.8329 55.3481 4.8329C55.3813 4.8329 55.4202 4.81036 55.4646 4.7653C55.9196 4.32595 56.3746 3.99362 56.8296 3.76831C57.2846 3.53173 57.7674 3.41344 58.2779 3.41344C59.088 3.41344 59.7261 3.65565 60.1922 4.14007C60.6694 4.62448 60.908 5.27225 60.908 6.08336V12.1329C60.908 12.4033 60.7749 12.5385 60.5085 12.5385H58.6607C58.5387 12.5385 58.4554 12.516 58.411 12.4709C58.3666 12.4146 58.3444 12.3244 58.3444 12.2005V6.48892C58.3444 6.1059 58.239 5.81299 58.0282 5.61021C57.8284 5.39617 57.5288 5.28915 57.1292 5.28915C56.7963 5.28915 56.4856 5.37364 56.197 5.54262C55.9196 5.7116 55.6199 5.97634 55.2981 6.33684V12.1498C55.2981 12.285 55.2648 12.3864 55.1982 12.454C55.1316 12.5103 55.0207 12.5385 54.8653 12.5385H53.0841Z" fill="black"/>
<path d="M70.154 7.18175C70.0874 7.18175 70.0319 7.20428 69.9875 7.24934C69.9542 7.2944 69.9376 7.3451 69.9376 7.40143V12.1498C69.9376 12.285 69.8987 12.3864 69.821 12.454C69.7544 12.5103 69.6435 12.5385 69.4881 12.5385H67.3906C67.2575 12.5385 67.1631 12.5103 67.1076 12.454C67.0521 12.3977 67.0244 12.3075 67.0244 12.1836V0.321066C67.0244 0.107022 67.1132 0 67.2907 0H69.6712C69.8488 0 69.9376 0.101389 69.9376 0.304168V4.63012C69.9376 4.82163 70.0208 4.91739 70.1873 4.91739H74.0326C74.2102 4.91739 74.299 4.82726 74.299 4.64702V0.304168C74.299 0.101389 74.3822 0 74.5487 0H76.9291C77.1178 0 77.2121 0.107022 77.2121 0.321066V12.1836C77.2121 12.4202 77.0901 12.5385 76.8459 12.5385H74.7318C74.5764 12.5385 74.4654 12.5103 74.3988 12.454C74.3323 12.3977 74.299 12.2963 74.299 12.1498V7.40143C74.299 7.33383 74.2768 7.28314 74.2324 7.24934C74.1991 7.20428 74.1436 7.18175 74.0659 7.18175H70.154Z" fill="black"/>
<path d="M81.87 8.82088C81.87 9.45175 82.0753 9.96433 82.4859 10.3586C82.9077 10.7416 83.4292 10.9332 84.0507 10.9332C84.4502 10.9332 84.8165 10.8487 85.1494 10.6797C85.4934 10.4994 85.8375 10.2065 86.1815 9.80098C86.2259 9.75591 86.2703 9.73338 86.3147 9.73338C86.348 9.73338 86.4034 9.75028 86.4811 9.78408L87.6797 10.291C87.7574 10.3248 87.7962 10.3811 87.7962 10.46C87.7962 10.5163 87.774 10.5727 87.7296 10.629C87.1969 11.395 86.6254 11.9358 86.015 12.2512C85.4046 12.5554 84.6445 12.7075 83.7344 12.7075C82.8799 12.7075 82.1086 12.516 81.4206 12.1329C80.7325 11.7499 80.1943 11.2204 79.8058 10.5445C79.4174 9.8573 79.2232 9.07435 79.2232 8.19564C79.2232 7.24934 79.423 6.4157 79.8225 5.69471C80.222 4.96245 80.7602 4.39917 81.4372 4.00488C82.1253 3.61059 82.8744 3.41344 83.6845 3.41344C84.5279 3.41344 85.277 3.60496 85.9318 3.98798C86.5866 4.35974 87.0971 4.90049 87.4633 5.61021C87.8295 6.31994 88.0126 7.16485 88.0126 8.14495C88.0126 8.2914 87.996 8.39279 87.9627 8.44912C87.9405 8.50545 87.8628 8.53924 87.7296 8.55051H82.0698C81.9366 8.55051 81.87 8.64063 81.87 8.82088ZM85.216 7.13106C85.3381 7.13106 85.4157 7.11979 85.449 7.09726C85.4823 7.06346 85.499 6.99587 85.499 6.89448C85.499 6.60158 85.4324 6.30867 85.2992 6.01577C85.166 5.72287 84.9718 5.48066 84.7166 5.28915C84.4613 5.09763 84.1506 5.00188 83.7844 5.00188C83.2295 5.00188 82.7745 5.19902 82.4194 5.59332C82.0642 5.98761 81.8922 6.49456 81.9033 7.11416L85.216 7.13106Z" fill="black"/>
<path d="M93.2568 5.37364C93.1347 5.37364 93.0737 5.44123 93.0737 5.57642V9.64889C93.0737 10.0319 93.1624 10.3079 93.34 10.4769C93.5176 10.6346 93.8006 10.7135 94.189 10.7135H95.0879C95.1656 10.7135 95.2266 10.7416 95.271 10.798C95.3154 10.843 95.3376 10.9106 95.3376 11.0008L95.321 12.0315C95.321 12.2569 95.1989 12.392 94.9547 12.4371C94.4886 12.5047 93.8283 12.5385 92.9738 12.5385C92.1969 12.5385 91.5921 12.3526 91.1593 11.9808C90.7265 11.6091 90.5101 11.0683 90.5101 10.3586V5.62711C90.5101 5.45813 90.438 5.37364 90.2937 5.37364H89.2782C89.0674 5.37364 88.962 5.27788 88.962 5.08637V3.8359C88.962 3.66692 89.0618 3.58243 89.2616 3.58243H90.4102C90.499 3.58243 90.5545 3.52047 90.5767 3.39655L90.8097 0.828014C90.8319 0.6365 90.9151 0.540744 91.0594 0.540744H92.8739C92.9516 0.540744 93.0126 0.568907 93.057 0.625235C93.1125 0.681562 93.1402 0.76042 93.1402 0.86181V3.39655C93.1402 3.5092 93.1957 3.56553 93.3067 3.56553H95.0546C95.2544 3.56553 95.3542 3.65565 95.3542 3.8359V5.08637C95.3542 5.27788 95.2433 5.37364 95.0213 5.37364H93.2568Z" fill="black"/>
<path d="M96.8936 12.5385C96.7605 12.5385 96.6717 12.516 96.6273 12.4709C96.5829 12.4258 96.5607 12.3357 96.5607 12.2005V11.5415C96.5607 11.4063 96.5773 11.2993 96.6106 11.2204C96.6439 11.1416 96.7216 11.012 96.8437 10.8318L100.905 5.45813C100.917 5.4356 100.928 5.41307 100.939 5.39054C100.961 5.36801 100.972 5.34548 100.972 5.32294C100.972 5.25535 100.905 5.22155 100.772 5.22155H97.2266C97.1156 5.22155 97.0379 5.19902 96.9935 5.15396C96.9491 5.1089 96.9269 5.03004 96.9269 4.91739V3.8528C96.9269 3.67255 97.0046 3.58243 97.16 3.58243H104.052C104.129 3.58243 104.19 3.60496 104.235 3.65002C104.279 3.69508 104.301 3.75704 104.301 3.8359V4.57942C104.301 4.68081 104.279 4.77657 104.235 4.86669C104.201 4.95682 104.14 5.06384 104.052 5.18776L99.94 10.6121C99.8845 10.6909 99.8567 10.7473 99.8567 10.7811C99.8567 10.8487 99.9178 10.8825 100.04 10.8825H104.035C104.235 10.8825 104.335 10.967 104.335 11.1359V12.2343C104.335 12.4371 104.224 12.5385 104.002 12.5385H96.8936Z" fill="black"/>
<path d="M108.303 8.82088C108.303 9.45175 108.508 9.96433 108.919 10.3586C109.341 10.7416 109.862 10.9332 110.484 10.9332C110.883 10.9332 111.249 10.8487 111.582 10.6797C111.926 10.4994 112.27 10.2065 112.614 9.80098C112.659 9.75591 112.703 9.73338 112.748 9.73338C112.781 9.73338 112.836 9.75028 112.914 9.78408L114.113 10.291C114.19 10.3248 114.229 10.3811 114.229 10.46C114.229 10.5163 114.207 10.5727 114.163 10.629C113.63 11.395 113.058 11.9358 112.448 12.2512C111.838 12.5554 111.077 12.7075 110.167 12.7075C109.313 12.7075 108.542 12.516 107.854 12.1329C107.166 11.7499 106.627 11.2204 106.239 10.5445C105.85 9.8573 105.656 9.07435 105.656 8.19564C105.656 7.24934 105.856 6.4157 106.255 5.69471C106.655 4.96245 107.193 4.39917 107.87 4.00488C108.558 3.61059 109.307 3.41344 110.118 3.41344C110.961 3.41344 111.71 3.60496 112.365 3.98798C113.02 4.35974 113.53 4.90049 113.896 5.61021C114.263 6.31994 114.446 7.16485 114.446 8.14495C114.446 8.2914 114.429 8.39279 114.396 8.44912C114.373 8.50545 114.296 8.53924 114.163 8.55051H108.503C108.37 8.55051 108.303 8.64063 108.303 8.82088ZM111.649 7.13106C111.771 7.13106 111.849 7.11979 111.882 7.09726C111.915 7.06346 111.932 6.99587 111.932 6.89448C111.932 6.60158 111.865 6.30867 111.732 6.01577C111.599 5.72287 111.405 5.48066 111.15 5.28915C110.894 5.09763 110.584 5.00188 110.217 5.00188C109.662 5.00188 109.207 5.19902 108.852 5.59332C108.497 5.98761 108.325 6.49456 108.336 7.11416L111.649 7.13106Z" fill="black"/>
<path d="M118.737 12.1329C118.737 12.2794 118.703 12.3864 118.637 12.454C118.57 12.5103 118.454 12.5385 118.287 12.5385H116.523C116.389 12.5385 116.295 12.5103 116.24 12.454C116.184 12.3977 116.156 12.3075 116.156 12.1836L116.206 0.321066C116.206 0.107022 116.295 0 116.473 0H118.487C118.653 0 118.737 0.101389 118.737 0.304168V12.1329Z" fill="black"/>
<path d="M5.9262 25.246C5.9262 26.2373 5.67465 26.9696 5.17155 27.4427C4.67585 27.9084 3.9397 28.1412 2.9631 28.1412C1.93471 28.1412 1.18376 27.8896 0.710256 27.3864C0.236752 26.8832 0 26.1059 0 25.0544V19.8273C0 19.7221 0.0406917 19.6695 0.122075 19.6695H0.921113C1.00989 19.6695 1.05429 19.7184 1.05429 19.816V25.291C1.05429 25.9745 1.21705 26.4814 1.54259 26.8119C1.87552 27.1423 2.37122 27.3075 3.02968 27.3075C3.68815 27.3075 4.18385 27.1423 4.51678 26.8119C4.85711 26.4739 5.02728 25.9557 5.02728 25.2572V19.816C5.02728 19.7184 5.06797 19.6695 5.14935 19.6695H5.80412C5.8855 19.6695 5.9262 19.7146 5.9262 19.8047V25.246Z" fill="black"/>
<path d="M11.6219 23.3759C11.4666 23.1431 11.252 22.9591 10.9783 22.8239C10.7119 22.6812 10.4012 22.6098 10.0461 22.6098C9.63914 22.6098 9.30621 22.7 9.04726 22.8802C8.78832 23.0529 8.65884 23.282 8.65884 23.5674C8.65884 23.7401 8.72173 23.8979 8.8475 24.0406C8.98068 24.1757 9.21743 24.2959 9.55776 24.4011L10.9672 24.8291C11.4555 24.9643 11.818 25.1671 12.0548 25.4375C12.2915 25.7003 12.4099 26.0158 12.4099 26.3838C12.4099 26.7293 12.3063 27.0372 12.0991 27.3075C11.892 27.5704 11.6071 27.7769 11.2446 27.9271C10.8821 28.0698 10.4715 28.1412 10.0128 28.1412C9.44308 28.1412 8.93629 28.0285 8.49238 27.8032C8.04847 27.5704 7.73403 27.27 7.54907 26.902C7.52687 26.8644 7.51577 26.8344 7.51577 26.8119C7.51577 26.7743 7.53427 26.7443 7.57126 26.7217L8.00408 26.4739C8.07806 26.4288 8.13355 26.4326 8.17054 26.4852C8.57006 27.1311 9.18783 27.454 10.0239 27.454C10.4604 27.4465 10.8192 27.3564 11.1003 27.1836C11.3889 27.0034 11.5332 26.7706 11.5332 26.4852C11.5332 26.2749 11.4481 26.0984 11.2779 25.9557C11.1077 25.813 10.8303 25.6853 10.4456 25.5727L9.30251 25.246C8.76242 25.1033 8.374 24.9042 8.13725 24.6489C7.90789 24.3935 7.79322 24.0819 7.79322 23.7139C7.79322 23.3684 7.8857 23.0605 8.07066 22.7901C8.26302 22.5197 8.52937 22.3132 8.8697 22.1705C9.21743 22.0203 9.61325 21.9452 10.0572 21.9452C10.5455 21.9452 10.982 22.0391 11.3667 22.2268C11.7588 22.4146 12.0585 22.6699 12.2656 22.9929C12.3174 23.068 12.3137 23.1205 12.2545 23.1506L11.7884 23.4097C11.7588 23.4247 11.7366 23.4322 11.7218 23.4322C11.6922 23.4322 11.6589 23.4134 11.6219 23.3759Z" fill="black"/>
<path d="M14.7401 25.4149C14.7401 25.7754 14.8251 26.1096 14.9953 26.4176C15.1729 26.7255 15.4096 26.9696 15.7056 27.1498C16.0015 27.3301 16.327 27.4202 16.6822 27.4202C17.422 27.4202 17.9991 27.1085 18.4134 26.4852C18.443 26.4551 18.4689 26.4401 18.4911 26.4401C18.5133 26.4326 18.5392 26.4363 18.5688 26.4514L19.0349 26.6879C19.0941 26.7255 19.1015 26.7781 19.0571 26.8457C18.7685 27.2963 18.4245 27.6267 18.025 27.837C17.6255 28.0398 17.1483 28.1412 16.5934 28.1412C16.0533 28.1412 15.5687 28.0135 15.1396 27.7582C14.7105 27.5028 14.3738 27.1461 14.1297 26.6879C13.8929 26.2223 13.7746 25.6928 13.7746 25.0995C13.7746 24.4611 13.8966 23.9054 14.1408 23.4322C14.3849 22.9516 14.7179 22.5836 15.1396 22.3282C15.5687 22.0728 16.0496 21.9452 16.5823 21.9452C17.115 21.9452 17.5811 22.0653 17.9806 22.3057C18.3875 22.546 18.702 22.899 18.9239 23.3646C19.1459 23.8228 19.2568 24.3673 19.2568 24.9981V25.0432C19.2568 25.1108 19.2457 25.1633 19.2235 25.2009C19.2014 25.2309 19.157 25.246 19.0904 25.246H14.8399C14.7734 25.246 14.7401 25.3023 14.7401 25.4149ZM18.136 24.6264C18.2174 24.6264 18.2691 24.6189 18.2913 24.6038C18.3135 24.5813 18.3246 24.5362 18.3246 24.4686C18.3246 24.1382 18.2543 23.834 18.1138 23.5561C17.9806 23.2707 17.7808 23.0454 17.5145 22.8802C17.2555 22.7075 16.9522 22.6211 16.6045 22.6211C16.2272 22.6211 15.8979 22.7187 15.6168 22.914C15.3356 23.1018 15.1211 23.3496 14.9731 23.6575C14.8251 23.9579 14.7549 24.2809 14.7623 24.6264H18.136Z" fill="black"/>
<path d="M21.0692 28.0285C20.9656 28.0285 20.9138 27.9797 20.9138 27.8821V22.2043C20.9138 22.1066 20.9545 22.0578 21.0359 22.0578H21.6795C21.7609 22.0578 21.8016 22.0991 21.8016 22.1817V22.914C21.8016 22.9591 21.8127 22.9854 21.8349 22.9929C21.8645 23.0004 21.8941 22.9854 21.9237 22.9478C22.486 22.2794 23.0593 21.9452 23.6438 21.9452C23.9028 21.9452 24.0323 21.994 24.0323 22.0916V22.7676C24.0323 22.8427 23.999 22.8727 23.9324 22.8577C23.7992 22.8351 23.6327 22.8239 23.433 22.8239C23.2184 22.8239 22.9854 22.8877 22.7338 23.0154C22.4823 23.1431 22.2714 23.3083 22.1012 23.5111C21.9311 23.7139 21.846 23.9204 21.846 24.1307V27.8596C21.846 27.9722 21.7905 28.0285 21.6795 28.0285H21.0692Z" fill="black"/>
<path d="M28.8615 25.4149C28.8615 25.7754 28.9466 26.1096 29.1168 26.4176C29.2943 26.7255 29.5311 26.9696 29.827 27.1498C30.1229 27.3301 30.4485 27.4202 30.8036 27.4202C31.5435 27.4202 32.1205 27.1085 32.5349 26.4852C32.5645 26.4551 32.5903 26.4401 32.6125 26.4401C32.6347 26.4326 32.6606 26.4363 32.6902 26.4514L33.1563 26.6879C33.2155 26.7255 33.2229 26.7781 33.1785 26.8457C32.89 27.2963 32.546 27.6267 32.1464 27.837C31.7469 28.0398 31.2697 28.1412 30.7148 28.1412C30.1747 28.1412 29.6901 28.0135 29.261 27.7582C28.8319 27.5028 28.4953 27.1461 28.2511 26.6879C28.0144 26.2223 27.896 25.6928 27.896 25.0995C27.896 24.4611 28.0181 23.9054 28.2622 23.4322C28.5064 22.9516 28.8393 22.5836 29.261 22.3282C29.6901 22.0728 30.171 21.9452 30.7037 21.9452C31.2364 21.9452 31.7025 22.0653 32.102 22.3057C32.509 22.546 32.8234 22.899 33.0454 23.3646C33.2673 23.8228 33.3783 24.3673 33.3783 24.9981V25.0432C33.3783 25.1108 33.3672 25.1633 33.345 25.2009C33.3228 25.2309 33.2784 25.246 33.2118 25.246H28.9614C28.8948 25.246 28.8615 25.3023 28.8615 25.4149ZM32.2574 24.6264C32.3388 24.6264 32.3906 24.6189 32.4128 24.6038C32.435 24.5813 32.4461 24.5362 32.4461 24.4686C32.4461 24.1382 32.3758 23.834 32.2352 23.5561C32.102 23.2707 31.9023 23.0454 31.6359 22.8802C31.377 22.7075 31.0737 22.6211 30.7259 22.6211C30.3486 22.6211 30.0194 22.7187 29.7382 22.914C29.4571 23.1018 29.2425 23.3496 29.0946 23.6575C28.9466 23.9579 28.8763 24.2809 28.8837 24.6264H32.2574Z" fill="black"/>
<path d="M39.6455 27.792C39.6973 27.8671 39.7232 27.9234 39.7232 27.9609C39.7232 28.006 39.6825 28.0285 39.6011 28.0285H38.8242C38.7133 28.0285 38.6356 27.9947 38.5912 27.9271L37.0264 25.7416C36.9894 25.6816 36.9598 25.6515 36.9376 25.6515C36.9154 25.6515 36.8821 25.6816 36.8377 25.7416L35.2064 27.9271C35.162 27.9947 35.0843 28.0285 34.9733 28.0285H34.4517C34.3482 28.0285 34.2964 27.9947 34.2964 27.9271C34.2964 27.8896 34.3223 27.8333 34.3741 27.7582L36.3938 25.1446C36.4308 25.092 36.4493 25.0507 36.4493 25.0207C36.4493 24.9906 36.4308 24.9493 36.3938 24.8967L34.4628 22.2381C34.4406 22.2155 34.4295 22.1893 34.4295 22.1592C34.4295 22.1292 34.4406 22.1066 34.4628 22.0916C34.485 22.0691 34.5146 22.0578 34.5516 22.0578H35.2952C35.347 22.0578 35.3876 22.0653 35.4172 22.0804C35.4468 22.0954 35.4764 22.1217 35.506 22.1592L37.0042 24.2208C37.0412 24.2659 37.0708 24.2884 37.093 24.2884C37.1226 24.2884 37.1485 24.2659 37.1707 24.2208L38.6245 22.1592C38.6541 22.1217 38.6837 22.0954 38.7133 22.0804C38.7429 22.0653 38.7873 22.0578 38.8464 22.0578H39.4235C39.4975 22.0578 39.5345 22.0804 39.5345 22.1254C39.5345 22.1404 39.5197 22.1705 39.4901 22.2155L37.6146 24.7615C37.5776 24.8141 37.5591 24.8517 37.5591 24.8742C37.5591 24.9118 37.5776 24.9568 37.6146 25.0094L39.6455 27.792Z" fill="black"/>
<path d="M41.9893 22.0578C42.0929 22.0578 42.1446 22.1142 42.1446 22.2268V22.7C42.1446 22.7676 42.1631 22.8014 42.2001 22.8014C42.2223 22.8014 42.2519 22.7826 42.2889 22.745C42.4443 22.5873 42.5812 22.4596 42.6995 22.362C42.8179 22.2644 42.9918 22.1705 43.2211 22.0804C43.4505 21.9902 43.7205 21.9452 44.0313 21.9452C44.4974 21.9452 44.9117 22.0578 45.2742 22.2831C45.6441 22.5084 45.9327 22.8464 46.1398 23.297C46.3544 23.7477 46.4617 24.2997 46.4617 24.9531C46.4617 25.614 46.3544 26.1848 46.1398 26.6654C45.9327 27.1461 45.6367 27.5141 45.252 27.7694C44.8673 28.0173 44.4197 28.1412 43.9092 28.1412C43.2951 28.1412 42.7698 27.9534 42.3333 27.5779C42.2815 27.5253 42.2408 27.4991 42.2112 27.4991C42.1742 27.4991 42.1557 27.5479 42.1557 27.6455V29.7409C42.1557 29.8385 42.115 29.8873 42.0337 29.8873H41.3456C41.2642 29.8873 41.2235 29.8385 41.2235 29.7409V22.2381C41.2235 22.178 41.2346 22.1329 41.2568 22.1029C41.2864 22.0728 41.3345 22.0578 41.4011 22.0578H41.9893ZM42.1557 26.7105C42.3925 26.9583 42.6292 27.1461 42.866 27.2738C43.1101 27.3939 43.3765 27.454 43.665 27.454C44.2199 27.454 44.6638 27.24 44.9968 26.8119C45.3371 26.3838 45.5073 25.7679 45.5073 24.9643C45.5073 24.1833 45.3408 23.6012 45.0079 23.2182C44.6749 22.8276 44.2458 22.6324 43.7205 22.6324C43.4246 22.6324 43.1582 22.7 42.9215 22.8351C42.6847 22.9628 42.4961 23.1281 42.3555 23.3308C42.2223 23.5336 42.1557 23.7326 42.1557 23.9279V26.7105Z" fill="black"/>
<path d="M48.8136 25.4149C48.8136 25.7754 48.8987 26.1096 49.0689 26.4176C49.2464 26.7255 49.4832 26.9696 49.7791 27.1498C50.075 27.3301 50.4006 27.4202 50.7557 27.4202C51.4956 27.4202 52.0726 27.1085 52.487 26.4852C52.5166 26.4551 52.5424 26.4401 52.5646 26.4401C52.5868 26.4326 52.6127 26.4363 52.6423 26.4514L53.1084 26.6879C53.1676 26.7255 53.175 26.7781 53.1306 26.8457C52.8421 27.2963 52.4981 27.6267 52.0985 27.837C51.699 28.0398 51.2218 28.1412 50.6669 28.1412C50.1268 28.1412 49.6422 28.0135 49.2131 27.7582C48.784 27.5028 48.4474 27.1461 48.2032 26.6879C47.9665 26.2223 47.8481 25.6928 47.8481 25.0995C47.8481 24.4611 47.9702 23.9054 48.2143 23.4322C48.4585 22.9516 48.7914 22.5836 49.2131 22.3282C49.6422 22.0728 50.1231 21.9452 50.6558 21.9452C51.1885 21.9452 51.6546 22.0653 52.0541 22.3057C52.4611 22.546 52.7755 22.899 52.9975 23.3646C53.2194 23.8228 53.3304 24.3673 53.3304 24.9981V25.0432C53.3304 25.1108 53.3193 25.1633 53.2971 25.2009C53.2749 25.2309 53.2305 25.246 53.1639 25.246H48.9135C48.8469 25.246 48.8136 25.3023 48.8136 25.4149ZM52.2095 24.6264C52.2909 24.6264 52.3427 24.6189 52.3649 24.6038C52.3871 24.5813 52.3982 24.5362 52.3982 24.4686C52.3982 24.1382 52.3279 23.834 52.1873 23.5561C52.0541 23.2707 51.8544 23.0454 51.588 22.8802C51.3291 22.7075 51.0258 22.6211 50.678 22.6211C50.3007 22.6211 49.9715 22.7187 49.6903 22.914C49.4092 23.1018 49.1946 23.3496 49.0467 23.6575C48.8987 23.9579 48.8284 24.2809 48.8358 24.6264H52.2095Z" fill="black"/>
<path d="M55.1427 28.0285C55.0391 28.0285 54.9873 27.9797 54.9873 27.8821V22.2043C54.9873 22.1066 55.028 22.0578 55.1094 22.0578H55.7531C55.8345 22.0578 55.8751 22.0991 55.8751 22.1817V22.914C55.8751 22.9591 55.8862 22.9854 55.9084 22.9929C55.938 23.0004 55.9676 22.9854 55.9972 22.9478C56.5595 22.2794 57.1329 21.9452 57.7174 21.9452C57.9763 21.9452 58.1058 21.994 58.1058 22.0916V22.7676C58.1058 22.8427 58.0725 22.8727 58.0059 22.8577C57.8727 22.8351 57.7063 22.8239 57.5065 22.8239C57.292 22.8239 57.0589 22.8877 56.8074 23.0154C56.5558 23.1431 56.345 23.3083 56.1748 23.5111C56.0046 23.7139 55.9195 23.9204 55.9195 24.1307V27.8596C55.9195 27.9722 55.8641 28.0285 55.7531 28.0285H55.1427Z" fill="black"/>
<path d="M60.5591 20.7736C60.5591 20.8487 60.5443 20.905 60.5147 20.9425C60.4851 20.9726 60.4333 20.9876 60.3593 20.9876H59.7157C59.6047 20.9876 59.5492 20.9238 59.5492 20.7961V19.8498C59.5492 19.7296 59.601 19.6695 59.7046 19.6695H60.4037C60.4481 19.6695 60.4851 19.6846 60.5147 19.7146C60.5443 19.7446 60.5591 19.786 60.5591 19.8385V20.7736ZM60.5147 27.837C60.5147 27.9121 60.4999 27.9647 60.4703 27.9947C60.4407 28.0173 60.3889 28.0285 60.3149 28.0285H59.749C59.6824 28.0285 59.638 28.0173 59.6158 27.9947C59.5936 27.9722 59.5825 27.9309 59.5825 27.8708V22.2155C59.5825 22.1104 59.6269 22.0578 59.7157 22.0578H60.3926C60.474 22.0578 60.5147 22.1066 60.5147 22.2043V27.837Z" fill="black"/>
<path d="M63.206 25.4149C63.206 25.7754 63.2911 26.1096 63.4612 26.4176C63.6388 26.7255 63.8756 26.9696 64.1715 27.1498C64.4674 27.3301 64.793 27.4202 65.1481 27.4202C65.8879 27.4202 66.465 27.1085 66.8793 26.4852C66.9089 26.4551 66.9348 26.4401 66.957 26.4401C66.9792 26.4326 67.0051 26.4363 67.0347 26.4514L67.5008 26.6879C67.56 26.7255 67.5674 26.7781 67.523 26.8457C67.2345 27.2963 66.8904 27.6267 66.4909 27.837C66.0914 28.0398 65.6142 28.1412 65.0593 28.1412C64.5192 28.1412 64.0346 28.0135 63.6055 27.7582C63.1764 27.5028 62.8398 27.1461 62.5956 26.6879C62.3589 26.2223 62.2405 25.6928 62.2405 25.0995C62.2405 24.4611 62.3626 23.9054 62.6067 23.4322C62.8509 22.9516 63.1838 22.5836 63.6055 22.3282C64.0346 22.0728 64.5155 21.9452 65.0482 21.9452C65.5809 21.9452 66.047 22.0653 66.4465 22.3057C66.8535 22.546 67.1679 22.899 67.3898 23.3646C67.6118 23.8228 67.7228 24.3673 67.7228 24.9981V25.0432C67.7228 25.1108 67.7117 25.1633 67.6895 25.2009C67.6673 25.2309 67.6229 25.246 67.5563 25.246H63.3059C63.2393 25.246 63.206 25.3023 63.206 25.4149ZM66.6019 24.6264C66.6833 24.6264 66.7351 24.6189 66.7573 24.6038C66.7795 24.5813 66.7906 24.5362 66.7906 24.4686C66.7906 24.1382 66.7203 23.834 66.5797 23.5561C66.4465 23.2707 66.2468 23.0454 65.9804 22.8802C65.7215 22.7075 65.4181 22.6211 65.0704 22.6211C64.6931 22.6211 64.3639 22.7187 64.0827 22.914C63.8016 23.1018 63.587 23.3496 63.439 23.6575C63.2911 23.9579 63.2208 24.2809 63.2282 24.6264H66.6019Z" fill="black"/>
<path d="M69.5351 28.0285C69.4315 28.0285 69.3797 27.9797 69.3797 27.8821V22.2043C69.3797 22.1066 69.4204 22.0578 69.5018 22.0578H70.1677C70.249 22.0578 70.2897 22.0991 70.2897 22.1817V22.8351C70.2897 22.9178 70.323 22.929 70.3896 22.8689C70.8039 22.5385 71.1554 22.3019 71.4439 22.1592C71.7398 22.0165 72.0691 21.9452 72.4316 21.9452C72.9939 21.9452 73.4304 22.0991 73.7411 22.4071C74.0593 22.715 74.2183 23.128 74.2183 23.6463V27.8483C74.2183 27.9685 74.1628 28.0285 74.0519 28.0285H73.4304C73.3342 28.0285 73.2861 27.9797 73.2861 27.8821V23.8603C73.2861 23.4848 73.1899 23.1956 72.9976 22.9929C72.8126 22.7901 72.5241 22.6887 72.132 22.6887C71.8212 22.6887 71.5327 22.76 71.2663 22.9027C71.0074 23.0379 70.6893 23.2707 70.3119 23.6012V27.8596C70.3119 27.9196 70.2971 27.9647 70.2675 27.9947C70.2453 28.0173 70.2047 28.0285 70.1455 28.0285H69.5351Z" fill="black"/>
<path d="M78.6489 21.9452C79.189 21.9452 79.6477 22.0728 80.0251 22.3282C80.4098 22.5836 80.7168 22.9215 80.9462 23.3421L80.9684 23.4322C80.9684 23.4773 80.9425 23.5036 80.8907 23.5111L80.2803 23.6575L80.247 23.6688C80.21 23.6688 80.173 23.6388 80.136 23.5787C79.8993 23.2557 79.6699 23.0192 79.448 22.8689C79.2334 22.7187 78.9856 22.6436 78.7044 22.6436C78.1273 22.6436 77.6686 22.8614 77.3283 23.297C76.988 23.7251 76.8178 24.3072 76.8178 25.0432C76.8178 25.7867 76.988 26.3725 77.3283 26.8006C77.676 27.2287 78.1421 27.4427 78.7266 27.4427C79.0744 27.4427 79.3777 27.3564 79.6366 27.1836C79.903 27.0109 80.1434 26.7443 80.358 26.3838C80.3802 26.3462 80.4024 26.3275 80.4246 26.3275C80.4468 26.3199 80.4727 26.3237 80.5023 26.3387L80.9795 26.519C81.0313 26.5415 81.046 26.5903 81.0239 26.6654C80.7945 27.101 80.4801 27.4578 80.0805 27.7356C79.681 28.006 79.2038 28.1412 78.6489 28.1412C78.1088 28.1412 77.6279 28.0135 77.2062 27.7582C76.7845 27.4953 76.4553 27.1311 76.2185 26.6654C75.9818 26.1998 75.8634 25.6665 75.8634 25.0657C75.8634 24.4649 75.9818 23.9279 76.2185 23.4547C76.4553 22.9741 76.7845 22.6023 77.2062 22.3395C77.6353 22.0766 78.1162 21.9452 78.6489 21.9452Z" fill="black"/>
<path d="M83.1906 25.4149C83.1906 25.7754 83.2757 26.1096 83.4458 26.4176C83.6234 26.7255 83.8602 26.9696 84.1561 27.1498C84.452 27.3301 84.7776 27.4202 85.1327 27.4202C85.8726 27.4202 86.4496 27.1085 86.864 26.4852C86.8936 26.4551 86.9194 26.4401 86.9416 26.4401C86.9638 26.4326 86.9897 26.4363 87.0193 26.4514L87.4854 26.6879C87.5446 26.7255 87.552 26.7781 87.5076 26.8457C87.2191 27.2963 86.8751 27.6267 86.4755 27.837C86.076 28.0398 85.5988 28.1412 85.0439 28.1412C84.5038 28.1412 84.0192 28.0135 83.5901 27.7582C83.161 27.5028 82.8244 27.1461 82.5802 26.6879C82.3435 26.2223 82.2251 25.6928 82.2251 25.0995C82.2251 24.4611 82.3472 23.9054 82.5913 23.4322C82.8355 22.9516 83.1684 22.5836 83.5901 22.3282C84.0192 22.0728 84.5001 21.9452 85.0328 21.9452C85.5655 21.9452 86.0316 22.0653 86.4311 22.3057C86.8381 22.546 87.1525 22.899 87.3745 23.3646C87.5964 23.8228 87.7074 24.3673 87.7074 24.9981V25.0432C87.7074 25.1108 87.6963 25.1633 87.6741 25.2009C87.6519 25.2309 87.6075 25.246 87.5409 25.246H83.2905C83.2239 25.246 83.1906 25.3023 83.1906 25.4149ZM86.5865 24.6264C86.6679 24.6264 86.7197 24.6189 86.7419 24.6038C86.7641 24.5813 86.7752 24.5362 86.7752 24.4686C86.7752 24.1382 86.7049 23.834 86.5643 23.5561C86.4311 23.2707 86.2314 23.0454 85.965 22.8802C85.7061 22.7075 85.4028 22.6211 85.055 22.6211C84.6777 22.6211 84.3485 22.7187 84.0673 22.914C83.7862 23.1018 83.5716 23.3496 83.4237 23.6575C83.2757 23.9579 83.2054 24.2809 83.2128 24.6264H86.5865Z" fill="black"/>
<path d="M94.9919 19.5456C95.5986 19.5456 96.098 19.6996 96.4901 20.0075C96.8822 20.3154 97.0783 20.7247 97.0783 21.2354C97.0783 21.6635 96.9155 22.0729 96.59 22.4634C96.2719 22.8539 95.7836 23.1956 95.1251 23.4885C95.0659 23.5186 95.0363 23.5486 95.0363 23.5787C95.0363 23.6087 95.0548 23.6425 95.0918 23.6801L96.8231 25.7304C96.86 25.7754 96.8859 25.798 96.9007 25.798C96.9155 25.798 96.934 25.7867 96.9562 25.7642C96.9784 25.7416 96.9969 25.7229 97.0117 25.7078C97.2707 25.46 97.5481 25.1183 97.844 24.6827C98.14 24.2471 98.3323 23.8979 98.4211 23.635C98.4507 23.5524 98.5136 23.5261 98.6098 23.5561L99.0537 23.7139C99.0907 23.7289 99.1166 23.7552 99.1314 23.7927C99.1536 23.8303 99.161 23.8678 99.1536 23.9054C99.0426 24.2208 98.8354 24.6038 98.5321 25.0544C98.2362 25.4976 97.9106 25.9144 97.5555 26.3049C97.5185 26.3425 97.5 26.3725 97.5 26.395C97.5 26.4101 97.5111 26.4288 97.5333 26.4514C97.5555 26.4739 97.5703 26.4889 97.5777 26.4964C97.7849 26.6842 98.0623 26.8457 98.41 26.9808C98.7652 27.116 99.1055 27.1874 99.431 27.1949C99.542 27.1949 99.5975 27.2437 99.5975 27.3413V27.8258C99.5975 27.9009 99.5827 27.9534 99.5531 27.9835C99.5235 28.0135 99.4717 28.0285 99.3977 28.0285C98.976 28.0285 98.521 27.9384 98.0327 27.7582C97.5518 27.5779 97.1523 27.3639 96.8342 27.116C96.7898 27.086 96.7565 27.071 96.7343 27.071C96.7195 27.071 96.6862 27.0897 96.6344 27.1273C95.9019 27.7657 95.0733 28.0849 94.1485 28.0849C93.3865 28.0849 92.7835 27.8896 92.3396 27.4991C91.9031 27.101 91.6848 26.5678 91.6848 25.8994C91.6848 25.4487 91.818 25.0357 92.0843 24.6602C92.3507 24.2846 92.7835 23.9166 93.3828 23.5561C93.4567 23.5111 93.4937 23.4698 93.4937 23.4322C93.4937 23.3947 93.4641 23.3421 93.405 23.2745C92.9093 22.7338 92.6614 22.1817 92.6614 21.6185C92.6614 21.2279 92.7613 20.875 92.961 20.5595C93.1682 20.2441 93.4493 19.9962 93.8045 19.816C94.1596 19.6357 94.5554 19.5456 94.9919 19.5456ZM95.0141 20.2216C94.5998 20.2216 94.2669 20.353 94.0153 20.6158C93.7638 20.8787 93.638 21.1979 93.638 21.5734C93.638 21.9339 93.7897 22.2831 94.093 22.6211L94.3927 22.9591C94.4148 22.9891 94.4481 23.0041 94.4925 23.0041C94.5147 23.0041 94.548 22.9966 94.5924 22.9816C95.1547 22.7112 95.5616 22.4409 95.8132 22.1705C96.0647 21.8926 96.1905 21.5884 96.1905 21.258C96.1905 20.92 96.0795 20.6647 95.8576 20.4919C95.643 20.3117 95.3619 20.2216 95.0141 20.2216ZM94.2262 24.1645C94.1744 24.0969 94.1189 24.0631 94.0597 24.0631C94.0153 24.0631 93.9672 24.0781 93.9154 24.1081C93.5381 24.3034 93.2385 24.555 93.0165 24.8629C92.802 25.1633 92.6947 25.4938 92.6947 25.8543C92.6947 26.2824 92.8464 26.6354 93.1497 26.9133C93.4604 27.1911 93.8489 27.3301 94.315 27.3301C94.6183 27.3301 94.9253 27.2662 95.2361 27.1386C95.5468 27.0034 95.8169 26.8306 96.0462 26.6204C96.1054 26.5603 96.135 26.5115 96.135 26.4739C96.135 26.4439 96.1165 26.4026 96.0795 26.35L94.2262 24.1645Z" fill="black"/>
<path d="M104.188 19.6695C104.921 19.6695 105.501 19.6733 105.931 19.6808C107.425 19.7033 108.516 20.0563 109.204 20.7398C109.9 21.4232 110.248 22.4446 110.248 23.804C110.248 26.6204 108.772 28.0285 105.82 28.0285H104.188C104.085 28.0285 104.033 27.9685 104.033 27.8483V19.816C104.033 19.7634 104.044 19.7259 104.066 19.7033C104.088 19.6808 104.129 19.6695 104.188 19.6695ZM105.187 20.4919C105.128 20.4919 105.098 20.5445 105.098 20.6496V27.0935C105.098 27.1386 105.106 27.1724 105.12 27.1949C105.143 27.2099 105.18 27.2174 105.231 27.2174H105.653C106.482 27.2174 107.148 27.1085 107.651 26.8907C108.161 26.6654 108.535 26.3049 108.772 25.8092C109.016 25.3136 109.138 24.6526 109.138 23.8265C109.138 23.0004 109.023 22.3507 108.794 21.8776C108.564 21.3969 108.213 21.0552 107.74 20.8524C107.273 20.6421 106.652 20.5257 105.875 20.5032C105.727 20.4957 105.498 20.4919 105.187 20.4919Z" fill="black"/>
<path d="M113.143 20.7736C113.143 20.8487 113.129 20.905 113.099 20.9425C113.069 20.9726 113.018 20.9876 112.944 20.9876H112.3C112.189 20.9876 112.133 20.9238 112.133 20.7961V19.8498C112.133 19.7296 112.185 19.6695 112.289 19.6695H112.988C113.032 19.6695 113.069 19.6846 113.099 19.7146C113.129 19.7446 113.143 19.786 113.143 19.8385V20.7736ZM113.099 27.837C113.099 27.9121 113.084 27.9647 113.055 27.9947C113.025 28.0173 112.973 28.0285 112.899 28.0285H112.333C112.267 28.0285 112.222 28.0173 112.2 27.9947C112.178 27.9722 112.167 27.9309 112.167 27.8708V22.2155C112.167 22.1104 112.211 22.0578 112.3 22.0578H112.977C113.058 22.0578 113.099 22.1066 113.099 22.2043V27.837Z" fill="black"/>
<path d="M120.485 21.9564C120.625 21.9564 120.695 22.0165 120.695 22.1367V22.531C120.695 22.6061 120.677 22.6624 120.64 22.7C120.61 22.73 120.555 22.7413 120.473 22.7338C120.229 22.7338 120.037 22.7676 119.896 22.8351C119.719 22.9103 119.645 22.9966 119.674 23.0943C119.682 23.1243 119.704 23.1806 119.741 23.2632C119.778 23.3459 119.808 23.4397 119.83 23.5449C119.852 23.6425 119.863 23.7477 119.863 23.8603C119.863 24.3935 119.656 24.8291 119.242 25.1671C118.835 25.5051 118.239 25.6741 117.455 25.6741C116.93 25.6741 116.552 25.7191 116.323 25.8092C116.094 25.8994 115.979 26.0158 115.979 26.1585C115.979 26.2711 116.057 26.3575 116.212 26.4176C116.367 26.4701 116.626 26.5077 116.989 26.5302L118.42 26.6091C119.057 26.6466 119.53 26.8006 119.841 27.071C120.152 27.3413 120.307 27.7094 120.307 28.175C120.307 28.7458 120.059 29.1926 119.563 29.5156C119.075 29.8385 118.376 30 117.466 30C116.526 30 115.809 29.8611 115.313 29.5832C114.825 29.3128 114.581 28.9223 114.581 28.4116C114.581 27.9084 114.928 27.484 115.624 27.1386C115.705 27.101 115.705 27.0597 115.624 27.0146C115.283 26.8644 115.113 26.6429 115.113 26.35C115.113 26.1848 115.187 26.027 115.335 25.8768C115.491 25.7266 115.709 25.6027 115.99 25.5051C116.027 25.4976 116.045 25.4788 116.045 25.4487C116.045 25.4112 116.027 25.3849 115.99 25.3699C115.664 25.1971 115.424 24.9906 115.269 24.7503C115.113 24.5024 115.036 24.2058 115.036 23.8603C115.036 23.2745 115.254 22.8126 115.69 22.4747C116.127 22.1367 116.745 21.9677 117.544 21.9677C118.247 21.9677 118.801 22.1367 119.208 22.4747C119.26 22.5122 119.297 22.531 119.319 22.531C119.349 22.531 119.39 22.5122 119.441 22.4747C119.582 22.332 119.745 22.2118 119.93 22.1142C120.122 22.009 120.307 21.9564 120.485 21.9564ZM117.455 25.077C117.965 25.077 118.346 24.9718 118.598 24.7615C118.857 24.5513 118.986 24.2471 118.986 23.849C118.986 23.4435 118.857 23.1281 118.598 22.9027C118.339 22.6774 117.958 22.5648 117.455 22.5648C116.967 22.5648 116.586 22.6812 116.312 22.914C116.038 23.1393 115.901 23.451 115.901 23.849C115.901 24.2396 116.034 24.5437 116.301 24.7615C116.574 24.9718 116.959 25.077 117.455 25.077ZM116.478 27.2963C116.345 27.2888 116.193 27.3301 116.023 27.4202C115.853 27.5028 115.709 27.623 115.59 27.7807C115.472 27.9384 115.413 28.1112 115.413 28.2989C115.413 28.6594 115.594 28.9335 115.957 29.1213C116.319 29.3166 116.856 29.4142 117.566 29.4142C118.816 29.4142 119.441 29.0387 119.441 28.2876C119.441 28.0248 119.353 27.8182 119.175 27.668C119.005 27.5178 118.724 27.4315 118.332 27.4089L116.478 27.2963Z" fill="black"/>
<path d="M123.168 20.7736C123.168 20.8487 123.153 20.905 123.124 20.9425C123.094 20.9726 123.042 20.9876 122.968 20.9876H122.325C122.214 20.9876 122.158 20.9238 122.158 20.7961V19.8498C122.158 19.7296 122.21 19.6695 122.314 19.6695H123.013C123.057 19.6695 123.094 19.6846 123.124 19.7146C123.153 19.7446 123.168 19.786 123.168 19.8385V20.7736ZM123.124 27.837C123.124 27.9121 123.109 27.9647 123.079 27.9947C123.05 28.0173 122.998 28.0285 122.924 28.0285H122.358C122.291 28.0285 122.247 28.0173 122.225 27.9947C122.203 27.9722 122.192 27.9309 122.192 27.8708V22.2155C122.192 22.1104 122.236 22.0578 122.325 22.0578H123.002C123.083 22.0578 123.124 22.1066 123.124 22.2043V27.837Z" fill="black"/>
<path d="M126.747 22.7563C126.688 22.7563 126.658 22.7901 126.658 22.8577V26.4288C126.658 26.7668 126.714 26.9996 126.825 27.1273C126.936 27.255 127.117 27.3188 127.369 27.3188H128.134C128.216 27.3188 128.257 27.3601 128.257 27.4427L128.245 27.8258C128.245 27.9009 128.201 27.9497 128.112 27.9722C127.92 28.0098 127.572 28.0285 127.069 28.0285C126.603 28.0285 126.263 27.9196 126.048 27.7018C125.834 27.4765 125.726 27.1235 125.726 26.6429V22.8802C125.726 22.7976 125.689 22.7563 125.615 22.7563H124.727C124.646 22.7563 124.605 22.7187 124.605 22.6436V22.1705C124.605 22.0954 124.642 22.0578 124.716 22.0578H125.66C125.711 22.0578 125.737 22.0278 125.737 21.9677L125.859 20.1765C125.859 20.0789 125.9 20.03 125.982 20.03H126.536C126.625 20.03 126.67 20.0826 126.67 20.1878V21.9677C126.67 22.0278 126.699 22.0578 126.758 22.0578H128.157C128.238 22.0578 128.279 22.0916 128.279 22.1592V22.6436C128.279 22.7187 128.238 22.7563 128.157 22.7563H126.747Z" fill="black"/>
<path d="M133.25 27.3075C132.681 27.8633 132.022 28.1412 131.275 28.1412C130.698 28.1412 130.243 27.9947 129.91 27.7018C129.584 27.4014 129.421 27.0034 129.421 26.5077C129.421 25.9069 129.669 25.4337 130.165 25.0882C130.668 24.7428 131.393 24.54 132.34 24.4799L133.206 24.4123C133.332 24.3973 133.394 24.341 133.394 24.2433V23.9392C133.394 23.5336 133.269 23.2144 133.017 22.9816C132.773 22.7413 132.44 22.6211 132.018 22.6211C131.367 22.6211 130.835 22.9215 130.42 23.5223C130.398 23.5599 130.376 23.5862 130.354 23.6012C130.331 23.6087 130.302 23.605 130.265 23.5899L129.666 23.3872C129.629 23.3721 129.61 23.3458 129.61 23.3083C129.61 23.2858 129.621 23.252 129.643 23.2069C129.865 22.8089 130.18 22.5009 130.587 22.2831C131.001 22.0578 131.489 21.9452 132.052 21.9452C132.777 21.9452 133.332 22.1179 133.716 22.4634C134.101 22.8014 134.293 23.2707 134.293 23.8716V27.8596C134.293 27.9271 134.282 27.9722 134.26 27.9947C134.238 28.0173 134.197 28.0285 134.138 28.0285H133.583C133.494 28.0285 133.443 27.9685 133.428 27.8483L133.406 27.3301C133.398 27.2775 133.38 27.2512 133.35 27.2512C133.32 27.2512 133.287 27.27 133.25 27.3075ZM133.394 25.1671C133.394 25.0469 133.339 24.9869 133.228 24.9869L132.507 25.0544C131.819 25.0995 131.286 25.2347 130.909 25.46C130.539 25.6853 130.354 25.997 130.354 26.395C130.354 26.718 130.465 26.9733 130.687 27.1611C130.916 27.3489 131.219 27.4427 131.597 27.4427C131.826 27.4427 132.052 27.4014 132.274 27.3188C132.496 27.2362 132.692 27.1235 132.862 26.9808C133.032 26.8457 133.161 26.703 133.25 26.5528C133.346 26.395 133.394 26.2448 133.394 26.1021V25.1671Z" fill="black"/>
<path d="M137.202 27.837C137.202 27.9121 137.187 27.9647 137.158 27.9947C137.128 28.0173 137.076 28.0285 137.002 28.0285H136.425C136.359 28.0285 136.314 28.0173 136.292 27.9947C136.27 27.9722 136.259 27.9309 136.259 27.8708L136.27 19.8273C136.27 19.7221 136.314 19.6695 136.403 19.6695H137.069C137.158 19.6695 137.202 19.7184 137.202 19.816V27.837Z" fill="black"/>
<path d="M142.758 22.0578C142.861 22.0578 142.913 22.1142 142.913 22.2268V22.7C142.913 22.7676 142.932 22.8014 142.969 22.8014C142.991 22.8014 143.02 22.7826 143.057 22.745C143.213 22.5873 143.35 22.4596 143.468 22.362C143.586 22.2644 143.76 22.1705 143.99 22.0804C144.219 21.9902 144.489 21.9452 144.8 21.9452C145.266 21.9452 145.68 22.0578 146.043 22.2831C146.413 22.5084 146.701 22.8464 146.908 23.297C147.123 23.7477 147.23 24.2997 147.23 24.9531C147.23 25.614 147.123 26.1848 146.908 26.6654C146.701 27.1461 146.405 27.5141 146.02 27.7694C145.636 28.0173 145.188 28.1412 144.678 28.1412C144.063 28.1412 143.538 27.9534 143.102 27.5779C143.05 27.5253 143.009 27.4991 142.98 27.4991C142.943 27.4991 142.924 27.5479 142.924 27.6455V29.7409C142.924 29.8385 142.883 29.8873 142.802 29.8873H142.114C142.033 29.8873 141.992 29.8385 141.992 29.7409V22.2381C141.992 22.178 142.003 22.1329 142.025 22.1029C142.055 22.0728 142.103 22.0578 142.169 22.0578H142.758ZM142.924 26.7105C143.161 26.9583 143.398 27.1461 143.634 27.2738C143.879 27.3939 144.145 27.454 144.433 27.454C144.988 27.454 145.432 27.24 145.765 26.8119C146.105 26.3838 146.276 25.7679 146.276 24.9643C146.276 24.1833 146.109 23.6012 145.776 23.2182C145.443 22.8276 145.014 22.6324 144.489 22.6324C144.193 22.6324 143.927 22.7 143.69 22.8351C143.453 22.9628 143.264 23.1281 143.124 23.3308C142.991 23.5336 142.924 23.7326 142.924 23.9279V26.7105Z" fill="black"/>
<path d="M149.116 28.0285C149.012 28.0285 148.961 27.9797 148.961 27.8821V22.2043C148.961 22.1066 149.001 22.0578 149.083 22.0578H149.726C149.808 22.0578 149.848 22.0991 149.848 22.1817V22.914C149.848 22.9591 149.859 22.9854 149.882 22.9929C149.911 23.0004 149.941 22.9854 149.97 22.9478C150.533 22.2794 151.106 21.9452 151.691 21.9452C151.95 21.9452 152.079 21.994 152.079 22.0916V22.7676C152.079 22.8427 152.046 22.8727 151.979 22.8577C151.846 22.8351 151.679 22.8239 151.48 22.8239C151.265 22.8239 151.032 22.8877 150.781 23.0154C150.529 23.1431 150.318 23.3083 150.148 23.5111C149.978 23.7139 149.893 23.9204 149.893 24.1307V27.8596C149.893 27.9722 149.837 28.0285 149.726 28.0285H149.116Z" fill="black"/>
<path d="M155.878 28.1412C155.324 28.1412 154.832 28.0135 154.402 27.7582C153.981 27.4953 153.652 27.1311 153.415 26.6654C153.185 26.1998 153.071 25.6703 153.071 25.077C153.071 24.4686 153.189 23.9279 153.426 23.4547C153.67 22.9816 154.003 22.6136 154.425 22.3507C154.854 22.0804 155.342 21.9452 155.89 21.9452C156.437 21.9452 156.922 22.0804 157.343 22.3507C157.773 22.6136 158.102 22.9816 158.331 23.4547C158.568 23.9279 158.686 24.4649 158.686 25.0657C158.686 25.659 158.568 26.1885 158.331 26.6542C158.094 27.1198 157.761 27.484 157.332 27.7469C156.911 28.0098 156.426 28.1412 155.878 28.1412ZM155.901 27.4315C156.478 27.4315 156.925 27.2212 157.244 26.8006C157.569 26.3725 157.732 25.7867 157.732 25.0432C157.732 24.3072 157.565 23.7251 157.232 23.297C156.907 22.8614 156.459 22.6436 155.89 22.6436C155.313 22.6436 154.857 22.8614 154.525 23.297C154.192 23.7251 154.025 24.3072 154.025 25.0432C154.025 25.7792 154.192 26.3612 154.525 26.7893C154.857 27.2174 155.316 27.4315 155.901 27.4315Z" fill="black"/>
<path d="M164.589 28.0285C164.485 28.0285 164.434 27.976 164.434 27.8708V27.3864C164.434 27.3188 164.415 27.285 164.378 27.285C164.356 27.285 164.326 27.3038 164.289 27.3413C164.067 27.5667 163.823 27.7582 163.557 27.9159C163.298 28.0661 162.961 28.1412 162.547 28.1412C162.073 28.1412 161.652 28.0285 161.282 27.8032C160.912 27.5779 160.62 27.24 160.405 26.7893C160.191 26.3312 160.083 25.7792 160.083 25.1333C160.083 24.5024 160.194 23.9467 160.416 23.466C160.638 22.9854 160.945 22.6136 161.337 22.3507C161.729 22.0804 162.177 21.9452 162.68 21.9452C163.013 21.9452 163.302 21.9977 163.546 22.1029C163.79 22.208 164.019 22.3545 164.234 22.5422C164.293 22.5873 164.334 22.6098 164.356 22.6098C164.393 22.6098 164.411 22.561 164.411 22.4634V19.816C164.411 19.7184 164.452 19.6695 164.533 19.6695H165.21C165.292 19.6695 165.332 19.7184 165.332 19.816V27.8483C165.332 27.9159 165.321 27.9647 165.299 27.9947C165.277 28.0173 165.229 28.0285 165.155 28.0285H164.589ZM164.4 23.3759C164.164 23.1356 163.923 22.9553 163.679 22.8351C163.442 22.7075 163.183 22.6436 162.902 22.6436C162.34 22.6436 161.888 22.8577 161.548 23.2858C161.208 23.7139 161.038 24.3184 161.038 25.0995C161.038 25.8881 161.204 26.4777 161.537 26.8682C161.877 27.2587 162.31 27.454 162.835 27.454C163.124 27.454 163.387 27.3864 163.623 27.2512C163.868 27.1085 164.056 26.932 164.189 26.7217C164.33 26.5115 164.4 26.3012 164.4 26.0909V23.3759Z" fill="black"/>
<path d="M169.393 27.3977C169.696 27.3977 169.992 27.3151 170.281 27.1498C170.577 26.9771 170.876 26.733 171.18 26.4176V22.2155C171.18 22.1104 171.239 22.0578 171.357 22.0578H171.968C172.071 22.0578 172.123 22.1104 172.123 22.2155L172.101 27.8821C172.101 27.9797 172.06 28.0285 171.979 28.0285H171.335C171.254 28.0285 171.213 27.9872 171.213 27.9046V27.24C171.213 27.1498 171.18 27.1386 171.113 27.2062C170.714 27.5516 170.358 27.7957 170.048 27.9384C169.737 28.0736 169.419 28.1412 169.093 28.1412C168.575 28.1412 168.15 27.9835 167.817 27.668C167.484 27.3526 167.318 26.9358 167.318 26.4176V22.2268C167.318 22.1142 167.373 22.0578 167.484 22.0578H168.106C168.202 22.0578 168.25 22.1104 168.25 22.2155V26.1697C168.25 26.5452 168.35 26.8457 168.55 27.071C168.757 27.2888 169.038 27.3977 169.393 27.3977Z" fill="black"/>
<path d="M176.61 21.9452C177.15 21.9452 177.609 22.0728 177.987 22.3282C178.371 22.5836 178.678 22.9215 178.908 23.3421L178.93 23.4322C178.93 23.4773 178.904 23.5036 178.852 23.5111L178.242 23.6575L178.208 23.6688C178.171 23.6688 178.134 23.6388 178.097 23.5787C177.861 23.2557 177.631 23.0192 177.409 22.8689C177.195 22.7187 176.947 22.6436 176.666 22.6436C176.089 22.6436 175.63 22.8614 175.29 23.297C174.949 23.7251 174.779 24.3072 174.779 25.0432C174.779 25.7867 174.949 26.3725 175.29 26.8006C175.637 27.2287 176.104 27.4427 176.688 27.4427C177.036 27.4427 177.339 27.3564 177.598 27.1836C177.864 27.0109 178.105 26.7443 178.319 26.3838C178.342 26.3462 178.364 26.3275 178.386 26.3275C178.408 26.3199 178.434 26.3237 178.464 26.3387L178.941 26.519C178.993 26.5415 179.007 26.5903 178.985 26.6654C178.756 27.101 178.442 27.4578 178.042 27.7356C177.642 28.006 177.165 28.1412 176.61 28.1412C176.07 28.1412 175.589 28.0135 175.168 27.7582C174.746 27.4953 174.417 27.1311 174.18 26.6654C173.943 26.1998 173.825 25.6665 173.825 25.0657C173.825 24.4649 173.943 23.9279 174.18 23.4547C174.417 22.9741 174.746 22.6023 175.168 22.3395C175.597 22.0766 176.078 21.9452 176.61 21.9452Z" fill="black"/>
<path d="M182.084 22.7563C182.025 22.7563 181.995 22.7901 181.995 22.8577V26.4288C181.995 26.7668 182.051 26.9996 182.162 27.1273C182.273 27.255 182.454 27.3188 182.706 27.3188H183.471C183.553 27.3188 183.594 27.3601 183.594 27.4427L183.582 27.8258C183.582 27.9009 183.538 27.9497 183.449 27.9722C183.257 28.0098 182.909 28.0285 182.406 28.0285C181.94 28.0285 181.6 27.9196 181.385 27.7018C181.171 27.4765 181.063 27.1235 181.063 26.6429V22.8802C181.063 22.7976 181.026 22.7563 180.952 22.7563H180.064C179.983 22.7563 179.942 22.7187 179.942 22.6436V22.1705C179.942 22.0954 179.979 22.0578 180.053 22.0578H180.997C181.048 22.0578 181.074 22.0278 181.074 21.9677L181.196 20.1765C181.196 20.0789 181.237 20.03 181.319 20.03H181.873C181.962 20.03 182.007 20.0826 182.007 20.1878V21.9677C182.007 22.0278 182.036 22.0578 182.095 22.0578H183.494C183.575 22.0578 183.616 22.0916 183.616 22.1592V22.6436C183.616 22.7187 183.575 22.7563 183.494 22.7563H182.084Z" fill="black"/>
<path d="M186.146 20.7736C186.146 20.8487 186.131 20.905 186.101 20.9425C186.072 20.9726 186.02 20.9876 185.946 20.9876H185.302C185.191 20.9876 185.136 20.9238 185.136 20.7961V19.8498C185.136 19.7296 185.188 19.6695 185.291 19.6695H185.99C186.035 19.6695 186.072 19.6846 186.101 19.7146C186.131 19.7446 186.146 19.786 186.146 19.8385V20.7736ZM186.101 27.837C186.101 27.9121 186.086 27.9647 186.057 27.9947C186.027 28.0173 185.976 28.0285 185.902 28.0285H185.336C185.269 28.0285 185.225 28.0173 185.202 27.9947C185.18 27.9722 185.169 27.9309 185.169 27.8708V22.2155C185.169 22.1104 185.213 22.0578 185.302 22.0578H185.979C186.061 22.0578 186.101 22.1066 186.101 22.2043V27.837Z" fill="black"/>
<path d="M190.635 28.1412C190.08 28.1412 189.588 28.0135 189.159 27.7582C188.737 27.4953 188.408 27.1311 188.171 26.6654C187.942 26.1998 187.827 25.6703 187.827 25.077C187.827 24.4686 187.945 23.9279 188.182 23.4547C188.426 22.9816 188.759 22.6136 189.181 22.3507C189.61 22.0804 190.098 21.9452 190.646 21.9452C191.193 21.9452 191.678 22.0804 192.1 22.3507C192.529 22.6136 192.858 22.9816 193.087 23.4547C193.324 23.9279 193.443 24.4649 193.443 25.0657C193.443 25.659 193.324 26.1885 193.087 26.6542C192.851 27.1198 192.518 27.484 192.089 27.7469C191.667 28.0098 191.182 28.1412 190.635 28.1412ZM190.657 27.4315C191.234 27.4315 191.682 27.2212 192 26.8006C192.325 26.3725 192.488 25.7867 192.488 25.0432C192.488 24.3072 192.322 23.7251 191.989 23.297C191.663 22.8614 191.216 22.6436 190.646 22.6436C190.069 22.6436 189.614 22.8614 189.281 23.297C188.948 23.7251 188.781 24.3072 188.781 25.0432C188.781 25.7792 188.948 26.3612 189.281 26.7893C189.614 27.2174 190.073 27.4315 190.657 27.4315Z" fill="black"/>
<path d="M195.317 28.0285C195.213 28.0285 195.161 27.9797 195.161 27.8821V22.2043C195.161 22.1066 195.202 22.0578 195.283 22.0578H195.949C196.031 22.0578 196.071 22.0991 196.071 22.1817V22.8351C196.071 22.9178 196.105 22.929 196.171 22.8689C196.586 22.5385 196.937 22.3019 197.226 22.1592C197.521 22.0165 197.851 21.9452 198.213 21.9452C198.776 21.9452 199.212 22.0991 199.523 22.4071C199.841 22.715 200 23.128 200 23.6463V27.8483C200 27.9685 199.945 28.0285 199.834 28.0285H199.212C199.116 28.0285 199.068 27.9797 199.068 27.8821V23.8603C199.068 23.4848 198.972 23.1956 198.779 22.9929C198.594 22.7901 198.306 22.6887 197.914 22.6887C197.603 22.6887 197.314 22.76 197.048 22.9027C196.789 23.0379 196.471 23.2707 196.094 23.6012V27.8596C196.094 27.9196 196.079 27.9647 196.049 27.9947C196.027 28.0173 195.986 28.0285 195.927 28.0285H195.317Z" fill="black"/>
</svg>
