<svg width="323" height="292" viewBox="0 0 323 292" fill="none" xmlns="http://www.w3.org/2000/svg">
<circle cx="193.61" cy="199.196" r="2.19519" fill="#E5E5E5"/>
<circle cx="193.61" cy="213.831" r="2.19519" fill="#E5E5E5"/>
<circle cx="193.61" cy="228.466" r="2.19519" fill="#E5E5E5"/>
<circle cx="193.61" cy="243.1" r="2.19519" fill="#E5E5E5"/>
<circle cx="193.61" cy="257.735" r="2.19519" fill="#E5E5E5"/>
<circle cx="193.61" cy="272.37" r="2.19519" fill="#E5E5E5"/>
<circle cx="215.562" cy="199.196" r="2.19519" fill="#E5E5E5"/>
<circle cx="215.562" cy="213.831" r="2.19519" fill="#E5E5E5"/>
<circle cx="215.562" cy="228.466" r="2.19519" fill="#E5E5E5"/>
<circle cx="215.562" cy="243.1" r="2.19519" fill="#E5E5E5"/>
<circle cx="215.562" cy="257.735" r="2.19519" fill="#E5E5E5"/>
<circle cx="215.562" cy="272.37" r="2.19519" fill="#E5E5E5"/>
<circle cx="237.514" cy="199.196" r="2.19519" fill="#E5E5E5"/>
<circle cx="237.514" cy="213.831" r="2.19519" fill="#E5E5E5"/>
<circle cx="237.514" cy="228.466" r="2.19519" fill="#E5E5E5"/>
<circle cx="237.514" cy="243.1" r="2.19519" fill="#E5E5E5"/>
<circle cx="237.514" cy="257.735" r="2.19519" fill="#E5E5E5"/>
<circle cx="237.514" cy="272.37" r="2.19519" fill="#E5E5E5"/>
<circle cx="259.466" cy="199.196" r="2.19519" fill="#E5E5E5"/>
<circle cx="259.466" cy="213.831" r="2.19519" fill="#E5E5E5"/>
<circle cx="259.466" cy="228.466" r="2.19519" fill="#E5E5E5"/>
<circle cx="259.466" cy="243.1" r="2.19519" fill="#E5E5E5"/>
<circle cx="259.466" cy="257.735" r="2.19519" fill="#E5E5E5"/>
<circle cx="259.466" cy="272.37" r="2.19519" fill="#E5E5E5"/>
<circle cx="281.417" cy="199.196" r="2.19519" fill="#E5E5E5"/>
<circle cx="193.61" cy="184.562" r="2.19519" fill="#E5E5E5"/>
<circle cx="215.562" cy="184.562" r="2.19519" fill="#E5E5E5"/>
<circle cx="237.514" cy="184.562" r="2.19519" fill="#E5E5E5"/>
<circle cx="259.466" cy="184.562" r="2.19519" fill="#E5E5E5"/>
<circle cx="281.417" cy="184.562" r="2.19519" fill="#E5E5E5"/>
<circle cx="193.61" cy="169.927" r="2.19519" fill="#E5E5E5"/>
<circle cx="215.562" cy="169.927" r="2.19519" fill="#E5E5E5"/>
<circle cx="237.514" cy="169.927" r="2.19519" fill="#E5E5E5"/>
<circle cx="259.466" cy="169.927" r="2.19519" fill="#E5E5E5"/>
<circle cx="281.417" cy="169.927" r="2.19519" fill="#E5E5E5"/>
<circle cx="281.417" cy="213.831" r="2.19519" fill="#E5E5E5"/>
<circle cx="281.417" cy="228.466" r="2.19519" fill="#E5E5E5"/>
<circle cx="281.417" cy="243.1" r="2.19519" fill="#E5E5E5"/>
<circle cx="281.417" cy="257.735" r="2.19519" fill="#E5E5E5"/>
<circle cx="281.417" cy="272.37" r="2.19519" fill="#E5E5E5"/>
<circle cx="303.369" cy="199.196" r="2.19519" fill="#E5E5E5"/>
<circle cx="303.369" cy="184.562" r="2.19519" fill="#E5E5E5"/>
<circle cx="303.369" cy="169.927" r="2.19519" fill="#E5E5E5"/>
<circle cx="193.61" cy="155.293" r="2.19519" fill="#E5E5E5"/>
<circle cx="171.658" cy="199.196" r="2.19519" fill="#E5E5E5"/>
<circle cx="171.658" cy="213.831" r="2.19519" fill="#E5E5E5"/>
<circle cx="171.658" cy="228.466" r="2.19519" fill="#E5E5E5"/>
<circle cx="171.658" cy="243.1" r="2.19519" fill="#E5E5E5"/>
<circle cx="171.658" cy="257.735" r="2.19519" fill="#E5E5E5"/>
<circle cx="171.658" cy="272.37" r="2.19519" fill="#E5E5E5"/>
<circle cx="171.658" cy="184.562" r="2.19519" fill="#E5E5E5"/>
<circle cx="171.658" cy="169.927" r="2.19519" fill="#E5E5E5"/>
<circle cx="171.658" cy="155.293" r="2.19519" fill="#E5E5E5"/>
<circle cx="215.562" cy="155.293" r="2.19519" fill="#E5E5E5"/>
<circle cx="237.514" cy="155.293" r="2.19519" fill="#E5E5E5"/>
<circle cx="259.466" cy="155.293" r="2.19519" fill="#E5E5E5"/>
<circle cx="281.417" cy="155.293" r="2.19519" fill="#E5E5E5"/>
<circle cx="303.369" cy="155.293" r="2.19519" fill="#E5E5E5"/>
<circle cx="303.369" cy="213.831" r="2.19519" fill="#E5E5E5"/>
<circle cx="303.369" cy="228.466" r="2.19519" fill="#E5E5E5"/>
<circle cx="303.369" cy="243.1" r="2.19519" fill="#E5E5E5"/>
<circle cx="303.369" cy="257.735" r="2.19519" fill="#E5E5E5"/>
<circle cx="303.369" cy="272.37" r="2.19519" fill="#E5E5E5"/>
<circle cx="193.61" cy="289.805" r="2.19519" fill="#E5E5E5"/>
<circle cx="215.562" cy="289.805" r="2.19519" fill="#E5E5E5"/>
<circle cx="237.514" cy="289.805" r="2.19519" fill="#E5E5E5"/>
<circle cx="259.466" cy="289.805" r="2.19519" fill="#E5E5E5"/>
<circle cx="281.417" cy="289.805" r="2.19519" fill="#E5E5E5"/>
<circle cx="171.658" cy="289.805" r="2.19519" fill="#E5E5E5"/>
<circle cx="303.369" cy="289.805" r="2.19519" fill="#E5E5E5"/>
<circle cx="320.805" cy="199.196" r="2.19519" fill="#E5E5E5"/>
<circle cx="320.805" cy="184.562" r="2.19519" fill="#E5E5E5"/>
<circle cx="320.805" cy="169.927" r="2.19519" fill="#E5E5E5"/>
<circle cx="320.805" cy="155.293" r="2.19519" fill="#E5E5E5"/>
<circle cx="320.805" cy="213.831" r="2.19519" fill="#E5E5E5"/>
<circle cx="320.805" cy="228.466" r="2.19519" fill="#E5E5E5"/>
<circle cx="320.805" cy="243.1" r="2.19519" fill="#E5E5E5"/>
<circle cx="320.805" cy="257.735" r="2.19519" fill="#E5E5E5"/>
<circle cx="320.805" cy="272.37" r="2.19519" fill="#E5E5E5"/>
<circle cx="320.805" cy="289.805" r="2.19519" fill="#E5E5E5"/>
<circle cx="24.6731" cy="199.196" r="2.19519" fill="#E5E5E5"/>
<circle cx="24.6731" cy="213.831" r="2.19519" fill="#E5E5E5"/>
<circle cx="24.6731" cy="228.466" r="2.19519" fill="#E5E5E5"/>
<circle cx="24.6731" cy="243.1" r="2.19519" fill="#E5E5E5"/>
<circle cx="24.6731" cy="257.735" r="2.19519" fill="#E5E5E5"/>
<circle cx="24.6731" cy="272.37" r="2.19519" fill="#E5E5E5"/>
<circle cx="46.6249" cy="199.196" r="2.19519" fill="#E5E5E5"/>
<circle cx="46.6249" cy="213.831" r="2.19519" fill="#E5E5E5"/>
<circle cx="46.6249" cy="228.466" r="2.19519" fill="#E5E5E5"/>
<circle cx="46.6249" cy="243.1" r="2.19519" fill="#E5E5E5"/>
<circle cx="46.6249" cy="257.735" r="2.19519" fill="#E5E5E5"/>
<circle cx="46.6249" cy="272.37" r="2.19519" fill="#E5E5E5"/>
<circle cx="68.5768" cy="199.196" r="2.19519" fill="#E5E5E5"/>
<circle cx="68.5768" cy="213.831" r="2.19519" fill="#E5E5E5"/>
<circle cx="68.5768" cy="228.466" r="2.19519" fill="#E5E5E5"/>
<circle cx="68.5768" cy="243.1" r="2.19519" fill="#E5E5E5"/>
<circle cx="68.5768" cy="257.735" r="2.19519" fill="#E5E5E5"/>
<circle cx="68.5768" cy="272.37" r="2.19519" fill="#E5E5E5"/>
<circle cx="90.5287" cy="199.196" r="2.19519" fill="#E5E5E5"/>
<circle cx="90.5287" cy="213.831" r="2.19519" fill="#E5E5E5"/>
<circle cx="90.5287" cy="228.466" r="2.19519" fill="#E5E5E5"/>
<circle cx="90.5287" cy="243.1" r="2.19519" fill="#E5E5E5"/>
<circle cx="90.5287" cy="257.735" r="2.19519" fill="#E5E5E5"/>
<circle cx="90.5287" cy="272.37" r="2.19519" fill="#E5E5E5"/>
<circle cx="112.481" cy="199.196" r="2.19519" fill="#E5E5E5"/>
<circle cx="24.6731" cy="184.562" r="2.19519" fill="#E5E5E5"/>
<circle cx="46.6249" cy="184.562" r="2.19519" fill="#E5E5E5"/>
<circle cx="68.5768" cy="184.562" r="2.19519" fill="#E5E5E5"/>
<circle cx="90.5287" cy="184.562" r="2.19519" fill="#E5E5E5"/>
<circle cx="112.481" cy="184.562" r="2.19519" fill="#E5E5E5"/>
<circle cx="24.6731" cy="169.927" r="2.19519" fill="#E5E5E5"/>
<circle cx="46.6249" cy="169.927" r="2.19519" fill="#E5E5E5"/>
<circle cx="68.5768" cy="169.927" r="2.19519" fill="#E5E5E5"/>
<circle cx="90.5287" cy="169.927" r="2.19519" fill="#E5E5E5"/>
<circle cx="112.481" cy="169.927" r="2.19519" fill="#E5E5E5"/>
<circle cx="112.481" cy="213.831" r="2.19519" fill="#E5E5E5"/>
<circle cx="112.481" cy="228.466" r="2.19519" fill="#E5E5E5"/>
<circle cx="112.481" cy="243.1" r="2.19519" fill="#E5E5E5"/>
<circle cx="112.481" cy="257.735" r="2.19519" fill="#E5E5E5"/>
<circle cx="112.481" cy="272.37" r="2.19519" fill="#E5E5E5"/>
<circle cx="134.432" cy="199.196" r="2.19519" fill="#E5E5E5"/>
<circle cx="134.432" cy="184.562" r="2.19519" fill="#E5E5E5"/>
<circle cx="134.432" cy="169.927" r="2.19519" fill="#E5E5E5"/>
<circle cx="24.6731" cy="155.293" r="2.19519" fill="#E5E5E5"/>
<circle cx="2.72113" cy="199.196" r="2.19519" fill="#E5E5E5"/>
<circle cx="2.72113" cy="213.831" r="2.19519" fill="#E5E5E5"/>
<circle cx="2.72113" cy="228.466" r="2.19519" fill="#E5E5E5"/>
<circle cx="2.72113" cy="243.1" r="2.19519" fill="#E5E5E5"/>
<circle cx="2.72113" cy="257.735" r="2.19519" fill="#E5E5E5"/>
<circle cx="2.72113" cy="272.37" r="2.19519" fill="#E5E5E5"/>
<circle cx="2.72113" cy="184.562" r="2.19519" fill="#E5E5E5"/>
<circle cx="2.72113" cy="169.927" r="2.19519" fill="#E5E5E5"/>
<circle cx="2.72113" cy="155.293" r="2.19519" fill="#E5E5E5"/>
<circle cx="46.6249" cy="155.293" r="2.19519" fill="#E5E5E5"/>
<circle cx="68.5768" cy="155.293" r="2.19519" fill="#E5E5E5"/>
<circle cx="90.5287" cy="155.293" r="2.19519" fill="#E5E5E5"/>
<circle cx="112.481" cy="155.293" r="2.19519" fill="#E5E5E5"/>
<circle cx="134.432" cy="155.293" r="2.19519" fill="#E5E5E5"/>
<circle cx="134.432" cy="213.831" r="2.19519" fill="#E5E5E5"/>
<circle cx="134.432" cy="228.466" r="2.19519" fill="#E5E5E5"/>
<circle cx="134.432" cy="243.1" r="2.19519" fill="#E5E5E5"/>
<circle cx="134.432" cy="257.735" r="2.19519" fill="#E5E5E5"/>
<circle cx="134.432" cy="272.37" r="2.19519" fill="#E5E5E5"/>
<circle cx="24.6731" cy="289.805" r="2.19519" fill="#E5E5E5"/>
<circle cx="46.6249" cy="289.805" r="2.19519" fill="#E5E5E5"/>
<circle cx="68.5768" cy="289.805" r="2.19519" fill="#E5E5E5"/>
<circle cx="90.5287" cy="289.805" r="2.19519" fill="#E5E5E5"/>
<circle cx="112.481" cy="289.805" r="2.19519" fill="#E5E5E5"/>
<circle cx="2.72113" cy="289.805" r="2.19519" fill="#E5E5E5"/>
<circle cx="134.432" cy="289.805" r="2.19519" fill="#E5E5E5"/>
<circle cx="151.868" cy="199.196" r="2.19519" fill="#E5E5E5"/>
<circle cx="151.868" cy="184.562" r="2.19519" fill="#E5E5E5"/>
<circle cx="151.868" cy="169.927" r="2.19519" fill="#E5E5E5"/>
<circle cx="151.868" cy="155.293" r="2.19519" fill="#E5E5E5"/>
<circle cx="151.868" cy="213.831" r="2.19519" fill="#E5E5E5"/>
<circle cx="151.868" cy="228.466" r="2.19519" fill="#E5E5E5"/>
<circle cx="151.868" cy="243.1" r="2.19519" fill="#E5E5E5"/>
<circle cx="151.868" cy="257.735" r="2.19519" fill="#E5E5E5"/>
<circle cx="151.868" cy="272.37" r="2.19519" fill="#E5E5E5"/>
<circle cx="151.868" cy="289.805" r="2.19519" fill="#E5E5E5"/>
<circle cx="193.61" cy="46.3488" r="2.19519" fill="#E5E5E5"/>
<circle cx="193.61" cy="60.9833" r="2.19519" fill="#E5E5E5"/>
<circle cx="193.61" cy="75.618" r="2.19519" fill="#E5E5E5"/>
<circle cx="193.61" cy="90.2526" r="2.19519" fill="#E5E5E5"/>
<circle cx="193.61" cy="104.887" r="2.19519" fill="#E5E5E5"/>
<circle cx="193.61" cy="119.522" r="2.19519" fill="#E5E5E5"/>
<circle cx="215.562" cy="46.3488" r="2.19519" fill="#E5E5E5"/>
<circle cx="215.562" cy="60.9833" r="2.19519" fill="#E5E5E5"/>
<circle cx="215.562" cy="75.618" r="2.19519" fill="#E5E5E5"/>
<circle cx="215.562" cy="90.2526" r="2.19519" fill="#E5E5E5"/>
<circle cx="215.562" cy="104.887" r="2.19519" fill="#E5E5E5"/>
<circle cx="215.562" cy="119.522" r="2.19519" fill="#E5E5E5"/>
<circle cx="237.514" cy="46.3488" r="2.19519" fill="#E5E5E5"/>
<circle cx="237.514" cy="60.9833" r="2.19519" fill="#E5E5E5"/>
<circle cx="237.514" cy="75.618" r="2.19519" fill="#E5E5E5"/>
<circle cx="237.514" cy="90.2526" r="2.19519" fill="#E5E5E5"/>
<circle cx="237.514" cy="104.887" r="2.19519" fill="#E5E5E5"/>
<circle cx="237.514" cy="119.522" r="2.19519" fill="#E5E5E5"/>
<circle cx="259.466" cy="46.3488" r="2.19519" fill="#E5E5E5"/>
<circle cx="259.466" cy="60.9833" r="2.19519" fill="#E5E5E5"/>
<circle cx="259.466" cy="75.618" r="2.19519" fill="#E5E5E5"/>
<circle cx="259.466" cy="90.2526" r="2.19519" fill="#E5E5E5"/>
<circle cx="259.466" cy="104.887" r="2.19519" fill="#E5E5E5"/>
<circle cx="259.466" cy="119.522" r="2.19519" fill="#E5E5E5"/>
<circle cx="281.417" cy="46.3488" r="2.19519" fill="#E5E5E5"/>
<circle cx="193.61" cy="31.7142" r="2.19519" fill="#E5E5E5"/>
<circle cx="215.562" cy="31.7142" r="2.19519" fill="#E5E5E5"/>
<circle cx="237.514" cy="31.7142" r="2.19519" fill="#E5E5E5"/>
<circle cx="259.466" cy="31.7142" r="2.19519" fill="#E5E5E5"/>
<circle cx="281.417" cy="31.7142" r="2.19519" fill="#E5E5E5"/>
<circle cx="193.61" cy="17.0795" r="2.19519" fill="#E5E5E5"/>
<circle cx="215.562" cy="17.0795" r="2.19519" fill="#E5E5E5"/>
<circle cx="237.514" cy="17.0795" r="2.19519" fill="#E5E5E5"/>
<circle cx="259.466" cy="17.0795" r="2.19519" fill="#E5E5E5"/>
<circle cx="281.417" cy="17.0795" r="2.19519" fill="#E5E5E5"/>
<circle cx="281.417" cy="60.9833" r="2.19519" fill="#E5E5E5"/>
<circle cx="281.417" cy="75.618" r="2.19519" fill="#E5E5E5"/>
<circle cx="281.417" cy="90.2526" r="2.19519" fill="#E5E5E5"/>
<circle cx="281.417" cy="104.887" r="2.19519" fill="#E5E5E5"/>
<circle cx="281.417" cy="119.522" r="2.19519" fill="#E5E5E5"/>
<circle cx="303.369" cy="46.3488" r="2.19519" fill="#E5E5E5"/>
<circle cx="303.369" cy="31.7142" r="2.19519" fill="#E5E5E5"/>
<circle cx="303.369" cy="17.0795" r="2.19519" fill="#E5E5E5"/>
<circle cx="193.61" cy="2.44495" r="2.19519" fill="#E5E5E5"/>
<circle cx="171.658" cy="46.3488" r="2.19519" fill="#E5E5E5"/>
<circle cx="171.658" cy="60.9833" r="2.19519" fill="#E5E5E5"/>
<circle cx="171.658" cy="75.618" r="2.19519" fill="#E5E5E5"/>
<circle cx="171.658" cy="90.2526" r="2.19519" fill="#E5E5E5"/>
<circle cx="171.658" cy="104.887" r="2.19519" fill="#E5E5E5"/>
<circle cx="171.658" cy="119.522" r="2.19519" fill="#E5E5E5"/>
<circle cx="171.658" cy="31.7142" r="2.19519" fill="#E5E5E5"/>
<circle cx="171.658" cy="17.0795" r="2.19519" fill="#E5E5E5"/>
<circle cx="171.658" cy="2.44495" r="2.19519" fill="#E5E5E5"/>
<circle cx="215.562" cy="2.44495" r="2.19519" fill="#E5E5E5"/>
<circle cx="237.514" cy="2.44495" r="2.19519" fill="#E5E5E5"/>
<circle cx="259.466" cy="2.44495" r="2.19519" fill="#E5E5E5"/>
<circle cx="281.417" cy="2.44495" r="2.19519" fill="#E5E5E5"/>
<circle cx="303.369" cy="2.44495" r="2.19519" fill="#E5E5E5"/>
<circle cx="303.369" cy="60.9833" r="2.19519" fill="#E5E5E5"/>
<circle cx="303.369" cy="75.618" r="2.19519" fill="#E5E5E5"/>
<circle cx="303.369" cy="90.2526" r="2.19519" fill="#E5E5E5"/>
<circle cx="303.369" cy="104.887" r="2.19519" fill="#E5E5E5"/>
<circle cx="303.369" cy="119.522" r="2.19519" fill="#E5E5E5"/>
<circle cx="193.61" cy="136.957" r="2.19519" fill="#E5E5E5"/>
<circle cx="215.562" cy="136.957" r="2.19519" fill="#E5E5E5"/>
<circle cx="237.514" cy="136.957" r="2.19519" fill="#E5E5E5"/>
<circle cx="259.466" cy="136.957" r="2.19519" fill="#E5E5E5"/>
<circle cx="281.417" cy="136.957" r="2.19519" fill="#E5E5E5"/>
<circle cx="171.658" cy="136.957" r="2.19519" fill="#E5E5E5"/>
<circle cx="303.369" cy="136.957" r="2.19519" fill="#E5E5E5"/>
<circle cx="320.805" cy="46.3488" r="2.19519" fill="#E5E5E5"/>
<circle cx="320.805" cy="31.7142" r="2.19519" fill="#E5E5E5"/>
<circle cx="320.805" cy="17.0795" r="2.19519" fill="#E5E5E5"/>
<circle cx="320.805" cy="2.44495" r="2.19519" fill="#E5E5E5"/>
<circle cx="320.805" cy="60.9833" r="2.19519" fill="#E5E5E5"/>
<circle cx="320.805" cy="75.618" r="2.19519" fill="#E5E5E5"/>
<circle cx="320.805" cy="90.2526" r="2.19519" fill="#E5E5E5"/>
<circle cx="320.805" cy="104.887" r="2.19519" fill="#E5E5E5"/>
<circle cx="320.805" cy="119.522" r="2.19519" fill="#E5E5E5"/>
<circle cx="320.805" cy="136.957" r="2.19519" fill="#E5E5E5"/>
<circle cx="24.6731" cy="46.3488" r="2.19519" fill="#E5E5E5"/>
<circle cx="24.6731" cy="60.9833" r="2.19519" fill="#E5E5E5"/>
<circle cx="24.6731" cy="75.618" r="2.19519" fill="#E5E5E5"/>
<circle cx="24.6731" cy="90.2526" r="2.19519" fill="#E5E5E5"/>
<circle cx="24.6731" cy="104.887" r="2.19519" fill="#E5E5E5"/>
<circle cx="24.6731" cy="119.522" r="2.19519" fill="#E5E5E5"/>
<circle cx="46.6249" cy="46.3488" r="2.19519" fill="#E5E5E5"/>
<circle cx="46.6249" cy="60.9833" r="2.19519" fill="#E5E5E5"/>
<circle cx="46.6249" cy="75.618" r="2.19519" fill="#E5E5E5"/>
<circle cx="46.6249" cy="90.2526" r="2.19519" fill="#E5E5E5"/>
<circle cx="46.6249" cy="104.887" r="2.19519" fill="#E5E5E5"/>
<circle cx="46.6249" cy="119.522" r="2.19519" fill="#E5E5E5"/>
<circle cx="68.5768" cy="46.3488" r="2.19519" fill="#E5E5E5"/>
<circle cx="68.5768" cy="60.9833" r="2.19519" fill="#E5E5E5"/>
<circle cx="68.5768" cy="75.618" r="2.19519" fill="#E5E5E5"/>
<circle cx="68.5768" cy="90.2526" r="2.19519" fill="#E5E5E5"/>
<circle cx="68.5768" cy="104.887" r="2.19519" fill="#E5E5E5"/>
<circle cx="68.5768" cy="119.522" r="2.19519" fill="#E5E5E5"/>
<circle cx="90.5287" cy="46.3488" r="2.19519" fill="#E5E5E5"/>
<circle cx="90.5287" cy="60.9833" r="2.19519" fill="#E5E5E5"/>
<circle cx="90.5287" cy="75.618" r="2.19519" fill="#E5E5E5"/>
<circle cx="90.5287" cy="90.2526" r="2.19519" fill="#E5E5E5"/>
<circle cx="90.5287" cy="104.887" r="2.19519" fill="#E5E5E5"/>
<circle cx="90.5287" cy="119.522" r="2.19519" fill="#E5E5E5"/>
<circle cx="112.481" cy="46.3488" r="2.19519" fill="#E5E5E5"/>
<circle cx="24.6731" cy="31.7142" r="2.19519" fill="#E5E5E5"/>
<circle cx="46.6249" cy="31.7142" r="2.19519" fill="#E5E5E5"/>
<circle cx="68.5768" cy="31.7142" r="2.19519" fill="#E5E5E5"/>
<circle cx="90.5287" cy="31.7142" r="2.19519" fill="#E5E5E5"/>
<circle cx="112.481" cy="31.7142" r="2.19519" fill="#E5E5E5"/>
<circle cx="24.6731" cy="17.0795" r="2.19519" fill="#E5E5E5"/>
<circle cx="46.6249" cy="17.0795" r="2.19519" fill="#E5E5E5"/>
<circle cx="68.5768" cy="17.0795" r="2.19519" fill="#E5E5E5"/>
<circle cx="90.5287" cy="17.0795" r="2.19519" fill="#E5E5E5"/>
<circle cx="112.481" cy="17.0795" r="2.19519" fill="#E5E5E5"/>
<circle cx="112.481" cy="60.9833" r="2.19519" fill="#E5E5E5"/>
<circle cx="112.481" cy="75.618" r="2.19519" fill="#E5E5E5"/>
<circle cx="112.481" cy="90.2526" r="2.19519" fill="#E5E5E5"/>
<circle cx="112.481" cy="104.887" r="2.19519" fill="#E5E5E5"/>
<circle cx="112.481" cy="119.522" r="2.19519" fill="#E5E5E5"/>
<circle cx="134.432" cy="46.3488" r="2.19519" fill="#E5E5E5"/>
<circle cx="134.432" cy="31.7142" r="2.19519" fill="#E5E5E5"/>
<circle cx="134.432" cy="17.0795" r="2.19519" fill="#E5E5E5"/>
<circle cx="24.6731" cy="2.44495" r="2.19519" fill="#E5E5E5"/>
<circle cx="2.72113" cy="46.3488" r="2.19519" fill="#E5E5E5"/>
<circle cx="2.72113" cy="60.9833" r="2.19519" fill="#E5E5E5"/>
<circle cx="2.72113" cy="75.618" r="2.19519" fill="#E5E5E5"/>
<circle cx="2.72113" cy="90.2526" r="2.19519" fill="#E5E5E5"/>
<circle cx="2.72113" cy="104.887" r="2.19519" fill="#E5E5E5"/>
<circle cx="2.72113" cy="119.522" r="2.19519" fill="#E5E5E5"/>
<circle cx="2.72113" cy="31.7142" r="2.19519" fill="#E5E5E5"/>
<circle cx="2.72113" cy="17.0795" r="2.19519" fill="#E5E5E5"/>
<circle cx="2.72113" cy="2.44495" r="2.19519" fill="#E5E5E5"/>
<circle cx="46.6249" cy="2.44495" r="2.19519" fill="#E5E5E5"/>
<circle cx="68.5768" cy="2.44495" r="2.19519" fill="#E5E5E5"/>
<circle cx="90.5287" cy="2.44495" r="2.19519" fill="#E5E5E5"/>
<circle cx="112.481" cy="2.44495" r="2.19519" fill="#E5E5E5"/>
<circle cx="134.432" cy="2.44495" r="2.19519" fill="#E5E5E5"/>
<circle cx="134.432" cy="60.9833" r="2.19519" fill="#E5E5E5"/>
<circle cx="134.432" cy="75.618" r="2.19519" fill="#E5E5E5"/>
<circle cx="134.432" cy="90.2526" r="2.19519" fill="#E5E5E5"/>
<circle cx="134.432" cy="104.887" r="2.19519" fill="#E5E5E5"/>
<circle cx="134.432" cy="119.522" r="2.19519" fill="#E5E5E5"/>
<circle cx="24.6731" cy="136.957" r="2.19519" fill="#E5E5E5"/>
<circle cx="46.6249" cy="136.957" r="2.19519" fill="#E5E5E5"/>
<circle cx="68.5768" cy="136.957" r="2.19519" fill="#E5E5E5"/>
<circle cx="90.5287" cy="136.957" r="2.19519" fill="#E5E5E5"/>
<circle cx="112.481" cy="136.957" r="2.19519" fill="#E5E5E5"/>
<circle cx="2.72113" cy="136.957" r="2.19519" fill="#E5E5E5"/>
<circle cx="134.432" cy="136.957" r="2.19519" fill="#E5E5E5"/>
<circle cx="151.868" cy="46.3488" r="2.19519" fill="#E5E5E5"/>
<circle cx="151.868" cy="31.7142" r="2.19519" fill="#E5E5E5"/>
<circle cx="151.868" cy="17.0795" r="2.19519" fill="#E5E5E5"/>
<circle cx="151.868" cy="2.44495" r="2.19519" fill="#E5E5E5"/>
<circle cx="151.868" cy="60.9833" r="2.19519" fill="#E5E5E5"/>
<circle cx="151.868" cy="75.618" r="2.19519" fill="#E5E5E5"/>
<circle cx="151.868" cy="90.2526" r="2.19519" fill="#E5E5E5"/>
<circle cx="151.868" cy="104.887" r="2.19519" fill="#E5E5E5"/>
<circle cx="151.868" cy="119.522" r="2.19519" fill="#E5E5E5"/>
<circle cx="151.868" cy="136.957" r="2.19519" fill="#E5E5E5"/>
</svg>
