<svg width="154" height="139" viewBox="0 0 154 139" fill="none" xmlns="http://www.w3.org/2000/svg">
<circle cx="24.1471" cy="46.099" r="2.19519" fill="#E5E5E5"/>
<circle cx="24.1471" cy="60.7335" r="2.19519" fill="#E5E5E5"/>
<circle cx="24.1471" cy="75.3683" r="2.19519" fill="#E5E5E5"/>
<circle cx="24.1471" cy="90.0028" r="2.19519" fill="#E5E5E5"/>
<circle cx="24.1471" cy="104.637" r="2.19519" fill="#E5E5E5"/>
<circle cx="24.1471" cy="119.272" r="2.19519" fill="#E5E5E5"/>
<circle cx="46.099" cy="46.099" r="2.19519" fill="#E5E5E5"/>
<circle cx="46.099" cy="60.7335" r="2.19519" fill="#E5E5E5"/>
<circle cx="46.099" cy="75.3683" r="2.19519" fill="#E5E5E5"/>
<circle cx="46.099" cy="90.0028" r="2.19519" fill="#E5E5E5"/>
<circle cx="46.099" cy="104.637" r="2.19519" fill="#E5E5E5"/>
<circle cx="46.099" cy="119.272" r="2.19519" fill="#E5E5E5"/>
<circle cx="68.0509" cy="46.099" r="2.19519" fill="#E5E5E5"/>
<circle cx="68.0509" cy="60.7335" r="2.19519" fill="#E5E5E5"/>
<circle cx="68.0509" cy="75.3683" r="2.19519" fill="#E5E5E5"/>
<circle cx="68.0509" cy="90.0028" r="2.19519" fill="#E5E5E5"/>
<circle cx="68.0509" cy="104.637" r="2.19519" fill="#E5E5E5"/>
<circle cx="68.0509" cy="119.272" r="2.19519" fill="#E5E5E5"/>
<circle cx="90.0028" cy="46.099" r="2.19519" fill="#E5E5E5"/>
<circle cx="90.0028" cy="60.7335" r="2.19519" fill="#E5E5E5"/>
<circle cx="90.0028" cy="75.3683" r="2.19519" fill="#E5E5E5"/>
<circle cx="90.0028" cy="90.0028" r="2.19519" fill="#E5E5E5"/>
<circle cx="90.0028" cy="104.637" r="2.19519" fill="#E5E5E5"/>
<circle cx="90.0028" cy="119.272" r="2.19519" fill="#E5E5E5"/>
<circle cx="111.955" cy="46.099" r="2.19519" fill="#E5E5E5"/>
<circle cx="24.1471" cy="31.4645" r="2.19519" fill="#E5E5E5"/>
<circle cx="46.099" cy="31.4645" r="2.19519" fill="#E5E5E5"/>
<circle cx="68.0509" cy="31.4645" r="2.19519" fill="#E5E5E5"/>
<circle cx="90.0028" cy="31.4645" r="2.19519" fill="#E5E5E5"/>
<circle cx="111.955" cy="31.4645" r="2.19519" fill="#E5E5E5"/>
<circle cx="24.1471" cy="16.8297" r="2.19519" fill="#E5E5E5"/>
<circle cx="46.099" cy="16.8297" r="2.19519" fill="#E5E5E5"/>
<circle cx="68.0509" cy="16.8297" r="2.19519" fill="#E5E5E5"/>
<circle cx="90.0028" cy="16.8297" r="2.19519" fill="#E5E5E5"/>
<circle cx="111.955" cy="16.8297" r="2.19519" fill="#E5E5E5"/>
<circle cx="111.955" cy="60.7335" r="2.19519" fill="#E5E5E5"/>
<circle cx="111.955" cy="75.3683" r="2.19519" fill="#E5E5E5"/>
<circle cx="111.955" cy="90.0028" r="2.19519" fill="#E5E5E5"/>
<circle cx="111.955" cy="104.637" r="2.19519" fill="#E5E5E5"/>
<circle cx="111.955" cy="119.272" r="2.19519" fill="#E5E5E5"/>
<circle cx="133.907" cy="46.099" r="2.19519" fill="#E5E5E5"/>
<circle cx="133.907" cy="31.4645" r="2.19519" fill="#E5E5E5"/>
<circle cx="133.907" cy="16.8297" r="2.19519" fill="#E5E5E5"/>
<circle cx="24.1471" cy="2.19519" r="2.19519" fill="#E5E5E5"/>
<circle cx="2.19519" cy="46.099" r="2.19519" fill="#E5E5E5"/>
<circle cx="2.19519" cy="60.7335" r="2.19519" fill="#E5E5E5"/>
<circle cx="2.19519" cy="75.3683" r="2.19519" fill="#E5E5E5"/>
<circle cx="2.19519" cy="90.0028" r="2.19519" fill="#E5E5E5"/>
<circle cx="2.19519" cy="104.637" r="2.19519" fill="#E5E5E5"/>
<circle cx="2.19519" cy="119.272" r="2.19519" fill="#E5E5E5"/>
<circle cx="2.19519" cy="31.4645" r="2.19519" fill="#E5E5E5"/>
<circle cx="2.19519" cy="16.8297" r="2.19519" fill="#E5E5E5"/>
<circle cx="2.19519" cy="2.19519" r="2.19519" fill="#E5E5E5"/>
<circle cx="46.099" cy="2.19519" r="2.19519" fill="#E5E5E5"/>
<circle cx="68.0509" cy="2.19519" r="2.19519" fill="#E5E5E5"/>
<circle cx="90.0028" cy="2.19519" r="2.19519" fill="#E5E5E5"/>
<circle cx="111.955" cy="2.19519" r="2.19519" fill="#E5E5E5"/>
<circle cx="133.907" cy="2.19519" r="2.19519" fill="#E5E5E5"/>
<circle cx="133.907" cy="60.7335" r="2.19519" fill="#E5E5E5"/>
<circle cx="133.907" cy="75.3683" r="2.19519" fill="#E5E5E5"/>
<circle cx="133.907" cy="90.0028" r="2.19519" fill="#E5E5E5"/>
<circle cx="133.907" cy="104.637" r="2.19519" fill="#E5E5E5"/>
<circle cx="133.907" cy="119.272" r="2.19519" fill="#E5E5E5"/>
<circle cx="24.1471" cy="136.708" r="2.19519" fill="#E5E5E5"/>
<circle cx="46.099" cy="136.708" r="2.19519" fill="#E5E5E5"/>
<circle cx="68.0509" cy="136.708" r="2.19519" fill="#E5E5E5"/>
<circle cx="90.0028" cy="136.708" r="2.19519" fill="#E5E5E5"/>
<circle cx="111.955" cy="136.708" r="2.19519" fill="#E5E5E5"/>
<circle cx="2.19519" cy="136.708" r="2.19519" fill="#E5E5E5"/>
<circle cx="133.907" cy="136.708" r="2.19519" fill="#E5E5E5"/>
<circle cx="151.342" cy="46.099" r="2.19519" fill="#E5E5E5"/>
<circle cx="151.342" cy="31.4645" r="2.19519" fill="#E5E5E5"/>
<circle cx="151.342" cy="16.8297" r="2.19519" fill="#E5E5E5"/>
<circle cx="151.342" cy="2.19519" r="2.19519" fill="#E5E5E5"/>
<circle cx="151.342" cy="60.7335" r="2.19519" fill="#E5E5E5"/>
<circle cx="151.342" cy="75.3683" r="2.19519" fill="#E5E5E5"/>
<circle cx="151.342" cy="90.0028" r="2.19519" fill="#E5E5E5"/>
<circle cx="151.342" cy="104.637" r="2.19519" fill="#E5E5E5"/>
<circle cx="151.342" cy="119.272" r="2.19519" fill="#E5E5E5"/>
<circle cx="151.342" cy="136.708" r="2.19519" fill="#E5E5E5"/>
</svg>
