<svg width="26" height="24" viewBox="0 0 26 24" fill="none" xmlns="http://www.w3.org/2000/svg">
<path d="M22.4963 0H3.50367C1.56875 0 0.000118256 1.44791 0.000118256 3.23405V20.7658C0.000118256 22.552 1.56869 23.9999 3.50367 23.9999H12.8708L12.8867 15.4236H10.4729C10.1592 15.4236 9.90464 15.1895 9.90344 14.8999L9.89186 12.1354C9.89065 11.8443 10.146 11.6077 10.4614 11.6077H12.8708V8.93651C12.8708 5.83661 14.9218 4.14869 17.9176 4.14869H20.3758C20.6903 4.14869 20.9454 4.38406 20.9454 4.67444V7.00547C20.9454 7.29573 20.6905 7.53104 20.3761 7.53122L18.8675 7.53187C17.2384 7.53187 16.9229 8.24648 16.9229 9.29522V11.6078H20.5028C20.8439 11.6078 21.1085 11.8827 21.0683 12.1954L20.7133 14.9599C20.6794 15.2244 20.4364 15.4237 20.1478 15.4237H16.9388L16.9229 24H22.4964C24.4314 24 25.9999 22.5521 25.9999 20.766V3.23405C25.9999 1.44791 24.4313 0 22.4963 0Z" fill="#FD1015"/>
</svg>
