<svg width="26" height="24" viewBox="0 0 26 24" fill="none" xmlns="http://www.w3.org/2000/svg">
<path d="M18.8247 0H7.17486C3.21865 0 0 2.9712 0 6.62309V17.3768C0 21.0288 3.21865 23.9999 7.17486 23.9999H18.8247C22.7812 23.9999 25.9998 21.0287 25.9998 17.3768V6.62309C26 2.9712 22.7812 0 18.8247 0ZM23.6932 17.3768C23.6932 19.8547 21.5092 21.8705 18.8248 21.8705H7.17486C4.49063 21.8706 2.30683 19.8547 2.30683 17.3768V6.62309C2.30683 4.14534 4.49063 2.12938 7.17486 2.12938H18.8247C21.5091 2.12938 23.693 4.14534 23.693 6.62309V17.3768H23.6932Z" fill="#FD1015"/>
<path d="M12.9999 5.81592C9.30576 5.81592 6.30042 8.59008 6.30042 12.0001C6.30042 15.4099 9.30576 18.1839 12.9999 18.1839C16.6941 18.1839 19.6994 15.4099 19.6994 12.0001C19.6994 8.59008 16.6941 5.81592 12.9999 5.81592ZM12.9999 16.0544C10.5779 16.0544 8.60725 14.2356 8.60725 11.9999C8.60725 9.76408 10.5777 7.94516 12.9999 7.94516C15.4221 7.94516 17.3926 9.76408 17.3926 11.9999C17.3926 14.2356 15.4219 16.0544 12.9999 16.0544Z" fill="#FD1015"/>
<path d="M19.9804 4.01074C19.5359 4.01074 19.0993 4.17683 18.7855 4.46785C18.47 4.75745 18.2887 5.16061 18.2887 5.57229C18.2887 5.98269 18.4702 6.38571 18.7855 6.67673C19.0992 6.96633 19.5359 7.13384 19.9804 7.13384C20.4264 7.13384 20.8616 6.96633 21.1769 6.67673C21.4921 6.38571 21.6721 5.98255 21.6721 5.57229C21.6721 5.16061 21.4921 4.75745 21.1769 4.46785C20.8631 4.17683 20.4264 4.01074 19.9804 4.01074Z" fill="#FD1015"/>
</svg>
