<svg width="26" height="24" viewBox="0 0 26 24" fill="none" xmlns="http://www.w3.org/2000/svg">
<path d="M23.6481 0H2.35191C1.053 0 0 0.972 0 2.17099V21.8289C0 23.028 1.053 24 2.35191 24H23.648C24.947 24 26 23.028 26 21.8289V2.17099C26 0.972 24.947 0 23.6481 0ZM8.0455 20.7232C8.0455 21.0721 7.73908 21.355 7.36106 21.355H4.44757C4.06954 21.355 3.76313 21.0721 3.76313 20.7232V9.4494C3.76313 9.10046 4.06954 8.81761 4.44757 8.81761H7.36106C7.73908 8.81761 8.0455 9.10046 8.0455 9.4494V20.7232ZM5.90431 7.75489C4.37569 7.75489 3.13647 6.61099 3.13647 5.19996C3.13647 3.78892 4.37569 2.64503 5.90431 2.64503C7.43294 2.64503 8.67216 3.78892 8.67216 5.19996C8.67216 6.61099 7.43301 7.75489 5.90431 7.75489ZM23.2714 20.7741C23.2714 21.0949 22.9896 21.355 22.6421 21.355H19.5157C19.1681 21.355 18.8863 21.0949 18.8863 20.7741V15.486C18.8863 14.6972 19.137 12.0292 16.653 12.0292C14.7262 12.0292 14.3354 13.8553 14.2569 14.6749V20.7741C14.2569 21.0949 13.9752 21.355 13.6276 21.355H10.6038C10.2563 21.355 9.97454 21.0949 9.97454 20.7741V9.39851C9.97454 9.07772 10.2563 8.81761 10.6038 8.81761H13.6276C13.9751 8.81761 14.2569 9.07772 14.2569 9.39851V10.3821C14.9714 9.39236 16.0332 8.62844 18.2939 8.62844C23.3 8.62844 23.2714 12.9457 23.2714 15.3178V20.7741Z" fill="#FD1015"/>
</svg>
