<svg width="35" height="35" viewBox="0 0 35 35" fill="none" xmlns="http://www.w3.org/2000/svg">
<g clip-path="url(#clip0)">
<path d="M27.3487 31.26C28.8516 31.9158 33.005 33.8012 34.4806 34.4023C34.6445 34.4843 35.0271 34.457 34.9724 34.1018C34.6445 30.5495 32.6498 10.1925 32.2945 6.58556C32.2399 6.06639 32.0759 5.98438 31.6934 5.84777C30.5184 5.41054 27.6766 4.39954 26.5016 3.98965C26.0917 3.8257 25.8458 3.8257 25.4086 3.98965C23.5778 4.50881 17.785 6.28494 17.785 6.28494C17.785 6.28494 11.7461 4.45414 9.86075 3.93497C9.45085 3.79837 9.2323 3.77103 8.76774 3.96231C7.56546 4.34487 4.77826 5.38321 3.57598 5.82044C3.08415 6.01172 3.02948 6.23033 2.97481 6.55822C2.59238 10.0831 0.406368 30.5222 0.0238078 34.1018C-0.00352782 34.5117 0.351697 34.4843 0.679585 34.375C2.3191 33.7192 6.47245 31.9158 7.94802 31.3146C8.24857 31.178 8.54919 31.096 9.04102 31.3146C10.7079 31.9977 15.599 34.211 17.2112 34.8668C17.5664 35.0308 17.8943 35.0581 18.3042 34.8668C19.9164 34.1837 24.6436 31.9977 26.2284 31.2872C26.529 31.1234 26.9935 31.096 27.3487 31.26Z" fill="white"/>
<path d="M9.50559 3.85263C9.28698 3.8253 9.06836 3.85263 8.76781 3.96191C7.56553 4.34447 4.77833 5.3828 3.57605 5.82003C3.08422 6.01131 3.02955 6.22993 2.97488 6.55782C2.59238 10.0827 0.406368 30.5218 0.0238078 34.1014C-0.00352782 34.5113 0.351697 34.4839 0.679585 34.3746C2.3191 33.7188 6.47245 31.9153 7.94802 31.3142C8.16663 31.2322 8.35791 31.1502 8.65846 31.2049C8.65853 31.2049 9.50559 3.85263 9.50559 3.85263ZM25.8186 3.85263C25.7093 3.87997 25.6 3.9073 25.4634 3.96191C23.6326 4.50841 18.0583 6.20253 17.8124 6.28453V34.9757C17.9763 34.9757 18.1676 34.921 18.3589 34.8391C19.971 34.156 24.6982 31.97 26.2831 31.2595C26.3923 31.2048 26.529 31.1775 26.6656 31.1502C26.6656 31.1503 25.8186 3.85263 25.8186 3.85263Z" fill="#E5E5E5"/>
<path d="M12.7845 32.9266L17.5664 28.1447L22.4303 33.0086C23.4413 32.5441 24.425 32.0795 25.2174 31.7243L7.7568 14.291L16.2275 5.82018C15.3531 5.54696 14.2054 5.219 13.1125 4.89111L5.73473 12.2689L2.70165 9.23581C2.59238 10.2741 2.4557 11.5311 2.31909 12.9247L15.5444 26.15L9.99742 31.697C10.7625 32.0248 11.7735 32.462 12.7845 32.9266Z" fill="#FFCA6C"/>
<path d="M9.2323 12.8155L9.36891 8.63477L5.73466 12.2417L2.70165 9.23587C2.59238 10.2742 2.4557 11.5312 2.31909 12.9247L9.04102 19.6466L9.15029 15.6845L7.78406 14.3183L9.2323 12.8155ZM17.785 28.3906L22.4029 33.0086C23.4139 32.5441 24.3977 32.0795 25.1901 31.7243L17.785 24.3192V28.3906Z" fill="#E3BD59"/>
<path d="M21.8838 0C26.2557 0 29.808 3.55224 29.808 7.95154C29.808 8.03355 29.7806 10.0829 29.0975 11.5311C27.4853 15.2746 23.6052 19.2368 22.3209 20.521C21.993 20.8216 21.8564 20.8762 21.4465 20.4937C20.1349 19.2094 16.3094 15.3019 14.6973 11.5857C14.1234 10.4927 13.9595 8.14275 13.9595 7.95147C13.9596 3.55224 17.5118 0 21.8838 0Z" fill="#FD1015"/>
<path d="M21.8838 3.82568C19.6158 3.82568 17.785 5.65648 17.785 7.92443C17.785 10.1924 19.6158 12.0232 21.8838 12.0232C24.1517 12.0232 25.9825 10.1924 25.9825 7.92443C25.9825 5.65648 24.1517 3.82568 21.8838 3.82568ZM21.8838 10.3837C20.5175 10.3837 19.4245 9.29073 19.4245 7.9245C19.4245 6.55827 20.5175 5.46527 21.8838 5.46527C23.25 5.46527 24.343 6.55827 24.343 7.9245C24.343 9.29073 23.25 10.3837 21.8838 10.3837Z" fill="white"/>
</g>
<defs>
<clipPath id="clip0">
<rect width="35" height="35" fill="white"/>
</clipPath>
</defs>
</svg>
