<svg width="26" height="24" viewBox="0 0 26 24" fill="none" xmlns="http://www.w3.org/2000/svg">
<path d="M21.125 0H4.87497C2.18235 0 0 2.01447 0 4.49998V19.5C0 21.9855 2.18235 24 4.87497 24H21.125C23.8176 24 25.9999 21.9854 25.9999 19.5V4.49998C26 2.01447 23.8176 0 21.125 0ZM19.4675 9.30598L19.4772 9.68848C19.4772 13.5945 16.2581 18.0945 10.3707 18.0945C8.56373 18.0945 6.88183 17.6055 5.46485 16.767C5.71512 16.794 5.97021 16.809 6.22861 16.809C7.7285 16.809 9.10812 16.3365 10.2034 15.5444C8.80262 15.5205 7.62121 14.6655 7.21335 13.4925C7.40996 13.5255 7.60823 13.5435 7.81622 13.5435C8.10872 13.5435 8.39145 13.509 8.65958 13.4415C7.19545 13.1685 6.09209 11.976 6.09209 10.545V10.5075C6.52432 10.7295 7.01669 10.8615 7.54157 10.878C6.68356 10.3485 6.11807 9.44404 6.11807 8.41953C6.11807 7.87804 6.2757 7.37104 6.5503 6.93455C8.12818 8.72254 10.4877 9.89853 13.1478 10.0215C13.0925 9.80552 13.0649 9.57904 13.0649 9.34806C13.0649 7.71758 14.4982 6.39455 16.2662 6.39455C17.1859 6.39455 18.018 6.75302 18.6029 7.32752C19.3309 7.194 20.0167 6.94802 20.6358 6.61052C20.3969 7.30053 19.89 7.87952 19.2286 8.2455C19.8737 8.17499 20.4928 8.01447 21.0664 7.78049C20.6375 8.37147 20.0931 8.89199 19.4675 9.30598Z" fill="#FD1015"/>
</svg>
